<svg width="140" height="140" viewBox="0 0 140 140" fill="none" xmlns="http://www.w3.org/2000/svg">
<path d="M70.0865 48.1523L67.8338 46.1266C59.8326 38.9602 54.5503 34.2183 54.5503 28.433C54.5503 23.6911 58.3101 19.9928 63.0952 19.9928C65.7985 19.9928 68.3931 21.2358 70.0865 23.1847M70.0865 48.1523L72.3393 46.1266C80.3405 38.9602 85.6228 34.2183 85.6228 28.433C85.6228 23.6911 81.863 19.9928 77.0779 19.9928C74.3745 19.9928 71.78 21.2358 70.0865 23.1847M70.0865 48.1523V67.4496M70.0865 23.1847V3M70.0865 92.4171L67.8338 90.3915C59.8326 83.225 54.5503 78.4832 54.5503 72.6978C54.5503 67.956 58.3101 64.2577 63.0952 64.2577C65.7985 64.2577 68.3931 65.5007 70.0865 67.4496M70.0865 92.4171L72.3393 90.3915C80.3405 83.225 85.6228 78.4832 85.6228 72.6978C85.6228 67.956 81.863 64.2577 77.0779 64.2577C74.3745 64.2577 71.78 65.5007 70.0865 67.4496M70.0865 92.4171V112.239M110.869 68.6271L108.616 66.6014C100.615 59.435 95.333 54.6931 95.333 48.9078C95.333 44.1659 99.0928 40.4676 103.878 40.4676C106.581 40.4676 109.176 41.7106 110.869 43.6595M110.869 68.6271L113.122 66.6014C121.123 59.435 126.406 54.6931 126.406 48.9078C126.406 44.1659 122.646 40.4676 117.861 40.4676C115.157 40.4676 112.563 41.7106 110.869 43.6595M110.869 68.6271V88.4493M110.869 43.6595V3M29.3038 68.6271L27.0511 66.6014C19.0499 59.435 13.7676 54.6931 13.7676 48.9078C13.7676 44.1659 17.5274 40.4676 22.3125 40.4676C25.0158 40.4676 27.6104 41.7106 29.3038 43.6595M29.3038 68.6271L31.5566 66.6014C39.5578 59.435 44.8401 54.6931 44.8401 48.9078C44.8401 44.1659 41.0803 40.4676 36.2952 40.4676C33.5919 40.4676 30.9973 41.7106 29.3038 43.6595M29.3038 68.6271V88.4493M29.3038 43.6595V3M70.0865 137L67.8338 134.975C59.8326 127.808 54.5503 123.066 54.5503 117.281C54.5503 112.539 58.3101 108.841 63.0952 108.841C65.7985 108.841 68.3931 110.084 70.0865 112.033C71.78 110.084 74.3745 108.841 77.0779 108.841C81.863 108.841 85.6228 112.539 85.6228 117.281C85.6228 123.066 80.3405 127.808 72.3393 134.975L70.0865 137ZM110.869 113.21L108.616 111.185C100.615 104.018 95.333 99.2763 95.333 93.4909C95.333 88.7491 99.0928 85.0507 103.878 85.0507C106.581 85.0507 109.176 86.2937 110.869 88.2427C112.563 86.2937 115.157 85.0507 117.861 85.0507C122.646 85.0507 126.406 88.7491 126.406 93.4909C126.406 99.2763 121.123 104.018 113.122 111.185L110.869 113.21ZM29.3038 113.21L27.0511 111.185C19.0499 104.018 13.7676 99.2763 13.7676 93.4909C13.7676 88.7491 17.5274 85.0507 22.3125 85.0507C25.0158 85.0507 27.6104 86.2937 29.3038 88.2427C30.9973 86.2937 33.5919 85.0507 36.2952 85.0507C41.0803 85.0507 44.8401 88.7491 44.8401 93.4909C44.8401 99.2763 39.5578 104.018 31.5566 111.185L29.3038 113.21Z" stroke="#B77D0D" stroke-width="1.5" stroke-linecap="round" stroke-linejoin="round"/>
<path d="M42.8984 14.8947V11.2534V16.1085" stroke="#B77D0D" stroke-width="1.5" stroke-linecap="round" stroke-linejoin="round"/>
<path d="M42.8984 23.6339L42.8984 19.9926L42.8984 24.8476" stroke="#B77D0D" stroke-width="1.5" stroke-linecap="round" stroke-linejoin="round"/>
<path d="M46.054 18.0508L49.6953 18.0508L44.8402 18.0508" stroke="#B77D0D" stroke-width="1.5" stroke-linecap="round" stroke-linejoin="round"/>
<path d="M37.3149 18.0508L40.9562 18.0508L36.1011 18.0508" stroke="#B77D0D" stroke-width="1.5" stroke-linecap="round" stroke-linejoin="round"/>
<path d="M126.406 21.6921V18.0508V22.9059" stroke="#B77D0D" stroke-width="1.5" stroke-linecap="round" stroke-linejoin="round"/>
<path d="M126.406 30.4312L126.406 26.7899L126.406 31.6449" stroke="#B77D0D" stroke-width="1.5" stroke-linecap="round" stroke-linejoin="round"/>
<path d="M129.563 24.8477L133.204 24.8477L128.349 24.8477" stroke="#B77D0D" stroke-width="1.5" stroke-linecap="round" stroke-linejoin="round"/>
<path d="M120.824 24.8477L124.465 24.8477L119.61 24.8477" stroke="#B77D0D" stroke-width="1.5" stroke-linecap="round" stroke-linejoin="round"/>
<path d="M102.131 120.736V117.095V121.95" stroke="#B77D0D" stroke-width="1.5" stroke-linecap="round" stroke-linejoin="round"/>
<path d="M102.131 129.475L102.131 125.834L102.131 130.689" stroke="#B77D0D" stroke-width="1.5" stroke-linecap="round" stroke-linejoin="round"/>
<path d="M105.286 123.892L108.928 123.892L104.073 123.892" stroke="#B77D0D" stroke-width="1.5" stroke-linecap="round" stroke-linejoin="round"/>
<path d="M96.5474 123.892L100.189 123.892L95.3336 123.892" stroke="#B77D0D" stroke-width="1.5" stroke-linecap="round" stroke-linejoin="round"/>
<path d="M17.6533 117.822V114.181V119.036" stroke="#B77D0D" stroke-width="1.5" stroke-linecap="round" stroke-linejoin="round"/>
<path d="M17.6533 126.562L17.6533 122.92L17.6533 127.775" stroke="#B77D0D" stroke-width="1.5" stroke-linecap="round" stroke-linejoin="round"/>
<path d="M20.8079 120.979L24.4492 120.979L19.5941 120.979" stroke="#B77D0D" stroke-width="1.5" stroke-linecap="round" stroke-linejoin="round"/>
<path d="M12.0688 120.979L15.7101 120.979L10.8551 120.979" stroke="#B77D0D" stroke-width="1.5" stroke-linecap="round" stroke-linejoin="round"/>
<path d="M15.7101 30.6738H19.5942" stroke="#B77D0D" stroke-width="1.5" stroke-linecap="round" stroke-linejoin="round"/>
<path d="M15.7103 30.6744H19.5944" stroke="#B77D0D" stroke-width="1.5" stroke-linecap="round" stroke-linejoin="round"/>
<path d="M17.6525 28.7322L17.6525 32.6162" stroke="#B77D0D" stroke-width="1.5" stroke-linecap="round" stroke-linejoin="round"/>
<path d="M7.94202 75.3411H11.8261" stroke="#B77D0D" stroke-width="1.5" stroke-linecap="round" stroke-linejoin="round"/>
<path d="M9.88379 73.3988L9.88379 77.2829" stroke="#B77D0D" stroke-width="1.5" stroke-linecap="round" stroke-linejoin="round"/>
<path d="M6 107.384H9.88407" stroke="#B77D0D" stroke-width="1.5" stroke-linecap="round" stroke-linejoin="round"/>
<path d="M7.9422 105.442L7.9422 109.326" stroke="#B77D0D" stroke-width="1.5" stroke-linecap="round" stroke-linejoin="round"/>
<path d="M43.869 120.007H47.7531" stroke="#B77D0D" stroke-width="1.5" stroke-linecap="round" stroke-linejoin="round"/>
<path d="M45.8115 118.065L45.8115 121.949" stroke="#B77D0D" stroke-width="1.5" stroke-linecap="round" stroke-linejoin="round"/>
<path d="M120.58 114.182H124.464" stroke="#B77D0D" stroke-width="1.5" stroke-linecap="round" stroke-linejoin="round"/>
<path d="M122.522 112.24L122.522 116.124" stroke="#B77D0D" stroke-width="1.5" stroke-linecap="round" stroke-linejoin="round"/>
<path d="M118.638 77.2828H122.522" stroke="#B77D0D" stroke-width="1.5" stroke-linecap="round" stroke-linejoin="round"/>
<path d="M120.58 75.3406L120.58 79.2247" stroke="#B77D0D" stroke-width="1.5" stroke-linecap="round" stroke-linejoin="round"/>
<path d="M94.3625 64.6599H98.2466" stroke="#B77D0D" stroke-width="1.5" stroke-linecap="round" stroke-linejoin="round"/>
<path d="M96.3047 62.7176L96.3047 66.6017" stroke="#B77D0D" stroke-width="1.5" stroke-linecap="round" stroke-linejoin="round"/>
<path d="M78.8262 52.0363H82.7102" stroke="#B77D0D" stroke-width="1.5" stroke-linecap="round" stroke-linejoin="round"/>
<path d="M80.7684 50.094L80.7684 53.9781" stroke="#B77D0D" stroke-width="1.5" stroke-linecap="round" stroke-linejoin="round"/>
<path d="M95.3341 12.2251H99.2182" stroke="#B77D0D" stroke-width="1.5" stroke-linecap="round" stroke-linejoin="round"/>
<path d="M97.2754 10.2827L97.2754 14.1668" stroke="#B77D0D" stroke-width="1.5" stroke-linecap="round" stroke-linejoin="round"/>
</svg>
