<svg width="140" height="140" viewBox="0 0 140 140" fill="none" xmlns="http://www.w3.org/2000/svg">
<path d="M70.0846 47.1523L67.8318 45.1266C59.8307 37.9602 54.5483 33.2183 54.5483 27.433C54.5483 22.6911 58.3081 18.9928 63.0933 18.9928C65.7966 18.9928 68.3911 20.2358 70.0846 22.1847M70.0846 47.1523L72.3373 45.1266C80.3385 37.9602 85.6209 33.2183 85.6209 27.433C85.6209 22.6911 81.8611 18.9928 77.0759 18.9928C74.3726 18.9928 71.778 20.2358 70.0846 22.1847M70.0846 47.1523V66.4496M70.0846 22.1847V5M70.0846 91.4171L67.8318 89.3915C59.8307 82.225 54.5483 77.4832 54.5483 71.6978C54.5483 66.956 58.3081 63.2577 63.0933 63.2577C65.7966 63.2577 68.3911 64.5007 70.0846 66.4496M70.0846 91.4171L72.3373 89.3915C80.3385 82.225 85.6209 77.4832 85.6209 71.6978C85.6209 66.956 81.8611 63.2577 77.0759 63.2577C74.3726 63.2577 71.778 64.5007 70.0846 66.4496M70.0846 91.4171V111.239M110.867 67.6271L108.615 65.6014C100.613 58.435 95.331 53.6931 95.331 47.9078C95.331 43.1659 99.0908 39.4676 103.876 39.4676C106.579 39.4676 109.174 40.7106 110.867 42.6595M110.867 67.6271L113.12 65.6014C121.121 58.435 126.404 53.6931 126.404 47.9078C126.404 43.1659 122.644 39.4676 117.859 39.4676C115.155 39.4676 112.561 40.7106 110.867 42.6595M110.867 67.6271V87.4493M110.867 42.6595V5M29.3019 67.6271L27.0491 65.6014C19.048 58.435 13.7656 53.6931 13.7656 47.9078C13.7656 43.1659 17.5254 39.4676 22.3106 39.4676C25.0139 39.4676 27.6084 40.7106 29.3019 42.6595M29.3019 67.6271L31.5546 65.6014C39.5558 58.435 44.8382 53.6931 44.8382 47.9078C44.8382 43.1659 41.0784 39.4676 36.2932 39.4676C33.5899 39.4676 30.9953 40.7106 29.3019 42.6595M29.3019 67.6271V87.4493M29.3019 42.6595V5M70.0846 136L67.8318 133.975C59.8307 126.808 54.5483 122.066 54.5483 116.281C54.5483 111.539 58.3081 107.841 63.0933 107.841C65.7966 107.841 68.3911 109.084 70.0846 111.033C71.778 109.084 74.3726 107.841 77.0759 107.841C81.8611 107.841 85.6209 111.539 85.6209 116.281C85.6209 122.066 80.3385 126.808 72.3373 133.975L70.0846 136ZM110.867 112.21L108.615 110.185C100.613 103.018 95.331 98.2763 95.331 92.4909C95.331 87.7491 99.0908 84.0508 103.876 84.0508C106.579 84.0508 109.174 85.2937 110.867 87.2427C112.561 85.2937 115.155 84.0508 117.859 84.0508C122.644 84.0508 126.404 87.7491 126.404 92.4909C126.404 98.2763 121.121 103.018 113.12 110.185L110.867 112.21ZM29.3019 112.21L27.0491 110.185C19.048 103.018 13.7656 98.2763 13.7656 92.4909C13.7656 87.7491 17.5254 84.0508 22.3106 84.0508C25.0139 84.0508 27.6084 85.2937 29.3019 87.2427C30.9953 85.2937 33.5899 84.0508 36.2932 84.0508C41.0784 84.0508 44.8382 87.7491 44.8382 92.4909C44.8382 98.2763 39.5558 103.018 31.5546 110.185L29.3019 112.21Z" stroke="#F48233" stroke-width="1.7" stroke-linecap="square"/>
<path d="M42.8984 13.8947V10.2534V15.1085" stroke="#F48233" stroke-width="1.7" stroke-linecap="square"/>
<path d="M42.8984 22.634L42.8984 18.9927L42.8984 23.8478" stroke="#F48233" stroke-width="1.7" stroke-linecap="square"/>
<path d="M46.054 17.0508L49.6953 17.0508L44.8402 17.0508" stroke="#F48233" stroke-width="1.7" stroke-linecap="square"/>
<path d="M37.3157 17.0508L40.957 17.0508L36.1019 17.0508" stroke="#F48233" stroke-width="1.7" stroke-linecap="square"/>
<path d="M126.406 20.6921V17.0508V21.9059" stroke="#F48233" stroke-width="1.7" stroke-linecap="square"/>
<path d="M126.406 29.4314L126.406 25.79L126.406 30.6451" stroke="#F48233" stroke-width="1.7" stroke-linecap="square"/>
<path d="M129.562 23.8477L133.203 23.8477L128.348 23.8477" stroke="#F48233" stroke-width="1.7" stroke-linecap="square"/>
<path d="M120.824 23.8477L124.465 23.8477L119.61 23.8477" stroke="#F48233" stroke-width="1.7" stroke-linecap="square"/>
<path d="M102.129 119.736V116.095V120.95" stroke="#F48233" stroke-width="1.7" stroke-linecap="square"/>
<path d="M102.129 128.475L102.129 124.834L102.129 129.689" stroke="#F48233" stroke-width="1.7" stroke-linecap="square"/>
<path d="M105.284 122.892L108.926 122.892L104.071 122.892" stroke="#F48233" stroke-width="1.7" stroke-linecap="square"/>
<path d="M96.5462 122.892L100.188 122.892L95.3324 122.892" stroke="#F48233" stroke-width="1.7" stroke-linecap="square"/>
<path d="M17.6523 116.822V113.181V118.036" stroke="#F48233" stroke-width="1.7" stroke-linecap="square"/>
<path d="M17.6523 125.562L17.6523 121.92L17.6523 126.775" stroke="#F48233" stroke-width="1.7" stroke-linecap="square"/>
<path d="M20.8079 119.979L24.4492 119.979L19.5941 119.979" stroke="#F48233" stroke-width="1.7" stroke-linecap="square"/>
<path d="M12.0696 119.979L15.7109 119.979L10.8559 119.979" stroke="#F48233" stroke-width="1.7" stroke-linecap="square"/>
<path d="M15.7109 29.6738H19.595" stroke="#F48233" stroke-width="1.7" stroke-linecap="square"/>
<path d="M15.7109 29.6743H19.595" stroke="#F48233" stroke-width="1.7" stroke-linecap="square"/>
<path d="M17.6523 27.7319L17.6523 31.616" stroke="#F48233" stroke-width="1.7" stroke-linecap="square"/>
<path d="M7.94141 74.3413H11.8255" stroke="#F48233" stroke-width="1.7" stroke-linecap="square"/>
<path d="M9.88281 72.3989L9.88281 76.283" stroke="#F48233" stroke-width="1.7" stroke-linecap="square"/>
<path d="M6 106.384H9.88407" stroke="#F48233" stroke-width="1.7" stroke-linecap="square"/>
<path d="M7.94141 104.442L7.94141 108.326" stroke="#F48233" stroke-width="1.7" stroke-linecap="square"/>
<path d="M43.8672 119.007H47.7513" stroke="#F48233" stroke-width="1.7" stroke-linecap="square"/>
<path d="M45.8086 117.065L45.8086 120.949" stroke="#F48233" stroke-width="1.7" stroke-linecap="square"/>
<path d="M120.582 113.182H124.466" stroke="#F48233" stroke-width="1.7" stroke-linecap="square"/>
<path d="M122.523 111.24L122.523 115.124" stroke="#F48233" stroke-width="1.7" stroke-linecap="square"/>
<path d="M118.637 76.2827H122.521" stroke="#F48233" stroke-width="1.7" stroke-linecap="square"/>
<path d="M120.578 74.3408L120.578 78.2249" stroke="#F48233" stroke-width="1.7" stroke-linecap="square"/>
<path d="M94.3633 63.6597H98.2473" stroke="#F48233" stroke-width="1.7" stroke-linecap="square"/>
<path d="M96.3047 61.7178L96.3047 65.6018" stroke="#F48233" stroke-width="1.7" stroke-linecap="square"/>
<path d="M78.8281 51.0361H82.7122" stroke="#F48233" stroke-width="1.7" stroke-linecap="square"/>
<path d="M80.7695 49.0942L80.7695 52.9783" stroke="#F48233" stroke-width="1.7" stroke-linecap="square"/>
<path d="M95.3359 11.2251H99.22" stroke="#F48233" stroke-width="1.7" stroke-linecap="square"/>
<path d="M97.2773 9.28271L97.2773 13.1668" stroke="#F48233" stroke-width="1.7" stroke-linecap="square"/>
</svg>
