<svg width="140" height="140" viewBox="0 0 140 140" fill="none" xmlns="http://www.w3.org/2000/svg">
<path d="M132 89.7851C132 100.425 123.405 109.05 112.803 109.05H8V27.8264H112.803V70.5207M132 89.7851C132 79.1457 123.405 70.5207 112.803 70.5207M132 89.7851V26.2645C132 19.6855 128.714 13.8769 123.699 10.4014M112.803 70.5207V7C116.85 7 120.603 8.25628 123.699 10.4014M123.699 10.4014V35.1157M123.699 52.2975V42.9256M90.4937 50.2149L101.389 39.281H112.803M65.0711 39.281H16.8201V70.5207M65.0711 39.281H85.3054M65.0711 39.281V45.5289M16.8201 70.5207V101.76H34.9791M16.8201 70.5207H24.6025M65.0711 70.5207V78.8512M65.0711 70.5207V53.8595M65.0711 70.5207H31.8661M65.0711 78.8512V101.76M65.0711 78.8512H81.6736M65.0711 101.76H81.6736M65.0711 101.76H50.5439M115.397 78.8512V101.76H81.6736M115.397 78.8512H81.6736M115.397 78.8512V70.6951M81.6736 78.8512V86.1405M81.6736 101.76V93.4298M115.397 121.545H31.3473M115.397 121.545V127.273M115.397 121.545L126.812 127.273L115.397 133M115.397 133H31.3473M115.397 133V127.273M31.3473 127.273H115.397M31.3473 133V121.545M31.3473 133H24.6025M31.3473 121.545H24.6025M24.6025 121.545H19.9331C17.0676 121.545 14.7448 123.877 14.7448 126.752V127.273V127.793C14.7448 130.669 17.0676 133 19.9331 133H24.6025M24.6025 121.545V133" stroke="#B77D0D" stroke-width="1.5" stroke-linecap="round" stroke-linejoin="round"/>
</svg>
