<svg width="140" height="140" viewBox="0 0 140 140" fill="none" xmlns="http://www.w3.org/2000/svg">
<path d="M132 89.7851C132 100.425 123.405 109.05 112.803 109.05H8V25.8264H112.803V70.5207M132 89.7851V24.2645C132 17.6855 128.714 11.8769 123.699 8.40136M132 89.7851C132 80.6448 125.657 72.9912 117.147 71.0159C117.147 71.0159 117.115 71.0085 117.099 71.0048M112.803 70.5207V5C116.85 5 120.603 6.25628 123.699 8.40136M112.803 70.5207C114.28 70.5207 115.718 70.688 117.099 71.0048M123.699 8.40136V33.1157M123.699 50.2975V40.9256M90.4937 48.2149L101.389 37.281H112.803M65.0711 37.281H16.8201V70.5207M65.0711 37.281H85.3054M65.0711 37.281V43.5289M16.8201 70.5207V101.76H34.9791M16.8201 70.5207H24.6025M65.0711 70.5207V78.8512M65.0711 70.5207V51.8595M65.0711 70.5207H31.8661M65.0711 78.8512V101.76M65.0711 78.8512H81.6736M65.0711 101.76H81.6736M65.0711 101.76H50.5439M117.099 78.8512V101.76H81.6736M117.099 78.8512H81.6736M117.099 78.8512V71.0048M81.6736 78.8512V86.1405M81.6736 101.76V93.4297M115.397 121.545L24.6025 121.545M115.397 121.545V127.273M115.397 121.545L126.812 127.273L115.397 133M115.397 133H24.6025M115.397 133V127.273M31.3473 127.273H115.397M24.6025 133V121.545M24.6025 133H17.8577M24.6025 121.545H17.8577M17.8577 121.545H13.1883C10.3229 121.545 8 123.877 8 126.752V127.273V127.793C8 130.669 10.3229 133 13.1883 133H17.8577M17.8577 121.545V133" stroke="#F48233" stroke-width="1.7" stroke-linecap="square"/>
</svg>
