<svg width="140" height="140" viewBox="0 0 140 140" fill="none" xmlns="http://www.w3.org/2000/svg">
<path d="M7 17.5V9C7 6.23858 9.23858 4 12 4H26C28.7614 4 31 6.23858 31 9V17.5M7 17.5H31M7 17.5V86.5M31 17.5V58.7557M7 86.5V112C7 114.761 9.23858 117 12 117H25.5371M7 86.5H31M31 86.5V71.4385M31 86.5V88.0557M12.5 95.5H22M12.5 100.5H17.25M32.5283 55.5498L54.4748 9.51337C55.6632 7.02071 58.6472 5.96331 61.1398 7.15162L73.7773 13.1761C76.2699 14.3645 77.3273 17.3485 76.139 19.8411L55.2832 63.5897M32.5283 55.5498L54.1925 65.8775M32.5283 55.5498L31 58.7557M54.1925 65.8775L54.8893 64.416M54.1925 65.8775L47.8793 79.1205M47.7377 79.4177L31 71.4385M60.6474 52.3374L38.9832 42.0097M67.1022 38.7973L45.4381 28.4695M73.5571 25.2572L51.8929 14.9294M41.2828 92.9578L31 88.0557M31 58.7557V71.4385M31 71.4385V88.0557M31 88.0557V113.371V114.033M31 114.033C31.3224 113.678 31.5989 113.271 31.8157 112.817L40.8694 93.825M31 114.033V114.209V114.209C31 115.751 29.7506 117 28.2095 117H25.5371M70.5734 82.1078L54.8893 64.416M70.5734 82.1078L71.858 80.969M70.5734 82.1078L59.1292 92.2533M59.3491 92.0584L47.8793 79.1205M81.7977 72.1572L65.8768 54.1983M93.0221 62.2066L77.1011 44.2477M104.246 52.256L88.3255 34.2971M48.1247 102.009L40.8694 93.825M55.2832 63.5897L92.8152 30.3169C94.8815 28.485 98.0417 28.6751 99.8735 30.7414L109.161 41.2175C110.993 43.2838 110.802 46.4439 108.736 48.2758L74.9737 78.2069M55.2832 63.5897L54.8893 64.416M47.8793 79.1205L40.8694 93.825M25.5371 117C27.3843 118.256 29.9146 118.153 31.6624 116.603L33.6488 114.842M76.9717 102.404L71.858 80.969M76.9717 102.404L63.5519 105.605M76.9717 102.404L80.5331 101.554M62.3812 105.885L59.1292 92.2533M91.5623 98.9228L85.9928 75.578M106.153 95.4419L100.583 72.0971M120.743 91.961L115.174 68.6161M47.7907 109.366L46.4003 103.538M74.9737 78.2069L121.01 67.2238C123.696 66.583 126.393 68.2409 127.034 70.927L130.283 84.5448C130.924 87.2308 129.266 89.9278 126.579 90.5686L80.928 101.46M74.9737 78.2069L71.858 80.969M71.858 80.969L59.1292 92.2533M59.1292 92.2533L46.4003 103.538M46.4003 103.538L36.894 111.965M36.894 111.965L47.1981 109.507M36.894 111.965L33.6488 114.842M59.8508 121.101L63.5519 105.605M89.03 128.07L94.6057 104.727M103.62 131.555L109.195 108.212M118.209 135.04L123.785 111.696M45.2612 117.616L47.1981 109.507M80.928 101.46L129.621 113.09C132.307 113.732 133.964 116.429 133.322 119.115L130.07 132.732C129.428 135.418 126.731 137.075 124.045 136.434L74.4404 124.585L33.6488 114.842M80.928 101.46L80.5331 101.554M63.5519 105.605L47.1981 109.507M63.5519 105.605L80.5331 101.554M75 124.719L80.5331 101.554M28 108C28 109.657 26.6569 111 25 111C23.3431 111 22 109.657 22 108C22 106.343 23.3431 105 25 105C26.6569 105 28 106.343 28 108Z" stroke="#F48233" stroke-width="1.7" stroke-linecap="square"/>
</svg>
