<svg width="196" height="78" viewBox="0 0 196 78" fill="none" xmlns="http://www.w3.org/2000/svg">
<path d="M45.4532 58.4999V26.53H27.6772C26.3093 26.53 25.0256 26.7978 23.8261 27.3291C22.6245 27.8605 21.5765 28.5837 20.68 29.4967C19.7835 30.4097 19.0849 31.4767 18.584 32.6933C18.0832 33.9121 17.8306 35.2046 17.8306 36.5752C17.8306 37.9457 18.081 39.2404 18.584 40.457C19.0849 41.6736 19.7835 42.7406 20.68 43.6536C21.5765 44.5666 22.6245 45.2898 23.8261 45.8233C25.0256 46.3567 26.3093 46.6224 27.6772 46.6224L16.7363 58.4978H22.4351L33.3738 46.6224H40.895V58.4978H45.4532V58.4999ZM28.1338 42.515C27.3131 42.515 26.545 42.3631 25.8316 42.0574C25.1161 41.7538 24.4869 41.3278 23.9397 40.7775C23.3926 40.2314 22.9675 39.5988 22.6645 38.8819C22.3593 38.1671 22.2078 37.3975 22.2078 36.5752C22.2078 35.7528 22.3593 34.9853 22.6645 34.2684C22.9675 33.5536 23.3926 32.921 23.9397 32.3728C24.4869 31.8246 25.1161 31.3987 25.8316 31.095C26.545 30.7914 27.3131 30.6396 28.1338 30.6396H40.8971V42.5128H28.1338V42.515Z" fill="#FEE0C0"/>
<path d="M76.1419 29.4988C75.2476 28.5858 74.1995 27.8626 73 27.3312C71.8005 26.7978 70.5189 26.5321 69.1532 26.5321H51.3982V73.205H4.54554V4.79499H51.4108V18.2286H55.9564V0.383886H0V77.6161H55.9564V54.1415H55.9522V46.6245H69.1553C70.521 46.6245 71.8026 46.3589 73.0021 45.8254C74.2017 45.294 75.2476 44.5687 76.144 43.6557C77.0384 42.7427 77.7371 41.6758 78.2379 40.4591C78.7388 39.2425 78.9892 37.9478 78.9892 36.5773C78.9892 35.2067 78.7388 33.9142 78.2379 32.6954C77.7371 31.4788 77.0384 30.4118 76.1419 29.4988ZM74.1617 38.884C73.8586 39.6009 73.4335 40.2314 72.8864 40.7796C72.3392 41.3278 71.71 41.7559 70.9966 42.0595C70.2832 42.3653 69.5172 42.5171 68.6965 42.5171H55.9501V30.6438H68.6965C69.5151 30.6438 70.2832 30.7956 70.9966 31.0992C71.7079 31.405 72.3392 31.8288 72.8864 32.377C73.4335 32.9252 73.8565 33.5578 74.1617 34.2726C74.4647 34.9895 74.6162 35.757 74.6162 36.5794C74.6162 37.4017 74.4668 38.1692 74.1617 38.884Z" fill="#FEE0C0"/>
<path d="M190.604 27.5252V30.2368L174.665 53.159V27.5252H171.269V56.9607H174.665V54.2512L190.604 31.2869V56.9607H194V27.5252H190.604Z" fill="#FEE0C0"/>
<path d="M163.757 55.9865C163.174 55.7841 162.806 55.5459 162.66 55.2802C162.509 54.9765 162.433 54.4536 162.433 53.7241V27.4051H145.985V27.8942L146.107 27.8985C148.003 27.9786 148.925 29.0455 148.925 31.1625C148.925 34.2642 148.574 37.8825 147.879 41.9183C146.999 46.964 145.773 50.8459 144.232 53.4542C143.864 54.0361 143.352 54.6813 142.713 55.3751C142.151 56.0161 141.642 56.3408 141.198 56.3408H138.653V62.0824H139.142L139.188 61.2516C139.449 59.7904 140.227 58.6792 141.501 57.9496C142.82 57.2116 144.899 56.8363 147.683 56.8363H158.197C159.761 56.8363 161.093 56.9565 162.162 57.1947C164.538 57.6396 165.954 58.9891 166.368 61.1926L166.415 62.0803H166.905V56.3429L166.783 56.3387C165.4 56.2902 164.382 56.17 163.757 55.9865ZM144.487 54.3187C145.615 52.5159 146.488 50.5486 147.079 48.4759C147.696 46.3568 148.266 43.6641 148.776 40.4697C149.018 38.8861 149.207 37.2689 149.342 35.6558C149.529 32.9632 149.636 31.2637 149.664 30.608C149.744 29.1299 149.773 28.5901 149.781 28.3982L150.135 28.3033C151.109 28.0376 152.061 27.9027 152.961 27.9027H155.619C157.027 27.9027 158.176 28.065 159.037 28.3876V55.742C158.003 56.1426 155.798 56.345 152.477 56.345H142.751C143.422 55.7462 144.005 55.0651 144.487 54.3187Z" fill="#FEE0C0"/>
<path d="M139.951 41.9372C139.951 40.4802 139.787 39.0464 139.465 37.6737C139.168 36.2947 138.636 34.9115 137.881 33.5599C137.125 32.2083 136.18 31.0149 135.075 30.0175C133.971 29.016 132.533 28.1937 130.803 27.5695C129.084 26.9496 127.131 26.6354 124.999 26.6354C122.899 26.6354 120.959 26.9644 119.235 27.6117C117.535 28.2611 116.113 29.1235 115.006 30.1778C113.903 31.2026 112.958 32.4087 112.203 33.7602C111.449 35.1076 110.902 36.4908 110.578 37.8698C110.254 39.2193 110.092 40.5877 110.092 41.9372C110.092 44.7711 110.746 47.4511 112.038 49.9034C113.118 52.092 114.759 53.8885 116.921 55.2422C119.076 56.5664 121.794 57.2517 125.004 57.2812C127.133 57.2812 129.111 56.9523 130.89 56.3028C132.668 55.6281 134.147 54.7235 135.284 53.6123C136.873 52.0478 138.074 50.1985 138.859 48.1174C139.638 46.0173 140.006 43.9382 139.951 41.9372ZM113.808 41.9393C113.808 37.387 114.789 33.7307 116.725 31.076C118.65 28.4593 121.437 27.133 125.002 27.133C128.514 27.133 131.298 28.5141 133.276 31.2384C135.237 34.0027 136.233 37.6041 136.233 41.9414C136.233 44.5244 135.829 46.9535 135.031 49.1632C134.21 51.4426 132.897 53.3129 131.125 54.7151C129.385 56.0899 127.323 56.7878 125.002 56.7878C122.603 56.7878 120.53 56.0645 118.838 54.6371C115.5 51.9023 113.808 47.6324 113.808 41.9393Z" fill="#FEE0C0"/>
<path d="M107.99 54.1015C107.862 55.704 107.348 56.4841 106.425 56.4841C105.852 56.4841 105.387 56.1362 105.002 55.4151C104.688 54.9175 104.503 54.5633 104.451 54.3524C104.396 54.1858 104.274 53.9033 104.087 53.4984C103.922 53.0873 103.819 52.811 103.762 52.6487C103.514 52.0688 103.245 51.4173 102.959 50.7151C102.691 49.9919 102.527 49.5681 102.475 49.4605C101.723 47.6303 100.795 46.07 99.7156 44.8259C98.8192 43.74 97.8196 42.8755 96.7442 42.2577C95.7572 41.6505 94.4883 41.1781 92.9668 40.8555C94.3368 40.573 95.4289 39.9552 96.2097 39.019C96.6937 38.4539 97.2556 37.5641 97.8785 36.3706C98.4656 35.1666 99.0633 33.7223 99.6546 32.0839C100.318 30.4625 100.894 29.3175 101.372 28.6828C101.887 27.9849 102.552 27.6454 103.405 27.6454C104.402 27.6454 105.303 28.2105 106.079 29.3259L106.262 29.5874L106.566 27.5653L106.486 27.5231C105.614 27.0592 104.754 26.8231 103.929 26.8231C102.849 26.8231 101.923 27.23 101.178 28.0334C100.652 28.5879 100.065 29.6696 99.381 31.3417L97.6491 35.4597C97.1188 36.7333 96.4896 37.796 95.7741 38.6184C94.705 39.9257 93.2467 40.5877 91.4411 40.5877H86.8955V27.4704H83.499V56.9059H86.8955V41.0854H91.4411C92.4512 41.0854 93.3161 41.4122 94.0148 42.0595C94.7534 42.7216 95.5699 43.9045 96.4433 45.5745C96.7105 46.1079 97.3019 47.3984 98.2531 49.5217C99.219 51.7526 100.172 53.5659 101.084 54.9112C102.205 56.6107 103.649 57.471 105.379 57.471C107.357 57.471 108.403 56.3429 108.487 54.1205L108.491 53.9876H108.001L107.99 54.1015Z" fill="#FEE0C0"/>
</svg>
