<svg width="146" height="171" viewBox="0 0 146 171" fill="none" xmlns="http://www.w3.org/2000/svg">
<path d="M108.368 146.405H109.587V157.704H108.368V147.655L102.085 156.688V157.704H100.866V146.405H102.085V156.438L108.368 147.421V146.405Z" fill="#EBE6D7"/>
<path d="M95.8798 146.405V156.547C95.8798 156.839 95.911 157.047 95.9736 157.172C96.0361 157.287 96.1871 157.386 96.4268 157.469C96.6768 157.542 97.0727 157.589 97.6145 157.61V159.735H97.5207L97.5051 159.438C97.3384 158.553 96.781 158.021 95.8329 157.844C95.4162 157.751 94.9004 157.704 94.2857 157.704H90.2068C89.1128 157.704 88.3053 157.85 87.7844 158.141C87.2739 158.433 86.9665 158.871 86.8624 159.454L86.8467 159.735H86.753V157.61H87.6906C87.8782 157.61 88.0866 157.48 88.3158 157.219C88.5658 156.948 88.7638 156.698 88.9096 156.469C89.5139 155.448 89.988 153.953 90.3318 151.984C90.6027 150.411 90.7381 149.02 90.7381 147.811C90.7381 146.967 90.3578 146.53 89.5973 146.498V146.405H95.8798ZM94.6608 157.36V146.701C94.317 146.566 93.8585 146.498 93.2855 146.498H92.2541C91.8998 146.498 91.53 146.55 91.1445 146.655L90.9726 146.701C90.9726 146.722 90.9569 147.019 90.9257 147.592C90.9152 147.842 90.8736 148.494 90.8006 149.546C90.7485 150.171 90.6756 150.791 90.5818 151.406C90.3839 152.645 90.1651 153.677 89.9255 154.5C89.6962 155.302 89.3629 156.052 88.9253 156.75C88.7169 157.073 88.4616 157.36 88.1595 157.61H92.0665C93.4001 157.61 94.2649 157.527 94.6608 157.36Z" fill="#EBE6D7"/>
<path d="M84.7268 152.031C84.7476 152.802 84.607 153.594 84.3049 154.406C84.0027 155.208 83.5443 155.912 82.9296 156.516C82.492 156.943 81.9294 157.287 81.2417 157.547C80.5541 157.798 79.7987 157.923 78.9757 157.923C77.7358 157.912 76.6992 157.652 75.8657 157.141C75.0322 156.62 74.407 155.938 73.9903 155.094C73.4902 154.146 73.2401 153.125 73.2401 152.031C73.2401 151.51 73.3026 150.989 73.4277 150.468C73.5527 149.937 73.7611 149.41 74.0528 148.889C74.3445 148.369 74.704 147.91 75.1311 147.514C75.5583 147.108 76.1001 146.78 76.7565 146.53C77.4233 146.28 78.163 146.155 78.9757 146.155C79.7987 146.155 80.5437 146.274 81.2105 146.514C81.8773 146.754 82.4243 147.066 82.8514 147.452C83.2786 147.837 83.638 148.29 83.9298 148.811C84.2215 149.332 84.4247 149.858 84.5393 150.39C84.6643 150.921 84.7268 151.468 84.7268 152.031ZM83.3828 152.031C83.3828 150.332 82.9973 148.942 82.2263 147.858C81.4449 146.785 80.3613 146.248 78.9757 146.248C77.5691 146.248 76.4856 146.764 75.725 147.795C74.9644 148.837 74.5841 150.249 74.5841 152.031C74.5841 154.26 75.2405 155.912 76.5533 156.985C77.2201 157.547 78.0275 157.829 78.9757 157.829C79.8925 157.829 80.6947 157.558 81.3824 157.016C82.0804 156.464 82.591 155.74 82.9139 154.844C83.2265 153.979 83.3828 153.041 83.3828 152.031Z" fill="#EBE6D7"/>
<path d="M62.3438 146.405V151.484H64.1567C64.8756 151.484 65.4486 151.224 65.8758 150.703C66.1571 150.38 66.4019 149.968 66.6103 149.468L67.2823 147.874C67.5428 147.238 67.772 146.816 67.9699 146.608C68.2512 146.306 68.5951 146.155 69.0014 146.155C69.314 146.155 69.6369 146.243 69.9703 146.42L69.8766 147.046C69.564 146.598 69.2046 146.374 68.7982 146.374C68.4544 146.374 68.1783 146.514 67.9699 146.796C67.7824 147.046 67.5584 147.488 67.2979 148.124C67.0687 148.759 66.8395 149.312 66.6103 149.781C66.3707 150.239 66.1571 150.578 65.9695 150.796C65.6466 151.182 65.1933 151.421 64.6099 151.515V151.562C65.2558 151.687 65.782 151.875 66.1883 152.125C66.6051 152.364 66.9854 152.693 67.3292 153.109C67.7459 153.589 68.1002 154.182 68.3919 154.891C68.4127 154.933 68.4752 155.094 68.5794 155.375C68.694 155.657 68.7982 155.907 68.892 156.126C68.9128 156.188 68.9545 156.297 69.017 156.454C69.09 156.61 69.1368 156.719 69.1577 156.782C69.1785 156.865 69.2514 157.006 69.3765 157.204C69.5327 157.496 69.7307 157.641 69.9703 157.641C70.3558 157.641 70.5746 157.318 70.6267 156.673H70.7205C70.6892 157.506 70.3037 157.923 69.564 157.923C68.9076 157.923 68.3658 157.6 67.9387 156.954C67.5844 156.433 67.2198 155.74 66.8447 154.875C66.4801 154.063 66.2456 153.552 66.1414 153.344C65.7976 152.687 65.4799 152.229 65.1881 151.968C64.9068 151.708 64.563 151.578 64.1567 151.578H62.3438V157.704H61.1248V146.405H62.3438Z" fill="#EBE6D7"/>
<path d="M57.3685 149.562C57.3685 150.551 56.9778 151.395 56.1964 152.093C55.4254 152.792 54.3627 153.141 53.0082 153.141C52.2685 153.141 51.633 153.073 51.1016 152.937V157.704H49.8826V146.405H50.1327C50.3515 146.405 50.8411 146.374 51.6017 146.311C52.4561 146.259 52.9822 146.233 53.1802 146.233C53.9511 146.233 54.6179 146.332 55.1806 146.53C55.7536 146.717 56.1912 146.978 56.4933 147.311C56.7955 147.645 57.0143 147.999 57.1497 148.374C57.2956 148.739 57.3685 149.135 57.3685 149.562ZM56.0245 149.562C56.0245 148.52 55.7536 147.723 55.2118 147.171C54.67 146.608 53.9043 146.327 52.9145 146.327C52.4977 146.327 51.8934 146.42 51.1016 146.608V152.844C51.633 152.979 52.2477 153.047 52.9457 153.047C53.8938 153.047 54.644 152.745 55.1962 152.14C55.7484 151.526 56.0245 150.666 56.0245 149.562Z" fill="#EBE6D7"/>
<path d="M45.3563 146.405V157.704H44.1373V151.984C43.408 152.015 42.8089 152.13 42.3401 152.328C41.8712 152.515 41.4649 152.823 41.1211 153.25C40.8398 153.594 40.5012 154.219 40.1052 155.125C39.876 155.605 39.7302 155.902 39.6677 156.016C39.5635 156.204 39.4176 156.449 39.2301 156.751C39.053 157.022 38.881 157.235 38.7143 157.391C38.2768 157.746 37.8288 157.923 37.3703 157.923C36.6306 157.923 36.2295 157.506 36.167 156.673H36.2607C36.3128 157.318 36.5264 157.641 36.9015 157.641C37.1203 157.641 37.3182 157.532 37.4953 157.313C37.6829 157.084 37.8965 156.667 38.1361 156.063C38.3862 155.49 38.5789 155.084 38.7143 154.844C39.0477 154.25 39.5114 153.719 40.1052 153.25C40.6991 152.771 41.3815 152.432 42.1525 152.234V152.187L41.84 152.203C41.7045 152.213 41.5482 152.218 41.3711 152.218C40.298 152.208 39.3968 151.937 38.6675 151.406C37.9277 150.874 37.5579 150.098 37.5579 149.077C37.5579 148.431 37.8079 147.822 38.308 147.249C38.9019 146.572 39.9802 146.233 41.543 146.233C41.7931 146.233 42.3609 146.259 43.2465 146.311C44.0383 146.374 44.6009 146.405 44.9343 146.405H45.3563ZM44.1373 151.89V146.655C43.3142 146.436 42.6318 146.327 42.09 146.327C41.1732 146.327 40.4126 146.561 39.8083 147.03C39.204 147.509 38.9019 148.207 38.9019 149.124C38.9019 150.062 39.1624 150.781 39.6833 151.281C40.2042 151.781 40.9648 152.031 41.965 152.031C42.2671 152.031 42.7047 152.01 43.2778 151.968C43.6633 151.948 43.9498 151.922 44.1373 151.89Z" fill="#EBE6D7"/>
<path d="M107.148 167.103C107.842 167.103 108.376 167.26 108.752 167.574C109.127 167.882 109.314 168.343 109.314 168.959C109.314 169.609 109.11 170.101 108.701 170.437C108.298 170.768 107.73 170.933 106.996 170.933H104.569V165.054H105.401V167.103H107.148ZM106.963 170.269C107.45 170.269 107.822 170.16 108.08 169.942C108.343 169.724 108.474 169.402 108.474 168.976C108.474 168.562 108.346 168.257 108.088 168.061C107.831 167.865 107.455 167.767 106.963 167.767H105.401V170.269H106.963Z" fill="#EBE6D7"/>
<path d="M90.9383 171C90.8543 171 90.7703 170.994 90.6863 170.983C90.6023 170.972 90.51 170.955 90.4092 170.933L90.468 170.185C90.5575 170.208 90.6471 170.219 90.7367 170.219C90.983 170.219 91.179 170.121 91.3246 169.925C91.4701 169.729 91.5765 169.432 91.6437 169.035C91.7165 168.637 91.7641 168.136 91.7865 167.532L91.8788 165.054H96.0191V170.933H95.1961V165.566L95.3976 165.785H92.4163L92.6011 165.558L92.5339 167.506C92.5171 168.089 92.4779 168.598 92.4163 169.035C92.3547 169.472 92.2624 169.835 92.1392 170.127C92.016 170.418 91.8564 170.636 91.6605 170.782C91.4701 170.927 91.2294 171 90.9383 171Z" fill="#EBE6D7"/>
<path d="M79.6763 167.59H82.6996V168.304H79.6763V167.59ZM79.7519 170.202H83.1783V170.933H78.9121V165.054H83.0608V165.785H79.7519V170.202Z" fill="#EBE6D7"/>
<path d="M66.0508 170.933V165.054H70.485V165.768H66.8822V167.448H68.713C69.4128 167.448 69.9447 167.593 70.3086 167.884C70.6725 168.175 70.8545 168.598 70.8545 169.152C70.8545 169.724 70.6557 170.163 70.2582 170.471C69.8663 170.779 69.3036 170.933 68.5702 170.933H66.0508ZM66.8822 170.269H68.5366C69.0237 170.269 69.3904 170.177 69.6368 169.992C69.8887 169.808 70.0147 169.533 70.0147 169.169C70.0147 168.464 69.522 168.111 68.5366 168.111H66.8822V170.269Z" fill="#EBE6D7"/>
<path d="M54.5111 167.59H57.5344V168.304H54.5111V167.59ZM54.5867 170.202H58.0131V170.933H53.7469V165.054H57.8956V165.785H54.5867V170.202Z" fill="#EBE6D7"/>
<path d="M38.9424 170.933V165.054H39.631L42.268 169.497H41.8985L44.5019 165.054H45.1905L45.1989 170.933H44.3927L44.3843 166.322H44.5775L42.2596 170.219H41.8733L39.5386 166.322H39.7486V170.933H38.9424Z" fill="#EBE6D7"/>
<path d="M81.8259 22.3806C81.4534 22.3806 81.1476 22.0814 81.1476 21.7023C81.1476 21.3299 81.4534 21.0241 81.8259 21.0241C82.205 21.0241 82.5041 21.3299 82.5041 21.7023C82.5041 22.0814 82.205 22.3806 81.8259 22.3806ZM78.7608 22.3806C78.3883 22.3806 78.0826 22.0814 78.0826 21.7023C78.0826 21.3299 78.3883 21.0241 78.7608 21.0241C79.1399 21.0241 79.4391 21.3299 79.4391 21.7023C79.4391 22.0814 79.1399 22.3806 78.7608 22.3806ZM75.6951 22.3806C75.3233 22.3806 75.0175 22.0814 75.0175 21.7023C75.0175 21.3299 75.3233 21.0241 75.6951 21.0241C76.0676 21.0241 76.374 21.3299 76.374 21.7023C76.374 22.0814 76.0676 22.3806 75.6951 22.3806ZM72.671 22.3733C72.3164 22.3489 72.0344 22.0689 72.0344 21.7023C72.0344 21.3424 72.3164 21.0564 72.671 21.0313C73.0263 21.0564 73.3083 21.3424 73.3083 21.7023C73.3083 22.0689 73.0263 22.3489 72.671 22.3733ZM69.6469 22.3806C69.2751 22.3806 68.9687 22.0814 68.9687 21.7023C68.9687 21.3299 69.2751 21.0241 69.6469 21.0241C70.0194 21.0241 70.3252 21.3299 70.3252 21.7023C70.3252 22.0814 70.0194 22.3806 69.6469 22.3806ZM66.5819 22.3806C66.2028 22.3806 65.9036 22.0814 65.9036 21.7023C65.9036 21.3299 66.2028 21.0241 66.5819 21.0241C66.9544 21.0241 67.2601 21.3299 67.2601 21.7023C67.2601 22.0814 66.9544 22.3806 66.5819 22.3806ZM63.5168 22.3806C63.1377 22.3806 62.8386 22.0814 62.8386 21.7023C62.8386 21.3299 63.1377 21.0241 63.5168 21.0241C63.8893 21.0241 64.1951 21.3299 64.1951 21.7023C64.1951 22.0814 63.8893 22.3806 63.5168 22.3806ZM80.8484 12.4867C80.6358 13.1518 80.682 13.8697 80.935 14.5215C81.3603 15.6119 81.8193 17.6202 80.1372 18.77C77.7431 20.4191 75.4164 18.2846 74.9772 15.8582C74.5255 13.3842 75.1239 11.5892 77.0721 10.9908C79.0131 10.3925 72.6327 0 72.6327 0C72.6327 0 66.3296 10.3925 68.2706 10.9908C70.2189 11.5892 70.8172 13.3842 70.3655 15.8582C69.9263 18.2846 67.5989 20.4191 65.2055 18.77C63.5234 17.6202 63.9824 15.6119 64.4077 14.5215C64.6607 13.8697 64.7069 13.1518 64.4943 12.4867C62.865 7.41397 55.2588 7.48001 55.2588 7.48001C62.6655 17.7266 62.5856 23.5575 62.5856 23.5575H82.7571C82.7571 23.5575 82.6765 17.7266 90.0839 7.48001C90.0839 7.48001 82.4777 7.41397 80.8484 12.4867Z" fill="#EBE6D7"/>
<path d="M81.5941 24.9822H63.7487C63.1497 24.9822 62.6643 25.4676 62.6643 26.0666C62.6643 26.6656 63.1497 27.1517 63.7487 27.1517H81.5941C82.1931 27.1517 82.6785 26.6656 82.6785 26.0666C82.6785 25.4676 82.1931 24.9822 81.5941 24.9822Z" fill="#EBE6D7"/>
<path d="M81.8259 22.3806C81.4534 22.3806 81.1476 22.0814 81.1476 21.7023C81.1476 21.3299 81.4534 21.0241 81.8259 21.0241C82.205 21.0241 82.5041 21.3299 82.5041 21.7023C82.5041 22.0814 82.205 22.3806 81.8259 22.3806ZM78.7608 22.3806C78.3883 22.3806 78.0826 22.0814 78.0826 21.7023C78.0826 21.3299 78.3883 21.0241 78.7608 21.0241C79.1399 21.0241 79.4391 21.3299 79.4391 21.7023C79.4391 22.0814 79.1399 22.3806 78.7608 22.3806ZM75.6951 22.3806C75.3233 22.3806 75.0175 22.0814 75.0175 21.7023C75.0175 21.3299 75.3233 21.0241 75.6951 21.0241C76.0676 21.0241 76.374 21.3299 76.374 21.7023C76.374 22.0814 76.0676 22.3806 75.6951 22.3806ZM72.671 22.3733C72.3164 22.3489 72.0344 22.0689 72.0344 21.7023C72.0344 21.3424 72.3164 21.0564 72.671 21.0313C73.0263 21.0564 73.3083 21.3424 73.3083 21.7023C73.3083 22.0689 73.0263 22.3489 72.671 22.3733ZM69.6469 22.3806C69.2751 22.3806 68.9687 22.0814 68.9687 21.7023C68.9687 21.3299 69.2751 21.0241 69.6469 21.0241C70.0194 21.0241 70.3252 21.3299 70.3252 21.7023C70.3252 22.0814 70.0194 22.3806 69.6469 22.3806ZM66.5819 22.3806C66.2028 22.3806 65.9036 22.0814 65.9036 21.7023C65.9036 21.3299 66.2028 21.0241 66.5819 21.0241C66.9544 21.0241 67.2601 21.3299 67.2601 21.7023C67.2601 22.0814 66.9544 22.3806 66.5819 22.3806ZM63.5168 22.3806C63.1377 22.3806 62.8386 22.0814 62.8386 21.7023C62.8386 21.3299 63.1377 21.0241 63.5168 21.0241C63.8893 21.0241 64.1951 21.3299 64.1951 21.7023C64.1951 22.0814 63.8893 22.3806 63.5168 22.3806ZM80.8484 12.4867C80.6358 13.1518 80.682 13.8697 80.935 14.5215C81.3603 15.6119 81.8193 17.6202 80.1372 18.77C77.7431 20.4191 75.4164 18.2846 74.9772 15.8582C74.5255 13.3842 75.1239 11.5892 77.0721 10.9908C79.0131 10.3925 72.6327 0 72.6327 0C72.6327 0 66.3296 10.3925 68.2706 10.9908C70.2189 11.5892 70.8172 13.3842 70.3655 15.8582C69.9263 18.2846 67.5989 20.4191 65.2055 18.77C63.5234 17.6202 63.9824 15.6119 64.4077 14.5215C64.6607 13.8697 64.7069 13.1518 64.4943 12.4867C62.865 7.41397 55.2588 7.48001 55.2588 7.48001C62.6655 17.7266 62.5856 23.5575 62.5856 23.5575H82.7571C82.7571 23.5575 82.6765 17.7266 90.0839 7.48001C90.0839 7.48001 82.4777 7.41397 80.8484 12.4867Z" fill="#EBE6D7"/>
<path d="M81.5941 24.9822H63.7487C63.1497 24.9822 62.6643 25.4676 62.6643 26.0666C62.6643 26.6656 63.1497 27.1517 63.7487 27.1517H81.5941C82.1931 27.1517 82.6785 26.6656 82.6785 26.0666C82.6785 25.4676 82.1931 24.9822 81.5941 24.9822Z" fill="#EBE6D7"/>
<path d="M74.6824 30.3375C73.9275 29.3918 72.5492 29.2366 71.6028 29.9914C70.6571 30.7463 70.5019 32.1246 71.2568 33.071C72.011 34.0167 73.39 34.1719 74.3357 33.4171C75.2821 32.6622 75.4373 31.2839 74.6824 30.3375Z" fill="#EBE6D7"/>
<path d="M63.8483 31.4986C63.5148 31.7951 63.4745 32.2012 63.462 32.6226C63.4521 32.9759 63.0109 32.9885 62.8894 32.6999C62.682 32.2085 62.7778 31.6491 63.141 31.2522C63.3603 31.0131 63.9712 30.6585 64.2466 30.9986C64.4018 31.1908 63.9461 31.4107 63.8483 31.4986ZM63.9619 30.249C62.752 30.249 61.7706 31.2298 61.7706 32.4397C61.7706 33.6502 62.752 34.631 63.9619 34.631C65.1718 34.631 66.1532 33.6502 66.1532 32.4397C66.1532 31.2298 65.1718 30.249 63.9619 30.249Z" fill="#EBE6D7"/>
<path d="M55.8451 33.9037C55.6503 34.1659 55.357 34.3118 55.1807 34.5998C54.9964 34.9023 54.9066 35.2681 54.836 35.6122C54.7871 35.852 54.3809 35.8625 54.3406 35.6122C54.2601 35.109 54.3195 34.6401 54.6266 34.2187C54.8703 33.8839 55.3016 33.5623 55.7335 33.629C55.8457 33.6461 55.9131 33.8132 55.8451 33.9037ZM56.0023 32.9883C54.8293 32.6905 53.6373 33.3998 53.3394 34.5727C53.0416 35.7456 53.7509 36.9377 54.9238 37.2356C56.0967 37.5334 57.2888 36.8241 57.5873 35.6512C57.8845 34.4783 57.1752 33.2862 56.0023 32.9883Z" fill="#EBE6D7"/>
<path d="M47.9669 38.1435C47.747 38.3793 47.4643 38.4955 47.29 38.7861C47.1242 39.0615 47.0548 39.4267 47.072 39.7437C47.0885 40.0376 46.6824 40.0495 46.5925 39.8085C46.4129 39.3217 46.4823 38.8535 46.7695 38.4216C46.9967 38.0795 47.4471 37.7169 47.883 37.8259C48.0263 37.8615 48.0613 38.0418 47.9669 38.1435ZM47.7694 37.3035C46.5595 37.3035 45.5781 38.2842 45.5781 39.4948C45.5781 40.7047 46.5595 41.6861 47.7694 41.6861C48.9793 41.6861 49.9607 40.7047 49.9607 39.4948C49.9607 38.2842 48.9793 37.3035 47.7694 37.3035Z" fill="#EBE6D7"/>
<path d="M41.5291 43.6379C41.2821 43.807 41.0206 43.8783 40.8159 44.1134C40.6151 44.3432 40.5174 44.6424 40.4474 44.935C40.3826 45.2038 39.9256 45.2276 39.8787 44.935C39.7988 44.4344 39.9362 43.9655 40.3113 43.6095C40.6144 43.3229 41.1388 43.1162 41.5291 43.3368C41.6493 43.4048 41.6335 43.5659 41.5291 43.6379ZM41.2108 42.4775C40.0003 42.4775 39.0195 43.4583 39.0195 44.6688C39.0195 45.8787 40.0003 46.8595 41.2108 46.8595C42.4207 46.8595 43.4015 45.8787 43.4015 44.6688C43.4015 43.4583 42.4207 42.4775 41.2108 42.4775Z" fill="#EBE6D7"/>
<path d="M35.8758 49.5663C35.4656 49.8463 35.1427 50.0517 35.0866 50.6078C35.0628 50.8383 34.7161 50.9228 34.6566 50.6659C34.5516 50.2161 34.6606 49.8212 35.0119 49.5115C35.2312 49.3173 35.5825 49.1165 35.8758 49.2532C36.0085 49.3153 35.9775 49.4963 35.8758 49.5663ZM36.0065 48.6245C34.7966 48.6245 33.8152 49.6052 33.8152 50.8158C33.8152 52.0257 34.7966 53.0071 36.0065 53.0071C37.2164 53.0071 38.1978 52.0257 38.1978 50.8158C38.1978 49.6052 37.2164 48.6245 36.0065 48.6245Z" fill="#EBE6D7"/>
<path d="M31.4994 57.191C31.3178 57.3627 31.1038 57.4783 30.9618 57.6896C30.8205 57.8996 30.7287 58.177 30.6811 58.422C30.6336 58.6677 30.3073 58.5739 30.2829 58.3685C30.2056 57.718 30.6527 56.9143 31.3984 56.9473C31.5172 56.9526 31.5932 57.1025 31.4994 57.191ZM31.6242 56.2935C30.4143 56.2935 29.4336 57.2749 29.4336 58.4848C29.4336 59.6947 30.4143 60.6761 31.6242 60.6761C32.8348 60.6761 33.8155 59.6947 33.8155 58.4848C33.8155 57.2749 32.8348 56.2935 31.6242 56.2935Z" fill="#EBE6D7"/>
<path d="M28.9318 66.4174C28.7713 66.6591 28.5058 66.7972 28.3506 67.0501C28.1868 67.3163 28.1643 67.6372 28.1069 67.9377C28.0501 68.2362 27.6578 68.1669 27.5693 67.9377C27.4055 67.5183 27.4967 67.0633 27.7476 66.6974C27.9557 66.3936 28.3598 66.0575 28.7508 66.1024C28.8954 66.1189 29.0282 66.2715 28.9318 66.4174ZM28.8618 65.5635C27.6519 65.5635 26.6711 66.5449 26.6711 67.7548C26.6711 68.9647 27.6519 69.9461 28.8618 69.9461C30.0723 69.9461 31.0531 68.9647 31.0531 67.7548C31.0531 66.5449 30.0723 65.5635 28.8618 65.5635Z" fill="#EBE6D7"/>
<path d="M28.1373 75.5499C27.8996 75.6648 27.6512 75.7183 27.4756 75.9303C27.2986 76.1436 27.2484 76.4355 27.1757 76.697C27.1097 76.9368 26.7313 76.9533 26.6745 76.697C26.4995 75.9131 27.1401 74.7567 28.0818 75.1272C28.2489 75.1926 28.3355 75.4534 28.1373 75.5499ZM28.0099 74.3723C26.8 74.3723 25.8186 75.3537 25.8186 76.5636C25.8186 77.7735 26.8 78.7549 28.0099 78.7549C29.2204 78.7549 30.2012 77.7735 30.2012 76.5636C30.2012 75.3537 29.2204 74.3723 28.0099 74.3723Z" fill="#EBE6D7"/>
<path d="M28.132 44.1517C27.4723 46.5939 25.9949 48.7264 25.4824 51.2116C25.4606 51.3173 25.2915 51.2922 25.2955 51.1865C25.3833 49.0745 26.3178 47.2154 27.002 45.25C27.8619 42.7793 28.1426 37.3096 28.21 37.6015C28.7191 39.7988 28.7218 41.9683 28.132 44.1517ZM22.8684 86.7308C22.9932 86.777 18.1391 85.756 15.109 82.1666C10.9252 77.2101 9.98544 73.5599 10.1334 73.8313C12.9019 78.9008 17.2594 84.6828 22.8684 86.7308ZM18.75 49.9694C18.7421 54.982 16.8777 59.5779 16.1492 64.4777C15.399 69.524 17.2475 74.3233 20.1224 78.4028C20.1891 78.4972 20.0372 78.6122 19.9632 78.5256C17.1002 75.1991 15.2755 70.7881 15.117 66.3804C14.9155 60.7905 18.7506 49.5738 18.75 49.9694ZM19.7228 59.5456C18.0189 69.946 19.9123 73.3188 19.8707 73.262C15.7741 67.7547 19.7869 59.1533 19.7228 59.5456ZM56.1996 22.2921C54.9388 17.7444 49.7148 17.4505 46.6214 20.3736C44.8237 22.0735 43.6435 24.1737 42.8173 26.4423C41.7917 23.8303 39.2186 22.1039 36.0684 23.2782C34.2179 23.9677 32.4651 25.6313 31.9863 27.5875C31.701 28.7333 31.8991 30.0324 32.5906 30.9464C32.973 31.5864 33.6658 32.0189 34.4649 32.0189C35.6754 32.0189 36.6562 31.0375 36.6562 29.8276C36.6562 28.6177 35.6754 27.637 34.4649 27.637C34.1849 27.637 33.9194 27.6944 33.673 27.7902C33.9801 26.6576 34.8658 25.6504 36.1496 24.9979C38.9089 23.5859 41.5057 25.5586 41.7005 28.4553C42.0004 32.9838 38.016 37.7798 34.9727 40.6851C32.936 42.6248 30.8338 44.7513 28.9754 47.0721C30.324 45.1106 31.1231 42.527 30.7784 40.1435C30.6113 38.9891 30.1595 37.8386 29.301 37.0263C28.9298 36.6756 28.5197 36.3857 28.1499 36.0211C27.8659 35.7411 26.798 35.1144 26.6725 34.8158C28.488 39.1364 26.3033 44.614 24.8451 48.776C24.147 50.7566 23.3274 52.6877 22.3942 54.5627C22.2641 54.8143 22.1182 55.0652 21.9557 55.3254C22.3955 52.1448 22.0858 48.8599 21.1024 45.806C20.6065 44.2653 19.9361 42.7793 19.0894 41.3997C18.7163 40.7914 18.3716 40.1831 18.011 39.5723C17.7356 39.1073 16.8539 38.4178 16.7205 37.9661C16.877 38.4958 16.9939 39.0327 17.0956 39.5756C18.1325 45.1225 15.7351 51.0683 14.232 56.3194C12.6972 61.6834 11.2786 67.6094 13.5485 72.9846C13.0769 72.9846 11.8095 71.5046 11.4569 71.1632C10.77 70.4988 10.1248 69.7835 9.62023 68.9673C8.48297 67.1266 8.3456 65.5344 8.16266 63.4018C6.54329 66.0118 6.77774 69.95 7.39987 72.8288C8.06096 75.8859 9.47163 78.7799 11.4873 81.1726C13.3939 83.4366 15.8613 85.0355 18.3524 86.5855C19.3992 87.2347 20.3733 87.9328 21.3389 88.6553C19.8456 88.2247 18.2712 88.0708 16.6241 88.3224C11.6009 89.1011 8.3139 93.8568 8.58137 98.8074C8.85743 103.806 12.3795 108.327 17.8247 106.98C22.5646 105.811 24.0486 98.3114 19.1185 97.1246C19.0663 97.1121 19.0115 97.1154 18.9567 97.1273C18.8365 97.1068 18.7156 97.0903 18.5902 97.0903C17.3803 97.0903 16.3995 98.071 16.3995 99.2816C16.3995 100.491 17.3803 101.472 18.5902 101.472C19.5108 101.472 20.2954 100.904 20.6197 100.101C21.2081 101.978 20.2954 104.225 18.2144 105.137C15.0417 106.533 11.8604 104.731 10.7727 101.647C8.85743 96.2185 12.0387 89.8639 18.182 89.815C22.9807 89.7774 27.2986 93.7043 30.536 96.8651C33.9854 100.233 37.2446 103.681 41.085 106.599C41.402 106.84 41.6761 106.995 42.0506 106.879C37.2083 100.713 33.5112 96.9245 31.9183 94.8455C28.8849 90.8875 26.9089 86.96 25.2275 82.2689C22.7258 75.2915 21.9828 67.5401 23.902 60.3255C24.7348 57.1951 26.0669 54.1849 27.961 51.4058C29.7468 48.7846 31.4996 46.2036 33.78 44.0123C37.2466 40.6719 41.2131 36.9523 42.7215 32.2078C42.9382 31.5236 43.0967 30.8414 43.2023 30.1387C44.1606 26.5552 45.9596 22.4923 48.7024 20.7699C51.1625 19.2278 54.2837 20.1735 54.7592 23.2366C54.9837 24.6585 54.6878 25.9668 53.9515 26.8795C53.8848 26.6239 53.7751 26.3756 53.6107 26.1484C52.9007 25.1683 51.5303 24.9497 50.5509 25.6597C49.5709 26.3696 49.3522 27.7394 50.0622 28.7194C50.5311 29.3673 51.288 29.6737 52.0309 29.6084C53.1761 29.6321 54.3444 29.0298 55.1052 28.1264C56.4083 26.5909 56.7266 24.1955 56.1996 22.2921Z" fill="#EBE6D7"/>
<path d="M117.927 37.6015C117.995 37.3096 118.275 42.7793 119.135 45.2499C119.819 47.2154 120.754 49.0745 120.842 51.1865C120.846 51.2922 120.677 51.3173 120.655 51.2116C120.142 48.7264 118.665 46.5939 118.005 44.1517C117.415 41.9683 117.419 39.7988 117.927 37.6015ZM136.004 73.8313C136.152 73.5599 135.212 77.2101 131.028 82.1666C127.999 85.756 123.144 86.777 123.269 86.7308C128.878 84.6828 133.235 78.9008 136.004 73.8313ZM131.02 66.3804C130.862 70.7881 129.037 75.1991 126.174 78.5256C126.1 78.6121 125.948 78.4972 126.015 78.4028C128.89 74.3233 130.738 69.524 129.988 64.4777C129.26 59.5779 127.395 54.982 127.387 49.9694C127.387 49.5738 131.222 60.7905 131.02 66.3804ZM126.267 73.262C126.225 73.3188 128.118 69.946 126.414 59.5456C126.35 59.1533 130.363 67.7547 126.267 73.262ZM91.032 28.1264C91.7928 29.0298 92.9611 29.6321 94.1063 29.6084C94.8493 29.6737 95.6061 29.3673 96.075 28.7194C96.785 27.7394 96.5664 26.3696 95.5863 25.6597C94.6069 24.9497 93.2365 25.1683 92.5266 26.1484C92.3621 26.3756 92.2531 26.6239 92.1858 26.8795C91.4494 25.9668 91.1535 24.6585 91.3781 23.2366C91.8542 20.1735 94.9748 19.2278 97.4349 20.7699C100.178 22.4922 101.977 26.5552 102.936 30.1387C103.041 30.8414 103.198 31.5236 103.408 32.184C104.924 36.9523 108.89 40.6719 112.357 44.0123C114.638 46.2036 116.391 48.7846 118.176 51.4058C120.07 54.1849 121.402 57.1951 122.235 60.3255C124.154 67.5401 123.411 75.2915 120.91 82.2689C119.228 86.96 117.252 90.8875 114.219 94.8455C112.626 96.9245 108.929 100.713 104.087 106.879C104.461 106.995 104.735 106.84 105.052 106.599C108.893 103.681 112.152 100.233 115.601 96.8651C118.839 93.7043 123.156 89.7773 127.955 89.815C134.099 89.8639 137.28 96.2185 135.365 101.647C134.277 104.731 131.096 106.533 127.923 105.137C125.842 104.225 124.929 101.978 125.518 100.101C125.843 100.904 126.627 101.472 127.547 101.472C128.757 101.472 129.738 100.491 129.738 99.2816C129.738 98.071 128.757 97.0903 127.547 97.0903C127.422 97.0903 127.301 97.1068 127.181 97.1273C127.126 97.1154 127.071 97.1121 127.019 97.1246C122.089 98.3114 123.573 105.811 128.312 106.98C133.758 108.327 137.28 103.806 137.555 98.8074C137.823 93.8568 134.537 89.1011 129.513 88.3224C127.866 88.0708 126.292 88.2247 124.798 88.6553C125.764 87.9328 126.738 87.2347 127.785 86.5855C130.276 85.0355 132.743 83.4366 134.651 81.1726C136.666 78.7799 138.076 75.8859 138.737 72.8288C139.359 69.95 139.594 66.0118 137.975 63.4018C137.792 65.5344 137.654 67.1266 136.517 68.9673C136.012 69.7835 135.367 70.4988 134.68 71.1632C134.328 71.5046 133.06 72.9846 132.589 72.9846C134.859 67.6094 133.44 61.6834 131.905 56.3194C130.402 51.0683 128.005 45.1225 129.042 39.5756C129.143 39.0327 129.26 38.4958 129.417 37.9661C129.283 38.4178 128.402 39.1073 128.126 39.5723C127.766 40.1831 127.421 40.7914 127.048 41.3997C126.201 42.7793 125.531 44.2653 125.035 45.806C124.051 48.8599 123.742 52.1448 124.182 55.3254C124.019 55.0652 123.873 54.8143 123.743 54.5627C122.81 52.6877 121.99 50.7566 121.292 48.776C119.835 44.614 117.649 39.1364 119.465 34.8158C119.339 35.1144 118.271 35.7411 117.987 36.0211C117.618 36.3857 117.207 36.6756 116.836 37.0263C115.978 37.8386 115.526 38.9891 115.359 40.1435C115.014 42.527 115.813 45.1106 117.162 47.0721C115.303 44.7513 113.201 42.6248 111.165 40.6851C108.121 37.7798 104.137 32.9838 104.437 28.4553C104.632 25.5586 107.228 23.5859 109.988 24.9979C111.271 25.6504 112.157 26.6576 112.464 27.7902C112.218 27.6944 111.952 27.637 111.672 27.637C110.462 27.637 109.481 28.6177 109.481 29.8276C109.481 31.0375 110.462 32.0189 111.672 32.0189C112.472 32.0189 113.164 31.5864 113.547 30.9464C114.238 30.0324 114.436 28.7333 114.151 27.5875C113.672 25.6313 111.919 23.9677 110.069 23.2782C106.919 22.1039 104.346 23.8303 103.32 26.4423C102.494 24.1737 101.314 22.0735 99.5159 20.3736C96.4224 17.4505 91.1984 17.7444 89.9377 22.2921C89.4107 24.1955 89.729 26.5909 91.032 28.1264Z" fill="#EBE6D7"/>
<path d="M28.8004 39.1359C28.7753 38.9378 28.5917 38.8506 28.4438 38.8843C28.6591 40.4092 28.6228 41.9249 28.2998 43.4452C28.3579 43.4214 28.4127 43.3824 28.4557 43.3164C29.1828 42.2003 28.9622 40.3841 28.8004 39.1359Z" fill="#EBE6D7"/>
<path d="M32.2656 37.9179C32.2656 37.377 32.7042 36.9385 33.245 36.9385C33.7859 36.9385 34.2245 37.377 34.2245 37.9179C34.2245 38.4588 33.7859 38.8973 33.245 38.8973C32.7042 38.8973 32.2656 38.4588 32.2656 37.9179Z" fill="#EBE6D7"/>
<path d="M15.34 93.4709C15.34 92.9307 15.7779 92.4922 16.3188 92.4922C16.8597 92.4922 17.2982 92.9307 17.2982 93.4709C17.2982 94.0118 16.8597 94.4504 16.3188 94.4504C15.7779 94.4504 15.34 94.0118 15.34 93.4709Z" fill="#EBE6D7"/>
<path d="M12.2353 97.1457C12.2353 96.6048 12.6738 96.1663 13.2147 96.1663C13.7556 96.1663 14.1942 96.6048 14.1942 97.1457C14.1942 97.6866 13.7556 98.1244 13.2147 98.1244C12.6738 98.1244 12.2353 97.6866 12.2353 97.1457Z" fill="#EBE6D7"/>
<path d="M13.5596 102.366C13.5596 101.825 13.9981 101.386 14.539 101.386C15.0799 101.386 15.5184 101.825 15.5184 102.366C15.5184 102.907 15.0799 103.345 14.539 103.345C13.9981 103.345 13.5596 102.907 13.5596 102.366Z" fill="#EBE6D7"/>
<path d="M20.6346 93.4709C20.6346 92.9307 21.0731 92.4922 21.614 92.4922C22.1549 92.4922 22.5934 92.9307 22.5934 93.4709C22.5934 94.0118 22.1549 94.4504 21.614 94.4504C21.0731 94.4504 20.6346 94.0118 20.6346 93.4709Z" fill="#EBE6D7"/>
<path d="M24.8396 97.1457C24.8396 96.6048 25.2775 96.1663 25.8184 96.1663C26.3593 96.1663 26.7978 96.6048 26.7978 97.1457C26.7978 97.6866 26.3593 98.1244 25.8184 98.1244C25.2775 98.1244 24.8396 97.6866 24.8396 97.1457Z" fill="#EBE6D7"/>
<path d="M27.9863 100.785C27.9863 100.244 28.4249 99.8052 28.9657 99.8052C29.506 99.8052 29.9452 100.244 29.9452 100.785C29.9452 101.325 29.506 101.764 28.9657 101.764C28.4249 101.764 27.9863 101.325 27.9863 100.785Z" fill="#EBE6D7"/>
<path d="M32.2656 104.324C32.2656 103.784 32.7042 103.345 33.245 103.345C33.7859 103.345 34.2245 103.784 34.2245 104.324C34.2245 104.865 33.7859 105.303 33.245 105.303C32.7042 105.303 32.2656 104.865 32.2656 104.324Z" fill="#EBE6D7"/>
<path d="M35.3086 34.6311C35.3086 34.0902 35.7471 33.6523 36.288 33.6523C36.8289 33.6523 37.2674 34.0902 37.2674 34.6311C37.2674 35.172 36.8289 35.6105 36.288 35.6105C35.7471 35.6105 35.3086 35.172 35.3086 34.6311Z" fill="#EBE6D7"/>
<path d="M14.539 85.8794C14.5998 86.0617 10.8234 89.8968 6.92955 89.1664C3.03501 88.4359 4.19208 83.5666 0.905128 82.8362C0.905128 82.8362 4.25284 81.193 7.72273 84.5401C10.6649 87.3792 14.539 85.8794 14.539 85.8794Z" fill="#EBE6D7"/>
<path d="M72.9691 134.92C68.5792 126.895 72.9691 126.781 72.9691 126.781C72.9691 126.781 77.3596 126.895 72.9691 134.92ZM79.7701 129.946C79.0397 128.525 78.4473 126.984 77.3114 125.864C76.1748 124.744 74.2681 124.022 72.9691 124.946C71.6706 124.022 69.764 124.744 68.6274 125.864C67.4915 126.984 66.8991 128.525 66.1686 129.946C65.4382 131.366 64.4403 132.794 62.9305 133.305C64.9917 134.06 67.4267 133.679 69.163 132.332C69.869 134.644 71.2083 136.341 72.9691 137.996C74.7304 136.341 76.0691 134.644 76.7758 132.332C78.512 133.679 80.947 134.06 83.0082 133.305C81.4985 132.794 80.5006 131.366 79.7701 129.946Z" fill="#EBE6D7"/>
<path d="M41.4096 115.612C29.374 112.475 22.5207 119.496 22.6991 119.216C25.8546 114.262 33.6021 113.267 38.9119 113.874C47.1131 114.811 54.4947 119.167 62.8643 119.068C63.4085 119.062 62.0751 120.999 41.4096 115.612ZM47.862 120.851C41.1356 120.36 37.245 123.912 37.3275 123.803C42.3693 117.179 49.2615 120.268 57.7519 121.172C58.2215 121.222 55.591 121.415 47.862 120.851ZM28.7869 111.124C33.1332 109.113 38.4542 110.052 42.8712 111.353C43.309 111.482 37.9153 111.154 35.4849 111.038C33.2501 110.932 28.5868 111.217 28.7869 111.124ZM75.5729 107.255C74.0216 105.196 71.6474 103.933 69.0737 103.789C67.2264 103.686 64.0511 104.291 63.3068 106.809C63.248 107.007 63.2203 107.387 63.2394 107.758C63.2381 107.79 63.2302 107.82 63.2302 107.852C63.2302 109.062 64.2109 110.043 65.4208 110.043C66.6307 110.043 67.6121 109.062 67.6121 107.852C67.6121 106.642 66.6307 105.661 65.4208 105.661C65.3198 105.661 65.2234 105.677 65.1263 105.691C67.0402 104.028 70.8476 104.664 72.4927 106.393C73.4569 107.406 73.9159 109.213 73.8122 110.583C73.6881 112.237 72.7701 113.693 71.5807 114.802C68.6266 117.562 65.1613 117.959 61.3143 117.221C55.0574 116.004 49.6525 112.457 43.9232 109.868C41.586 108.814 39.1431 107.775 36.5707 107.483C33.925 107.182 31.142 107.637 28.561 108.237C26.1491 108.798 23.7769 109.654 21.6628 110.958C19.8916 112.05 17.055 114.053 16.672 116.269C19.7912 114.678 23.5127 113.188 27.0757 113.188C25.7542 113.2 23.6322 114.955 22.6112 115.711C21.19 116.763 19.9021 117.993 18.7781 119.359C16.5868 122.021 14.4239 125.522 14.4879 129.086C14.4787 128.582 19.955 122.916 31.4867 120.015C32.6227 119.729 33.8035 119.663 34.9731 119.593C35.7603 119.547 37.7456 119.938 38.3889 119.591C36.2788 120.784 34.5339 122.545 33.4706 124.76C32.379 127.04 31.5679 130.895 33.2038 133.12C34.2044 131.26 35.0326 129.244 36.6466 127.821C38.0084 126.621 39.6985 125.866 41.4341 125.381C44.9786 124.391 48.7014 124.468 52.347 124.468C59.0015 124.517 66.6056 125.141 72.3355 121.068C76.6039 118.025 79.0224 111.832 75.5729 107.255Z" fill="#EBE6D7"/>
<path d="M65.5444 126.524C65.5444 126.524 60.675 125.563 55.2793 129.603C51.3016 132.582 47.1699 131.451 47.1699 131.451C47.1699 131.451 53.8581 136.519 58.8721 131.991C63.6582 127.668 65.5444 126.524 65.5444 126.524Z" fill="#EBE6D7"/>
<path d="M81.8305 30.9986C82.1059 30.6585 82.7168 31.0131 82.936 31.2522C83.2993 31.6491 83.395 32.2085 83.1877 32.6999C83.0661 32.9885 82.625 32.9759 82.6151 32.6226C82.6025 32.2012 82.5622 31.7951 82.2287 31.4986C82.131 31.4107 81.6753 31.1908 81.8305 30.9986ZM79.9238 32.4397C79.9238 33.6502 80.9052 34.631 82.1151 34.631C83.325 34.631 84.3064 33.6502 84.3064 32.4397C84.3064 31.2298 83.325 30.249 82.1151 30.249C80.9052 30.249 79.9238 31.2298 79.9238 32.4397Z" fill="#EBE6D7"/>
<path d="M90.343 33.629C90.7749 33.5623 91.2062 33.8839 91.4499 34.2187C91.7569 34.6401 91.8164 35.109 91.7358 35.6122C91.6955 35.8625 91.2894 35.852 91.2405 35.6122C91.1698 35.2681 91.08 34.9023 90.8958 34.5998C90.7194 34.3118 90.4262 34.1659 90.2314 33.9037C90.1633 33.8132 90.2307 33.6461 90.343 33.629ZM88.4898 35.6512C88.7877 36.8241 89.9797 37.5334 91.1527 37.2356C92.3256 36.9377 93.0349 35.7456 92.737 34.5727C92.4392 33.3998 91.2471 32.6905 90.0742 32.9883C88.9013 33.2862 88.192 34.4783 88.4898 35.6512Z" fill="#EBE6D7"/>
<path d="M98.1941 37.8259C98.63 37.7169 99.0804 38.0795 99.3076 38.4216C99.5949 38.8535 99.6642 39.3217 99.4846 39.8085C99.3954 40.0495 98.9886 40.0376 99.0051 39.7437C99.0223 39.4267 98.9529 39.0615 98.7872 38.7861C98.6128 38.4955 98.3302 38.3793 98.1102 38.1435C98.0158 38.0418 98.0508 37.8615 98.1941 37.8259ZM96.1164 39.4948C96.1164 40.7047 97.0978 41.6861 98.3077 41.6861C99.5183 41.6861 100.499 40.7047 100.499 39.4948C100.499 38.2842 99.5183 37.3035 98.3077 37.3035C97.0978 37.3035 96.1164 38.2842 96.1164 39.4948Z" fill="#EBE6D7"/>
<path d="M104.547 43.3365C104.937 43.1159 105.462 43.3226 105.765 43.6093C106.14 43.9652 106.277 44.4341 106.197 44.9347C106.151 45.2273 105.693 45.2035 105.629 44.9347C105.559 44.6422 105.461 44.343 105.26 44.1132C105.056 43.8781 104.794 43.8067 104.547 43.6377C104.443 43.5657 104.427 43.4045 104.547 43.3365ZM102.675 44.6686C102.675 45.8785 103.655 46.8592 104.865 46.8592C106.076 46.8592 107.057 45.8785 107.057 44.6686C107.057 43.458 106.076 42.4773 104.865 42.4773C103.655 42.4773 102.675 43.458 102.675 44.6686Z" fill="#EBE6D7"/>
<path d="M110.2 49.2532C110.493 49.1165 110.845 49.3173 111.064 49.5115C111.415 49.8212 111.524 50.2161 111.419 50.6659C111.36 50.9228 111.013 50.8383 110.989 50.6078C110.932 50.0517 110.611 49.8463 110.2 49.5663C110.098 49.4963 110.067 49.3153 110.2 49.2532ZM107.878 50.8158C107.878 52.0257 108.859 53.0071 110.069 53.0071C111.28 53.0071 112.261 52.0257 112.261 50.8158C112.261 49.6052 111.28 48.6245 110.069 48.6245C108.859 48.6245 107.878 49.6052 107.878 50.8158Z" fill="#EBE6D7"/>
<path d="M114.678 56.9473C115.424 56.9143 115.871 57.718 115.794 58.3685C115.769 58.5739 115.443 58.6677 115.395 58.422C115.348 58.177 115.256 57.8996 115.115 57.6896C114.973 57.4783 114.759 57.3627 114.577 57.191C114.483 57.1025 114.559 56.9526 114.678 56.9473ZM112.261 58.4848C112.261 59.6947 113.242 60.6761 114.452 60.6761C115.662 60.6761 116.643 59.6947 116.643 58.4848C116.643 57.2749 115.662 56.2935 114.452 56.2935C113.242 56.2935 112.261 57.2749 112.261 58.4848Z" fill="#EBE6D7"/>
<path d="M117.326 66.1024C117.717 66.0575 118.121 66.3936 118.329 66.6974C118.58 67.0633 118.671 67.5183 118.508 67.9377C118.419 68.1669 118.026 68.2362 117.97 67.9377C117.912 67.6372 117.889 67.3163 117.726 67.0501C117.571 66.7972 117.305 66.6591 117.145 66.4174C117.048 66.2715 117.181 66.1189 117.326 66.1024ZM115.024 67.7548C115.024 68.9647 116.004 69.9461 117.215 69.9461C118.425 69.9461 119.405 68.9647 119.405 67.7548C119.405 66.5449 118.425 65.5635 117.215 65.5635C116.004 65.5635 115.024 66.5449 115.024 67.7548Z" fill="#EBE6D7"/>
<path d="M117.995 75.1269C118.937 74.7564 119.578 75.9128 119.403 76.6968C119.346 76.953 118.967 76.9365 118.901 76.6968C118.829 76.4352 118.779 76.1433 118.602 75.93C118.426 75.718 118.178 75.6645 117.94 75.5496C117.742 75.4532 117.828 75.1923 117.995 75.1269ZM115.876 76.5634C115.876 77.7733 116.857 78.7547 118.067 78.7547C119.277 78.7547 120.259 77.7733 120.259 76.5634C120.259 75.3535 119.277 74.3721 118.067 74.3721C116.857 74.3721 115.876 75.3535 115.876 76.5634Z" fill="#EBE6D7"/>
<path d="M113.811 37.9179C113.811 37.377 113.373 36.9385 112.832 36.9385C112.291 36.9385 111.853 37.377 111.853 37.9179C111.853 38.4588 112.291 38.8973 112.832 38.8973C113.373 38.8973 113.811 38.4588 113.811 37.9179Z" fill="#EBE6D7"/>
<path d="M130.736 93.4709C130.736 92.9307 130.297 92.4922 129.757 92.4922C129.216 92.4922 128.777 92.9307 128.777 93.4709C128.777 94.0118 129.216 94.4504 129.757 94.4504C130.297 94.4504 130.736 94.0118 130.736 93.4709Z" fill="#EBE6D7"/>
<path d="M133.842 97.1454C133.842 96.6045 133.403 96.166 132.862 96.166C132.321 96.166 131.883 96.6045 131.883 97.1454C131.883 97.6863 132.321 98.1242 132.862 98.1242C133.403 98.1242 133.842 97.6863 133.842 97.1454Z" fill="#EBE6D7"/>
<path d="M132.515 102.366C132.515 101.825 132.077 101.386 131.536 101.386C130.995 101.386 130.557 101.825 130.557 102.366C130.557 102.907 130.995 103.345 131.536 103.345C132.077 103.345 132.515 102.907 132.515 102.366Z" fill="#EBE6D7"/>
<path d="M125.442 93.4709C125.442 92.9307 125.004 92.4922 124.463 92.4922C123.922 92.4922 123.483 92.9307 123.483 93.4709C123.483 94.0118 123.922 94.4504 124.463 94.4504C125.004 94.4504 125.442 94.0118 125.442 93.4709Z" fill="#EBE6D7"/>
<path d="M121.236 97.1454C121.236 96.6045 120.798 96.166 120.258 96.166C119.717 96.166 119.278 96.6045 119.278 97.1454C119.278 97.6863 119.717 98.1242 120.258 98.1242C120.798 98.1242 121.236 97.6863 121.236 97.1454Z" fill="#EBE6D7"/>
<path d="M118.091 100.785C118.091 100.244 117.653 99.8052 117.112 99.8052C116.571 99.8052 116.133 100.244 116.133 100.785C116.133 101.325 116.571 101.764 117.112 101.764C117.653 101.764 118.091 101.325 118.091 100.785Z" fill="#EBE6D7"/>
<path d="M113.811 104.324C113.811 103.784 113.373 103.345 112.832 103.345C112.291 103.345 111.853 103.784 111.853 104.324C111.853 104.865 112.291 105.303 112.832 105.303C113.373 105.303 113.811 104.865 113.811 104.324Z" fill="#EBE6D7"/>
<path d="M110.768 34.6311C110.768 34.0902 110.33 33.6523 109.789 33.6523C109.248 33.6523 108.81 34.0902 108.81 34.6311C108.81 35.172 109.248 35.6105 109.789 35.6105C110.33 35.6105 110.768 35.172 110.768 34.6311Z" fill="#EBE6D7"/>
<path d="M131.538 85.8794C131.477 86.0617 135.253 89.8968 139.147 89.1664C143.042 88.4359 141.885 83.5666 145.172 82.8362C145.172 82.8362 141.824 81.193 138.355 84.5401C135.412 87.3792 131.538 85.8794 131.538 85.8794Z" fill="#EBE6D7"/>
<path d="M82.8739 119.068C91.2442 119.167 98.6251 114.811 106.827 113.874C112.136 113.267 119.884 114.262 123.04 119.216C123.218 119.496 116.364 112.475 104.329 115.612C83.6638 120.999 82.3304 119.062 82.8739 119.068ZM87.9869 121.172C96.4774 120.268 103.37 117.179 108.411 123.803C108.494 123.912 104.603 120.36 97.8769 120.851C90.1479 121.415 87.5174 121.222 87.9869 121.172ZM110.254 111.038C107.824 111.154 102.43 111.482 102.868 111.353C107.285 110.052 112.605 109.113 116.952 111.124C117.152 111.217 112.488 110.932 110.254 111.038ZM73.4034 121.068C79.1326 125.141 86.7367 124.517 93.3912 124.468C97.0368 124.468 100.76 124.391 104.305 125.381C106.04 125.866 107.73 126.621 109.092 127.821C110.706 129.244 111.534 131.26 112.534 133.12C114.171 130.895 113.36 127.04 112.268 124.76C111.205 122.545 109.46 120.784 107.35 119.591C107.993 119.938 109.978 119.547 110.766 119.593C111.935 119.663 113.116 119.729 114.252 120.015C125.784 122.916 131.26 128.582 131.251 129.086C131.315 125.522 129.152 122.021 126.96 119.359C125.837 117.993 124.548 116.763 123.127 115.711C122.106 114.955 119.985 113.2 118.663 113.188C122.226 113.188 125.948 114.678 129.066 116.269C128.683 114.053 125.847 112.05 124.075 110.958C121.961 109.654 119.589 108.798 117.177 108.237C114.597 107.637 111.813 107.182 109.168 107.483C106.595 107.775 104.152 108.814 101.815 109.868C96.0858 112.457 90.6808 116.004 84.4239 117.221C80.5776 117.959 77.1123 117.562 74.1582 114.802C72.9681 113.693 72.0508 112.237 71.926 110.583C71.823 109.213 72.282 107.406 73.2455 106.393C74.8906 104.664 78.6987 104.028 80.6126 105.691C80.5148 105.677 80.4184 105.661 80.3174 105.661C79.1075 105.661 78.1267 106.642 78.1267 107.852C78.1267 109.062 79.1075 110.043 80.3174 110.043C81.5279 110.043 82.5087 109.062 82.5087 107.852C82.5087 107.82 82.5008 107.79 82.4994 107.758C82.5186 107.387 82.4908 107.007 82.4321 106.809C81.6871 104.291 78.5124 103.686 76.6645 103.789C74.0915 103.933 71.7173 105.196 70.1653 107.255C66.7165 111.832 69.135 118.025 73.4034 121.068Z" fill="#EBE6D7"/>
<path d="M80.5322 126.524C80.5322 126.524 85.4016 125.563 90.7973 129.603C94.775 132.582 98.9067 131.451 98.9067 131.451C98.9067 131.451 92.2185 136.519 87.2045 131.991C82.4184 127.668 80.5322 126.524 80.5322 126.524Z" fill="#EBE6D7"/>
<path d="M72.872 36.5303C50.7986 36.5303 32.8389 54.4893 32.8389 76.5628C32.8389 96.616 47.6576 113.269 66.9236 116.15C66.9639 116.159 67.0048 116.171 67.049 116.171C67.2762 116.171 67.4598 115.988 67.4598 115.761C67.4598 115.546 67.2921 115.374 67.0814 115.356C48.2387 112.512 33.6505 96.194 33.6505 76.5628C33.6505 54.9357 51.2443 37.3413 72.872 37.3413C94.4912 37.3413 112.086 54.9357 112.086 76.5628C112.086 96.301 97.5985 112.652 78.6026 115.356C78.3457 115.35 78.1621 115.534 78.1621 115.761C78.1621 115.988 78.3457 116.171 78.5722 116.171C97.9842 113.421 112.897 96.7217 112.897 76.5628C112.897 54.4893 94.9455 36.5303 72.872 36.5303Z" fill="#EBE6D7"/>
<path d="M81.8268 22.3806C81.4543 22.3806 81.1485 22.0814 81.1485 21.7023C81.1485 21.3299 81.4543 21.0241 81.8268 21.0241C82.2059 21.0241 82.5051 21.3299 82.5051 21.7023C82.5051 22.0814 82.2059 22.3806 81.8268 22.3806ZM78.7618 22.3806C78.3893 22.3806 78.0835 22.0814 78.0835 21.7023C78.0835 21.3299 78.3893 21.0241 78.7618 21.0241C79.1409 21.0241 79.44 21.3299 79.44 21.7023C79.44 22.0814 79.1409 22.3806 78.7618 22.3806ZM75.6961 22.3806C75.3242 22.3806 75.0185 22.0814 75.0185 21.7023C75.0185 21.3299 75.3242 21.0241 75.6961 21.0241C76.0685 21.0241 76.375 21.3299 76.375 21.7023C76.375 22.0814 76.0685 22.3806 75.6961 22.3806ZM72.672 22.3733C72.3173 22.3489 72.0353 22.0689 72.0353 21.7023C72.0353 21.3424 72.3173 21.0564 72.672 21.0313C73.0273 21.0564 73.3093 21.3424 73.3093 21.7023C73.3093 22.0689 73.0273 22.3489 72.672 22.3733ZM69.6479 22.3806C69.276 22.3806 68.9696 22.0814 68.9696 21.7023C68.9696 21.3299 69.276 21.0241 69.6479 21.0241C70.0203 21.0241 70.3261 21.3299 70.3261 21.7023C70.3261 22.0814 70.0203 22.3806 69.6479 22.3806ZM66.5828 22.3806C66.2037 22.3806 65.9045 22.0814 65.9045 21.7023C65.9045 21.3299 66.2037 21.0241 66.5828 21.0241C66.9553 21.0241 67.2611 21.3299 67.2611 21.7023C67.2611 22.0814 66.9553 22.3806 66.5828 22.3806ZM63.5178 22.3806C63.1387 22.3806 62.8395 22.0814 62.8395 21.7023C62.8395 21.3299 63.1387 21.0241 63.5178 21.0241C63.8902 21.0241 64.196 21.3299 64.196 21.7023C64.196 22.0814 63.8902 22.3806 63.5178 22.3806ZM80.8494 12.4867C80.6367 13.1518 80.6829 13.8697 80.9359 14.5215C81.3612 15.6119 81.8202 17.6202 80.1381 18.77C77.744 20.4191 75.4174 18.2846 74.9782 15.8582C74.5264 13.3842 75.1248 11.5892 77.073 10.9908C79.014 10.3925 72.6336 0 72.6336 0C72.6336 0 66.3305 10.3925 68.2715 10.9908C70.2198 11.5892 70.8181 13.3842 70.3664 15.8582C69.9272 18.2846 67.5999 20.4191 65.2065 18.77C63.5244 17.6202 63.9834 15.6119 64.4087 14.5215C64.6616 13.8697 64.7079 13.1518 64.4952 12.4867C62.8659 7.41397 55.2598 7.48001 55.2598 7.48001C62.6665 17.7266 62.5866 23.5575 62.5866 23.5575H82.758C82.758 23.5575 82.6774 17.7266 90.0848 7.48001C90.0848 7.48001 82.4787 7.41397 80.8494 12.4867Z" fill="#EBE6D7"/>
<path d="M81.5941 24.9822H63.7487C63.1497 24.9822 62.6643 25.4676 62.6643 26.0666C62.6643 26.6656 63.1497 27.1517 63.7487 27.1517H81.5941C82.1931 27.1517 82.6785 26.6656 82.6785 26.0666C82.6785 25.4676 82.1931 24.9822 81.5941 24.9822Z" fill="#EBE6D7"/>
<path d="M73.0355 110.565C72.8891 110.565 72.7705 110.446 72.7705 110.3V44.0589C72.7705 43.9126 72.8891 43.7939 73.0355 43.7939C73.1818 43.7939 73.3004 43.9126 73.3004 44.0589V110.3C73.3004 110.446 73.1818 110.565 73.0355 110.565Z" fill="#EBE6D7" fill-opacity="0.13"/>
<path d="M78.7879 110.062C78.6617 110.062 78.5499 109.972 78.5272 109.843L67.0246 44.6084C66.9992 44.4642 67.0954 44.3268 67.2395 44.3014C67.3839 44.2761 67.521 44.3722 67.5465 44.5163L79.0491 109.751C79.0745 109.895 78.9783 110.033 78.8342 110.058C78.8186 110.061 78.8031 110.062 78.7879 110.062Z" fill="#EBE6D7" fill-opacity="0.13"/>
<path d="M78.7879 110.062C78.6617 110.062 78.5499 109.972 78.5272 109.843L67.0246 44.6084C66.9992 44.4642 67.0954 44.3268 67.2395 44.3014C67.3839 44.2761 67.521 44.3722 67.5465 44.5163L79.0491 109.751C79.0745 109.895 78.9783 110.033 78.8342 110.058C78.8186 110.061 78.8031 110.062 78.7879 110.062Z" fill="#EBE6D7" fill-opacity="0.13"/>
<path d="M84.3642 108.568C84.256 108.568 84.1544 108.501 84.1152 108.393L61.4594 46.1469C61.4094 46.0094 61.4803 45.8574 61.6178 45.8073C61.7554 45.7573 61.9073 45.8282 61.9574 45.9657L84.6132 108.212C84.6632 108.349 84.5923 108.501 84.4548 108.552C84.4249 108.562 84.3943 108.568 84.3642 108.568Z" fill="#EBE6D7" fill-opacity="0.13"/>
<path d="M84.3642 108.568C84.256 108.568 84.1544 108.501 84.1152 108.393L61.4594 46.1469C61.4094 46.0094 61.4803 45.8574 61.6178 45.8073C61.7554 45.7573 61.9073 45.8282 61.9574 45.9657L84.6132 108.212C84.6632 108.349 84.5923 108.501 84.4548 108.552C84.4249 108.562 84.3943 108.568 84.3642 108.568Z" fill="#EBE6D7" fill-opacity="0.13"/>
<path d="M89.597 106.128C89.5054 106.128 89.4163 106.08 89.3673 105.995L56.2467 48.6288C56.1735 48.502 56.217 48.34 56.3437 48.2668C56.4704 48.1935 56.6325 48.237 56.7056 48.3638L89.8262 105.73C89.8994 105.857 89.8559 106.019 89.7292 106.092C89.6875 106.116 89.6419 106.128 89.597 106.128Z" fill="#EBE6D7" fill-opacity="0.13"/>
<path d="M89.597 106.128C89.5054 106.128 89.4163 106.08 89.3673 105.995L56.2467 48.6288C56.1735 48.502 56.217 48.34 56.3437 48.2668C56.4704 48.1935 56.6325 48.237 56.7056 48.3638L89.8262 105.73C89.8994 105.857 89.8559 106.019 89.7292 106.092C89.6875 106.116 89.6419 106.128 89.597 106.128Z" fill="#EBE6D7" fill-opacity="0.13"/>
<path d="M94.3258 102.816C94.2501 102.816 94.175 102.784 94.1226 102.722L51.5437 51.978C51.4496 51.8659 51.4642 51.6988 51.5763 51.6047C51.6885 51.5107 51.8556 51.5253 51.9496 51.6374L94.5285 102.381C94.6226 102.493 94.608 102.66 94.4959 102.754C94.4463 102.796 94.3859 102.816 94.3258 102.816Z" fill="#EBE6D7" fill-opacity="0.13"/>
<path d="M94.3258 102.816C94.2501 102.816 94.175 102.784 94.1226 102.722L51.5437 51.978C51.4496 51.8659 51.4642 51.6988 51.5763 51.6047C51.6885 51.5107 51.8556 51.5253 51.9496 51.6374L94.5285 102.381C94.6226 102.493 94.608 102.66 94.4959 102.754C94.4463 102.796 94.3859 102.816 94.3258 102.816Z" fill="#EBE6D7" fill-opacity="0.13"/>
<path d="M98.4078 98.7341C98.3477 98.7341 98.2873 98.7138 98.2377 98.6721L47.4941 56.0932C47.382 55.9991 47.3673 55.832 47.4614 55.7199C47.5555 55.6078 47.7226 55.5932 47.8347 55.6872L98.5783 98.2661C98.6904 98.3602 98.705 98.5273 98.611 98.6395C98.5586 98.7019 98.4834 98.7341 98.4078 98.7341Z" fill="#EBE6D7" fill-opacity="0.13"/>
<path d="M98.4078 98.7341C98.3477 98.7341 98.2873 98.7138 98.2377 98.6721L47.4941 56.0932C47.382 55.9991 47.3673 55.832 47.4614 55.7199C47.5555 55.6078 47.7226 55.5932 47.8347 55.6872L98.5783 98.2661C98.6904 98.3602 98.705 98.5273 98.611 98.6395C98.5586 98.7019 98.4834 98.7341 98.4078 98.7341Z" fill="#EBE6D7" fill-opacity="0.13"/>
<path d="M101.72 94.0046C101.675 94.0046 101.63 93.9931 101.588 93.969L44.2214 60.8485C44.0947 60.7753 44.0512 60.6133 44.1244 60.4866C44.1976 60.3598 44.3596 60.3164 44.4863 60.3896L101.853 93.5101C101.98 93.5833 102.023 93.7453 101.95 93.872C101.901 93.9571 101.812 94.0046 101.72 94.0046Z" fill="#EBE6D7" fill-opacity="0.13"/>
<path d="M101.72 94.0046C101.675 94.0046 101.63 93.9931 101.588 93.969L44.2214 60.8485C44.0947 60.7753 44.0512 60.6133 44.1244 60.4866C44.1976 60.3598 44.3596 60.3164 44.4863 60.3896L101.853 93.5101C101.98 93.5833 102.023 93.7453 101.95 93.872C101.901 93.9571 101.812 94.0046 101.72 94.0046Z" fill="#EBE6D7" fill-opacity="0.13"/>
<path d="M104.16 88.7723C104.13 88.7723 104.099 88.7672 104.069 88.7563L41.8229 66.1005C41.6853 66.0504 41.6144 65.8984 41.6645 65.7609C41.7146 65.6234 41.8665 65.5524 42.0041 65.6025L104.25 88.2583C104.388 88.3083 104.459 88.4604 104.409 88.5979C104.369 88.7055 104.268 88.7723 104.16 88.7723Z" fill="#EBE6D7" fill-opacity="0.13"/>
<path d="M104.16 88.7723C104.13 88.7723 104.099 88.7672 104.069 88.7563L41.8229 66.1005C41.6853 66.0504 41.6144 65.8984 41.6645 65.7609C41.7146 65.6234 41.8665 65.5524 42.0041 65.6025L104.25 88.2583C104.388 88.3083 104.459 88.4604 104.409 88.5979C104.369 88.7055 104.268 88.7723 104.16 88.7723Z" fill="#EBE6D7" fill-opacity="0.13"/>
<path d="M105.654 83.1958C105.639 83.1958 105.623 83.1945 105.608 83.1917L40.3732 71.6891C40.2291 71.6637 40.1329 71.5262 40.1583 71.3821C40.1837 71.238 40.3209 71.1416 40.4652 71.1672L105.7 82.6698C105.844 82.6953 105.94 82.8327 105.915 82.9768C105.892 83.1053 105.78 83.1958 105.654 83.1958Z" fill="#EBE6D7" fill-opacity="0.13"/>
<path d="M105.654 83.1958C105.639 83.1958 105.623 83.1945 105.608 83.1917L40.3732 71.6891C40.2291 71.6637 40.1329 71.5262 40.1583 71.3821C40.1837 71.238 40.3209 71.1416 40.4652 71.1672L105.7 82.6698C105.844 82.6953 105.94 82.8327 105.915 82.9768C105.892 83.1053 105.78 83.1958 105.654 83.1958Z" fill="#EBE6D7" fill-opacity="0.13"/>
<path d="M106.157 77.4445H39.9155C39.7691 77.4445 39.6505 77.3258 39.6505 77.1795C39.6505 77.0332 39.7691 76.9146 39.9155 76.9146H106.157C106.303 76.9146 106.421 77.0332 106.421 77.1795C106.421 77.3258 106.303 77.4445 106.157 77.4445Z" fill="#EBE6D7" fill-opacity="0.13"/>
<path d="M106.157 77.4445H39.9155C39.7691 77.4445 39.6505 77.3258 39.6505 77.1795C39.6505 77.0332 39.7691 76.9146 39.9155 76.9146H106.157C106.303 76.9146 106.421 77.0332 106.421 77.1795C106.421 77.3258 106.303 77.4445 106.157 77.4445Z" fill="#EBE6D7" fill-opacity="0.13"/>
<path d="M40.4189 83.1958C40.2927 83.1958 40.1809 83.1053 40.1583 82.9768C40.1329 82.8327 40.2291 82.6952 40.3732 82.6698L105.608 71.1672C105.752 71.1417 105.889 71.2379 105.915 71.3821C105.94 71.5262 105.844 71.6636 105.7 71.689L40.4652 83.1917C40.4497 83.1944 40.4342 83.1958 40.4189 83.1958Z" fill="#EBE6D7" fill-opacity="0.13"/>
<path d="M40.4189 83.1958C40.2927 83.1958 40.1809 83.1053 40.1583 82.9768C40.1329 82.8327 40.2291 82.6952 40.3732 82.6698L105.608 71.1672C105.752 71.1417 105.889 71.2379 105.915 71.3821C105.94 71.5262 105.844 71.6636 105.7 71.689L40.4652 83.1917C40.4497 83.1944 40.4342 83.1958 40.4189 83.1958Z" fill="#EBE6D7" fill-opacity="0.13"/>
<path d="M41.9135 88.7725C41.8053 88.7725 41.7037 88.7057 41.6645 88.5981C41.6144 88.4605 41.6853 88.3085 41.8229 88.2584L104.069 65.6027C104.207 65.5528 104.359 65.6235 104.409 65.761C104.459 65.8985 104.388 66.0506 104.25 66.1006L42.0041 88.7564C41.9742 88.7673 41.9436 88.7725 41.9135 88.7725Z" fill="#EBE6D7" fill-opacity="0.13"/>
<path d="M41.9135 88.7725C41.8053 88.7725 41.7037 88.7057 41.6645 88.5981C41.6144 88.4605 41.6853 88.3085 41.8229 88.2584L104.069 65.6027C104.207 65.5528 104.359 65.6235 104.409 65.761C104.459 65.8985 104.388 66.0506 104.25 66.1006L42.0041 88.7564C41.9742 88.7673 41.9436 88.7725 41.9135 88.7725Z" fill="#EBE6D7" fill-opacity="0.13"/>
<path d="M44.3541 94.0046C44.2625 94.0046 44.1735 93.9571 44.1244 93.8721C44.0512 93.7454 44.0947 93.5833 44.2214 93.5101L101.588 60.3896C101.715 60.3163 101.877 60.3599 101.95 60.4866C102.023 60.6133 101.98 60.7754 101.853 60.8485L44.4863 93.9691C44.4446 93.9932 44.3991 94.0046 44.3541 94.0046Z" fill="#EBE6D7" fill-opacity="0.13"/>
<path d="M44.3541 94.0046C44.2625 94.0046 44.1735 93.9571 44.1244 93.8721C44.0512 93.7454 44.0947 93.5833 44.2214 93.5101L101.588 60.3896C101.715 60.3163 101.877 60.3599 101.95 60.4866C102.023 60.6133 101.98 60.7754 101.853 60.8485L44.4863 93.9691C44.4446 93.9932 44.3991 94.0046 44.3541 94.0046Z" fill="#EBE6D7" fill-opacity="0.13"/>
<path d="M47.6645 98.7341C47.5889 98.7341 47.5138 98.7019 47.4614 98.6395C47.3673 98.5273 47.382 98.3602 47.4941 98.2661L98.2377 55.6872C98.3498 55.5932 98.5169 55.6078 98.611 55.7199C98.705 55.832 98.6904 55.9991 98.5783 56.0932L47.8347 98.6721C47.7851 98.7137 47.7246 98.7341 47.6645 98.7341Z" fill="#EBE6D7" fill-opacity="0.13"/>
<path d="M47.6645 98.7341C47.5889 98.7341 47.5138 98.7019 47.4614 98.6395C47.3673 98.5273 47.382 98.3602 47.4941 98.2661L98.2377 55.6872C98.3498 55.5932 98.5169 55.6078 98.611 55.7199C98.705 55.832 98.6904 55.9991 98.5783 56.0932L47.8347 98.6721C47.7851 98.7137 47.7246 98.7341 47.6645 98.7341Z" fill="#EBE6D7" fill-opacity="0.13"/>
<path d="M51.7465 102.816C51.6864 102.816 51.626 102.796 51.5763 102.754C51.4642 102.66 51.4496 102.493 51.5437 102.381L94.1226 51.6372C94.2167 51.525 94.3839 51.5104 94.4959 51.6045C94.608 51.6986 94.6226 51.8657 94.5285 51.9778L51.9496 102.721C51.8972 102.784 51.8221 102.816 51.7465 102.816Z" fill="#EBE6D7" fill-opacity="0.13"/>
<path d="M51.7465 102.816C51.6864 102.816 51.626 102.796 51.5763 102.754C51.4642 102.66 51.4496 102.493 51.5437 102.381L94.1226 51.6372C94.2167 51.525 94.3839 51.5104 94.4959 51.6045C94.608 51.6986 94.6226 51.8657 94.5285 51.9778L51.9496 102.721C51.8972 102.784 51.8221 102.816 51.7465 102.816Z" fill="#EBE6D7" fill-opacity="0.13"/>
<path d="M56.4759 106.128C56.431 106.128 56.3854 106.116 56.3437 106.092C56.217 106.019 56.1735 105.857 56.2467 105.73L89.3673 48.3638C89.4404 48.237 89.6024 48.1935 89.7292 48.2668C89.8559 48.34 89.8994 48.502 89.8262 48.6288L56.7056 105.995C56.6566 106.08 56.5675 106.128 56.4759 106.128Z" fill="#EBE6D7" fill-opacity="0.13"/>
<path d="M56.4759 106.128C56.431 106.128 56.3854 106.116 56.3437 106.092C56.217 106.019 56.1735 105.857 56.2467 105.73L89.3673 48.3638C89.4404 48.237 89.6024 48.1935 89.7292 48.2668C89.8559 48.34 89.8994 48.502 89.8262 48.6288L56.7056 105.995C56.6566 106.08 56.5675 106.128 56.4759 106.128Z" fill="#EBE6D7" fill-opacity="0.13"/>
<path d="M61.7084 108.568C61.6783 108.568 61.6477 108.562 61.6178 108.552C61.4803 108.501 61.4094 108.349 61.4594 108.212L84.1152 45.9657C84.1652 45.8282 84.3171 45.7572 84.4548 45.8073C84.5923 45.8574 84.6632 46.0094 84.6132 46.1469L61.9574 108.393C61.9182 108.501 61.8166 108.568 61.7084 108.568Z" fill="#EBE6D7" fill-opacity="0.13"/>
<path d="M61.7084 108.568C61.6783 108.568 61.6477 108.562 61.6178 108.552C61.4803 108.501 61.4094 108.349 61.4594 108.212L84.1152 45.9657C84.1652 45.8282 84.3171 45.7572 84.4548 45.8073C84.5923 45.8574 84.6632 46.0094 84.6132 46.1469L61.9574 108.393C61.9182 108.501 61.8166 108.568 61.7084 108.568Z" fill="#EBE6D7" fill-opacity="0.13"/>
<path d="M67.2858 110.062C67.2705 110.062 67.2551 110.061 67.2395 110.058C67.0954 110.033 66.9992 109.895 67.0246 109.751L78.5272 44.5164C78.5527 44.3722 78.6901 44.276 78.8342 44.3014C78.9783 44.3268 79.0745 44.4643 79.0491 44.6084L67.5465 109.843C67.5238 109.972 67.412 110.062 67.2858 110.062Z" fill="#EBE6D7" fill-opacity="0.13"/>
<path d="M86.8814 57.3593V96.6037H82.6476V76.7372C80.1145 76.8458 78.0338 77.2438 76.4054 77.9314C74.777 78.5827 73.3657 79.6502 72.1716 81.1339C71.1945 82.328 70.0185 84.4992 68.6434 87.6475C67.8473 89.3121 67.3407 90.3434 67.1235 90.7414C66.7617 91.3928 66.2551 92.2432 65.6037 93.2926C64.9885 94.2334 64.3915 94.9753 63.8125 95.5181C62.2926 96.7484 60.7366 97.3636 59.1444 97.3636C56.5751 97.3636 55.182 95.9161 54.9648 93.0212H55.2905C55.4715 95.2647 56.2133 96.3865 57.516 96.3865C58.2759 96.3865 58.9635 96.0066 59.5786 95.2467C60.23 94.4505 60.9718 93.0031 61.8041 90.9043C62.6726 88.914 63.342 87.5027 63.8125 86.6704C64.9704 84.6078 66.5807 82.7623 68.6434 81.1339C70.706 79.4693 73.0762 78.2932 75.754 77.6057V77.4428L74.6684 77.4971C74.198 77.5333 73.6552 77.5514 73.0401 77.5514C69.3128 77.5152 66.1827 76.5744 63.6496 74.7289C61.0804 72.8833 59.7958 70.1874 59.7958 66.6411C59.7958 64.3976 60.6642 62.2807 62.4012 60.2904C64.4638 57.9383 68.2091 56.7622 73.6371 56.7622C74.5056 56.7622 76.4778 56.8527 79.5536 57.0336C82.3038 57.2507 84.2579 57.3593 85.4159 57.3593H86.8814ZM82.6476 76.4115V58.2278C79.7889 57.4678 77.4186 57.0879 75.5369 57.0879C72.3525 57.0879 69.7109 57.9021 67.6121 59.5305C65.5132 61.1951 64.4638 63.6196 64.4638 66.804C64.4638 70.0608 65.3685 72.5577 67.1778 74.2946C68.9872 76.0316 71.6288 76.9 75.1027 76.9C76.1521 76.9 77.6719 76.8277 79.6622 76.6829C81.0011 76.6106 81.9962 76.5201 82.6476 76.4115Z" fill="#EBE6D7"/>
</svg>
