<svg width="286" height="135" viewBox="0 0 286 135" fill="none" xmlns="http://www.w3.org/2000/svg">
<mask id="mask0_1349_12" style="mask-type:alpha" maskUnits="userSpaceOnUse" x="0" y="0" width="286" height="135">
<rect width="286" height="134.166" fill="#D9D9D9"/>
</mask>
<g mask="url(#mask0_1349_12)">
<path d="M123.47 -59.0777L285.533 102.985L162.324 226.193L0.261465 64.1306L38.6284 25.7636L52.5628 39.698L28.0646 64.1961L162.259 198.39L257.728 102.921L123.534 -31.273L98.3674 -6.10668L84.4331 -20.041L123.47 -59.0777Z" fill="url(#paint0_linear_1349_12)"/>
<path d="M123.47 -59.0777L285.533 102.985L162.324 226.193L0.261465 64.1306L38.6284 25.7636L52.5628 39.698L28.0646 64.1961L162.259 198.39L257.728 102.921L123.534 -31.273L98.3674 -6.10668L84.4331 -20.041L123.47 -59.0777Z" fill="url(#paint1_radial_1349_12)"/>
<path d="M123.47 -59.0777L285.533 102.985L162.324 226.193L0.261465 64.1306L38.6284 25.7636L52.5628 39.698L28.0646 64.1961L162.259 198.39L257.728 102.921L123.534 -31.273L98.3674 -6.10668L84.4331 -20.041L123.47 -59.0777Z" fill="url(#paint2_radial_1349_12)" fill-opacity="0.11"/>
</g>
<path d="M94.849 83.6209V53.6895H78.1978C76.9165 53.6895 75.714 53.9402 74.5904 54.4376C73.4648 54.9351 72.4831 55.6122 71.6434 56.467C70.8036 57.3218 70.1491 58.3207 69.68 59.4598C69.2108 60.6008 68.9743 61.8109 68.9743 63.0941C68.9743 64.3773 69.2089 65.5894 69.68 66.7285C70.1491 67.8675 70.8036 68.8664 71.6434 69.7212C72.4831 70.576 73.4648 71.2531 74.5904 71.7526C75.714 72.252 76.9165 72.5008 78.1978 72.5008L67.9492 83.6189H73.2874L83.534 72.5008H90.5793V83.6189H94.849V83.6209ZM78.6256 68.6552C77.8568 68.6552 77.1373 68.5131 76.469 68.2268C75.7988 67.9425 75.2094 67.5438 74.6968 67.0285C74.1843 66.5172 73.7861 65.925 73.5023 65.2538C73.2164 64.5846 73.0745 63.864 73.0745 63.0941C73.0745 62.3242 73.2164 61.6056 73.5023 60.9344C73.7861 60.2652 74.1843 59.673 74.6968 59.1597C75.2094 58.6464 75.7988 58.2477 76.469 57.9634C77.1373 57.6791 77.8568 57.537 78.6256 57.537H90.5813V68.6532H78.6256V68.6552Z" fill="#FEE6C8"/>
<path d="M123.598 56.4695C122.76 55.6147 121.778 54.9375 120.654 54.4401C119.531 53.9406 118.33 53.6919 117.051 53.6919H100.419V97.3888H56.5314V33.3408H100.431V45.9178H104.689V29.2109H52.2734V101.519H104.689V79.5409H104.685V72.5032H117.053C118.332 72.5032 119.533 72.2544 120.656 71.755C121.78 71.2575 122.76 70.5784 123.6 69.7236C124.437 68.8689 125.092 67.8699 125.561 66.7309C126.03 65.5918 126.265 64.3797 126.265 63.0965C126.265 61.8134 126.03 60.6032 125.561 59.4622C125.092 58.3232 124.437 57.3242 123.598 56.4695ZM121.743 65.2562C121.459 65.9274 121.061 66.5177 120.548 67.031C120.036 67.5442 119.446 67.945 118.778 68.2292C118.11 68.5155 117.392 68.6576 116.623 68.6576H104.683V57.5414H116.623C117.39 57.5414 118.11 57.6835 118.778 57.9678C119.444 58.2541 120.036 58.6509 120.548 59.1641C121.061 59.6774 121.457 60.2696 121.743 60.9388C122.026 61.61 122.168 62.3286 122.168 63.0985C122.168 63.8684 122.028 64.587 121.743 65.2562Z" fill="#FEE6C8"/>
<path d="M230.818 54.6221V57.1608L215.888 78.6213V54.6221H212.706V82.1807H215.888V79.6439L230.818 58.1439V82.1807H234V54.6221H230.818Z" fill="#FEE6C8"/>
<path d="M205.666 81.2679C205.12 81.0783 204.775 80.8553 204.639 80.6065C204.497 80.3223 204.426 79.8327 204.426 79.1496V54.5088H189.018V54.9668L189.133 54.9707C190.909 55.0457 191.772 56.0446 191.772 58.0266C191.772 60.9306 191.443 64.3181 190.792 68.0966C189.968 72.8206 188.819 76.455 187.376 78.8969C187.031 79.4418 186.552 80.0459 185.953 80.6954C185.427 81.2955 184.95 81.5995 184.534 81.5995H182.15V86.975H182.608L182.651 86.1972C182.896 84.8292 183.625 83.7888 184.818 83.1058C186.053 82.4148 188.001 82.0634 190.609 82.0634H200.457C201.922 82.0634 203.17 82.1759 204.171 82.399C206.397 82.8156 207.724 84.079 208.112 86.1419L208.155 86.973H208.615V81.6015L208.5 81.5975C207.205 81.5521 206.251 81.4396 205.666 81.2679ZM187.615 79.7063C188.671 78.0185 189.489 76.1766 190.043 74.2361C190.621 72.2521 191.155 69.7311 191.632 66.7404C191.859 65.2578 192.036 63.7437 192.162 62.2335C192.338 59.7125 192.438 58.1214 192.464 57.5075C192.539 56.1236 192.567 55.6182 192.574 55.4386L192.906 55.3498C193.818 55.101 194.709 54.9747 195.553 54.9747H198.043C199.361 54.9747 200.438 55.1267 201.244 55.4287V81.0389C200.276 81.4139 198.21 81.6035 195.1 81.6035H185.988C186.617 81.0428 187.163 80.4052 187.615 79.7063Z" fill="#FEE6C8"/>
<path d="M183.37 68.1152C183.37 66.7511 183.216 65.4087 182.914 64.1235C182.636 62.8325 182.138 61.5375 181.43 60.272C180.722 59.0066 179.837 57.8893 178.802 56.9555C177.767 56.0178 176.421 55.2479 174.801 54.6636C173.19 54.0832 171.361 53.7891 169.364 53.7891C167.396 53.7891 165.579 54.097 163.965 54.7031C162.372 55.3111 161.039 56.1185 160.002 57.1056C158.969 58.065 158.084 59.1942 157.377 60.4596C156.671 61.721 156.158 63.0161 155.855 64.3071C155.551 65.5706 155.399 66.8518 155.399 68.1152C155.399 70.7684 156.012 73.2775 157.223 75.5734C158.234 77.6225 159.772 79.3045 161.796 80.5718C163.815 81.8116 166.362 82.4532 169.368 82.4808C171.363 82.4808 173.216 82.1728 174.881 81.5648C176.547 80.9331 177.933 80.0862 178.997 79.0458C180.486 77.581 181.611 75.8497 182.347 73.9013C183.076 71.9351 183.421 69.9886 183.37 68.1152ZM158.881 68.1172C158.881 63.8551 159.799 60.432 161.613 57.9465C163.417 55.4967 166.026 54.255 169.366 54.255C172.656 54.255 175.264 55.548 177.117 58.0985C178.954 60.6866 179.886 64.0584 179.886 68.1191C179.886 70.5374 179.508 72.8116 178.761 74.8805C177.992 77.0145 176.762 78.7655 175.102 80.0783C173.472 81.3654 171.54 82.0188 169.366 82.0188C167.119 82.0188 165.177 81.3417 163.592 80.0052C160.466 77.4448 158.881 73.4473 158.881 68.1172Z" fill="#FEE6C8"/>
<path d="M153.434 79.5029C153.313 81.0033 152.832 81.7337 151.967 81.7337C151.431 81.7337 150.995 81.4079 150.635 80.7328C150.341 80.2669 150.167 79.9353 150.118 79.7379C150.067 79.5819 149.952 79.3174 149.777 78.9383C149.623 78.5534 149.527 78.2948 149.473 78.1428C149.241 77.5999 148.989 76.9899 148.72 76.3325C148.47 75.6554 148.316 75.2586 148.267 75.1579C147.563 73.4444 146.694 71.9835 145.683 70.8188C144.843 69.8022 143.907 68.9928 142.899 68.4144C141.975 67.8458 140.786 67.4036 139.361 67.1016C140.644 66.837 141.667 66.2586 142.399 65.3821C142.852 64.8531 143.378 64.02 143.962 62.9026C144.512 61.7754 145.072 60.4232 145.626 58.8893C146.246 57.3712 146.787 56.2992 147.234 55.705C147.717 55.0516 148.34 54.7338 149.138 54.7338C150.073 54.7338 150.916 55.2628 151.644 56.3071L151.815 56.5519L152.099 54.6588L152.024 54.6193C151.208 54.185 150.402 53.9639 149.629 53.9639C148.618 53.9639 147.751 54.3449 147.053 55.097C146.56 55.6162 146.01 56.6289 145.369 58.1944L143.747 62.0498C143.25 63.2422 142.661 64.2371 141.991 65.007C140.989 66.231 139.623 66.8509 137.932 66.8509H133.674V54.5699H130.492V82.1285H133.674V67.3168H137.932C138.878 67.3168 139.688 67.6227 140.343 68.2288C141.034 68.8487 141.799 69.9561 142.617 71.5196C142.868 72.0191 143.422 73.2272 144.313 75.2152C145.218 77.3038 146.11 79.0015 146.964 80.261C148.015 81.8521 149.367 82.6576 150.987 82.6576C152.84 82.6576 153.82 81.6014 153.899 79.5207L153.903 79.3963H153.444L153.434 79.5029Z" fill="#FEE6C8"/>
<path d="M143.233 99.2357L143.239 93.5088H144.024V96.2666L146.577 93.5088H147.616L144.937 96.3732L147.966 99.2377H146.833L144.022 96.4778V99.2357H143.233Z" fill="#FEE6C8"/>
<path d="M150.803 99.3944C150.235 99.3944 149.749 99.266 149.346 99.0074C148.944 98.7488 148.635 98.3915 148.42 97.9355C148.205 97.4795 148.097 96.9563 148.097 96.3661C148.097 95.7659 148.205 95.2389 148.426 94.7848C148.645 94.3327 148.956 93.9794 149.36 93.7267C149.764 93.474 150.245 93.3477 150.803 93.3477C151.375 93.3477 151.864 93.476 152.268 93.7326C152.672 93.9892 152.981 94.3446 153.194 94.7986C153.407 95.2527 153.516 95.7758 153.516 96.3661C153.516 96.9682 153.407 97.4953 153.192 97.9493C152.978 98.4034 152.666 98.7587 152.26 99.0134C151.854 99.266 151.369 99.3944 150.803 99.3944ZM150.803 98.6462C151.438 98.6462 151.911 98.4349 152.223 98.0125C152.534 97.59 152.688 97.0412 152.688 96.3661C152.688 95.6732 152.532 95.1224 152.219 94.7118C151.905 94.3011 151.434 94.0958 150.801 94.0958C150.373 94.0958 150.023 94.1926 149.745 94.3841C149.467 94.5775 149.262 94.844 149.126 95.1856C148.99 95.5271 148.923 95.9199 148.923 96.3661C148.923 97.055 149.082 97.6078 149.4 98.0243C149.719 98.4389 150.186 98.6462 150.803 98.6462Z" fill="#FEE6C8"/>
<path d="M154.605 101.781V93.5076H155.305V97.819H155.39V101.781H154.605ZM157.178 99.3944C156.652 99.3944 156.206 99.2601 155.843 98.9936C155.481 98.7271 155.205 98.3639 155.017 97.9059C154.83 97.4479 154.738 96.9346 154.738 96.3661C154.738 95.7857 154.832 95.2685 155.021 94.8144C155.211 94.3604 155.489 94.0031 155.855 93.7405C156.222 93.4799 156.673 93.3477 157.211 93.3477C157.734 93.3477 158.181 93.4799 158.556 93.7445C158.93 94.009 159.216 94.3702 159.415 94.8263C159.614 95.2823 159.715 95.7956 159.715 96.3641C159.715 96.9366 159.614 97.4518 159.413 97.9078C159.212 98.3639 158.923 98.7251 158.544 98.9916C158.168 99.2601 157.712 99.3944 157.178 99.3944ZM157.099 98.6679C157.497 98.6679 157.83 98.5672 158.095 98.3658C158.359 98.1645 158.558 97.8901 158.69 97.5407C158.822 97.1932 158.889 96.8004 158.889 96.3661C158.889 95.9357 158.824 95.5468 158.694 95.1994C158.564 94.8519 158.365 94.5795 158.099 94.3781C157.832 94.1768 157.493 94.0761 157.085 94.0761C156.687 94.0761 156.356 94.1728 156.092 94.3683C155.83 94.5637 155.632 94.8322 155.5 95.1777C155.37 95.5231 155.305 95.9199 155.305 96.368C155.305 96.8102 155.37 97.2051 155.5 97.5525C155.631 97.9 155.83 98.1744 156.094 98.3718C156.358 98.5692 156.693 98.6679 157.099 98.6679Z" fill="#FEE6C8"/>
<path d="M160.799 99.2357V93.5088H165.349V99.2357H164.57V94.255H161.577V99.2357H160.799Z" fill="#FEE6C8"/>
<path d="M167.572 101.782L168.678 98.7757L168.694 99.666L166.188 93.5088H167.014L169.068 98.6592H168.729L170.626 93.5088H171.42L168.349 101.782H167.572Z" fill="#FEE6C8"/>
<path d="M174.645 99.3943C174.069 99.3943 173.582 99.266 173.184 99.0074C172.786 98.7488 172.482 98.3935 172.275 97.9394C172.068 97.4854 171.962 96.9622 171.954 96.372C171.962 95.7718 172.07 95.2428 172.283 94.7887C172.494 94.3347 172.8 93.9813 173.2 93.7286C173.598 93.4759 174.083 93.3496 174.651 93.3496C175.23 93.3496 175.733 93.4917 176.163 93.774C176.592 94.0563 176.886 94.4433 177.044 94.9348L176.281 95.1796C176.147 94.8361 175.934 94.5716 175.642 94.3821C175.351 94.1926 175.017 94.0978 174.645 94.0978C174.225 94.0978 173.876 94.1945 173.602 94.386C173.328 94.5775 173.121 94.846 172.987 95.1895C172.853 95.533 172.784 95.9258 172.78 96.372C172.788 97.057 172.946 97.6078 173.257 98.0243C173.569 98.4389 174.03 98.6481 174.645 98.6481C175.033 98.6481 175.364 98.5593 175.638 98.3796C175.912 98.202 176.119 97.9394 176.261 97.5979L177.046 97.8308C176.835 98.3402 176.523 98.7291 176.113 98.9956C175.701 99.2601 175.213 99.3943 174.645 99.3943Z" fill="#FEE6C8"/>
<path d="M178.052 99.2357V93.5088H178.83V95.9962H182.055V93.5088H182.834V99.2357H182.055V96.7424H178.83V99.2357H178.052Z" fill="#FEE6C8"/>
<path d="M185.879 99.3943C185.45 99.3943 185.087 99.3173 184.797 99.1614C184.505 99.0054 184.289 98.7982 184.143 98.5415C183.999 98.2829 183.926 98.0026 183.926 97.6986C183.926 97.3867 183.989 97.1221 184.113 96.901C184.239 96.6799 184.409 96.4983 184.628 96.3582C184.844 96.216 185.097 96.1094 185.383 96.0344C185.672 95.9633 185.992 95.9002 186.345 95.8469C186.695 95.7916 187.04 95.7442 187.377 95.7027C187.715 95.6613 188.01 95.6218 188.265 95.5843L187.989 95.7541C187.998 95.1895 187.89 94.769 187.659 94.4966C187.431 94.2241 187.031 94.0879 186.463 94.0879C186.071 94.0879 185.739 94.1768 185.469 94.3525C185.199 94.5301 185.01 94.8085 184.9 95.1895L184.143 94.9664C184.273 94.4531 184.537 94.0563 184.931 93.774C185.327 93.4917 185.84 93.3496 186.473 93.3496C186.995 93.3496 187.439 93.4483 187.805 93.6437C188.17 93.8392 188.43 94.1235 188.582 94.4946C188.653 94.6604 188.698 94.846 188.72 95.0513C188.742 95.2566 188.751 95.4639 188.751 95.6771V99.2364H188.058V97.7993L188.259 97.8841C188.065 98.3757 187.762 98.7508 187.354 99.0094C186.942 99.264 186.451 99.3943 185.879 99.3943ZM185.97 98.7212C186.333 98.7212 186.652 98.656 186.924 98.5257C187.196 98.3954 187.415 98.2158 187.581 97.9868C187.746 97.7598 187.855 97.5012 187.904 97.2149C187.945 97.0313 187.969 96.828 187.973 96.6069C187.977 96.3858 187.979 96.22 187.979 96.1114L188.274 96.2654C188.01 96.3009 187.722 96.3364 187.413 96.372C187.103 96.4075 186.8 96.449 186.502 96.4944C186.205 96.5398 185.935 96.595 185.694 96.6582C185.532 96.7036 185.375 96.7688 185.223 96.8517C185.071 96.9346 184.947 97.0451 184.85 97.1833C184.754 97.3215 184.704 97.4933 184.704 97.6986C184.704 97.8644 184.746 98.0263 184.829 98.1803C184.911 98.3362 185.045 98.4645 185.231 98.5672C185.416 98.6698 185.662 98.7212 185.97 98.7212Z" fill="#FEE6C8"/>
<path d="M189.735 99.2357L191.33 96.8332H192.194L190.589 99.2357H189.735ZM193.638 99.2357V97.078H192.304C192.148 97.078 191.988 97.072 191.825 97.0602C191.661 97.0483 191.508 97.0286 191.368 97.0049C190.965 96.9279 190.624 96.7503 190.342 96.4719C190.063 96.1936 189.921 95.8106 189.921 95.319C189.921 94.8373 190.051 94.4524 190.313 94.1602C190.573 93.8681 190.891 93.6785 191.261 93.5897C191.431 93.5502 191.602 93.5285 191.778 93.5206C191.953 93.5127 192.103 93.5107 192.231 93.5107H194.417L194.423 99.2376H193.638V99.2357ZM192.261 96.4087H193.636V94.176H192.261C192.176 94.176 192.057 94.18 191.906 94.1859C191.754 94.1938 191.61 94.2155 191.476 94.255C191.36 94.2905 191.243 94.3517 191.129 94.4386C191.015 94.5254 190.918 94.6399 190.841 94.784C190.764 94.9282 190.725 95.1019 190.725 95.3072C190.725 95.5934 190.804 95.8224 190.961 95.9942C191.119 96.1659 191.316 96.2824 191.551 96.3475C191.677 96.3752 191.805 96.3929 191.931 96.4008C192.059 96.4068 192.17 96.4087 192.261 96.4087Z" fill="#FEE6C8"/>
<path d="M197.867 99.2357V93.5088H198.561L200.791 98.1973L203.026 93.5088H203.714V99.2357H202.961V95.173L201.039 99.2357H200.546L198.624 95.173V99.2357H197.867Z" fill="#FEE6C8"/>
<path d="M207.543 99.3944C206.985 99.3944 206.502 99.27 206.094 99.0232C205.686 98.7765 205.368 98.427 205.144 97.9789C204.917 97.5308 204.805 97.0037 204.805 96.3977C204.805 95.7719 204.915 95.231 205.138 94.7749C205.361 94.3189 205.674 93.9675 206.078 93.7188C206.482 93.472 206.959 93.3477 207.511 93.3477C208.075 93.3477 208.558 93.4779 208.956 93.7366C209.354 93.9971 209.658 94.3683 209.861 94.8519C210.066 95.3356 210.159 95.914 210.141 96.5852H209.346V96.3088C209.333 95.5666 209.173 95.0059 208.867 94.6269C208.562 94.2478 208.116 94.0603 207.531 94.0603C206.916 94.0603 206.447 94.2597 206.12 94.6604C205.792 95.0592 205.629 95.6297 205.629 96.368C205.629 97.0886 205.792 97.6492 206.12 98.046C206.447 98.4448 206.91 98.6422 207.509 98.6422C207.919 98.6422 208.276 98.5475 208.582 98.358C208.887 98.1684 209.128 97.896 209.305 97.5387L210.03 97.819C209.804 98.3185 209.473 98.7034 209.033 98.9778C208.595 99.2562 208.099 99.3944 207.543 99.3944ZM205.357 96.5891V95.9377H209.725V96.5891H205.357Z" fill="#FEE6C8"/>
<path d="M213.531 99.401C212.999 99.3971 212.542 99.2806 212.159 99.0516C211.779 98.8226 211.483 98.4791 211.272 98.0231C211.061 97.5671 210.949 96.9985 210.931 96.3155C210.921 96.0154 210.927 95.6877 210.953 95.3324C210.979 94.977 211.016 94.6394 211.069 94.3177C211.122 93.9959 211.186 93.7353 211.26 93.532C211.353 93.2714 211.483 93.0246 211.655 92.7976C211.826 92.5686 212.025 92.383 212.25 92.2389C212.469 92.0909 212.717 91.9744 212.993 91.8915C213.271 91.8086 213.559 91.7434 213.863 91.698C214.164 91.6526 214.464 91.6112 214.763 91.5756C215.061 91.5401 215.339 91.4967 215.591 91.4434L215.676 92.1481C215.483 92.1876 215.252 92.2231 214.988 92.2547C214.724 92.2863 214.446 92.3238 214.156 92.3692C213.866 92.4126 213.59 92.4719 213.324 92.5469C213.06 92.6219 212.834 92.7186 212.646 92.8391C212.36 93.0128 212.14 93.2734 211.988 93.6248C211.834 93.9742 211.739 94.3769 211.704 94.829C211.923 94.4855 212.213 94.2288 212.575 94.0551C212.936 93.8814 213.33 93.7945 213.754 93.7945C214.269 93.7945 214.714 93.913 215.087 94.1499C215.459 94.3868 215.745 94.7164 215.946 95.1369C216.147 95.5574 216.248 96.0411 216.248 96.584C216.248 97.1525 216.137 97.65 215.917 98.0744C215.696 98.4988 215.382 98.8265 214.976 99.0575C214.57 99.2845 214.089 99.401 213.531 99.401ZM213.589 98.6528C214.188 98.6528 214.645 98.4653 214.957 98.0902C215.268 97.7151 215.426 97.2176 215.426 96.5938C215.426 95.9582 215.264 95.4548 214.941 95.0876C214.618 94.7204 214.162 94.5368 213.577 94.5368C212.991 94.5368 212.54 94.7204 212.226 95.0876C211.913 95.4548 211.755 95.9582 211.755 96.5938C211.755 97.2295 211.913 97.7329 212.226 98.1001C212.542 98.4692 212.995 98.6528 213.589 98.6528Z" fill="#FEE6C8"/>
<path d="M219.76 99.3944C219.202 99.3944 218.719 99.27 218.311 99.0232C217.903 98.7765 217.585 98.427 217.361 97.9789C217.134 97.5308 217.021 97.0037 217.021 96.3977C217.021 95.7719 217.132 95.231 217.355 94.7749C217.577 94.3189 217.891 93.9675 218.295 93.7188C218.699 93.472 219.176 93.3477 219.728 93.3477C220.292 93.3477 220.775 93.4779 221.173 93.7366C221.571 93.9971 221.875 94.3683 222.078 94.8519C222.283 95.3356 222.375 95.914 222.358 96.5852H221.563V96.3088C221.549 95.5666 221.39 95.0059 221.084 94.6269C220.779 94.2478 220.333 94.0603 219.748 94.0603C219.133 94.0603 218.664 94.2597 218.336 94.6604C218.009 95.0592 217.845 95.6297 217.845 96.368C217.845 97.0886 218.009 97.6492 218.336 98.046C218.664 98.4448 219.127 98.6422 219.726 98.6422C220.136 98.6422 220.493 98.5475 220.798 98.358C221.104 98.1684 221.344 97.896 221.522 97.5387L222.247 97.819C222.021 98.3185 221.689 98.7034 221.25 98.9778C220.81 99.2562 220.313 99.3944 219.76 99.3944ZM217.571 96.5891V95.9377H221.94V96.5891H217.571Z" fill="#FEE6C8"/>
<path d="M222.926 99.2348V98.5497C223.137 98.5892 223.298 98.5794 223.411 98.5201C223.521 98.4609 223.604 98.3622 223.657 98.222C223.71 98.0819 223.754 97.9081 223.789 97.6989C223.846 97.3514 223.898 96.9704 223.943 96.5539C223.988 96.1374 224.03 95.6754 224.067 95.172C224.105 94.6686 224.142 94.1119 224.181 93.5039H228.069V99.2308H227.296V94.2501H224.903C224.877 94.6252 224.85 94.9983 224.818 95.3694C224.787 95.7406 224.753 96.0979 224.72 96.4374C224.686 96.779 224.651 97.0928 224.611 97.3791C224.572 97.6653 224.532 97.9121 224.489 98.1214C224.426 98.4352 224.341 98.6879 224.237 98.8735C224.132 99.061 223.978 99.1854 223.773 99.2446C223.568 99.3117 223.287 99.3058 222.926 99.2348Z" fill="#FEE6C8"/>
<path d="M229.482 99.2357L229.472 93.5088H230.256V95.6665H231.597C231.762 95.6665 231.926 95.6704 232.086 95.6764C232.245 95.6843 232.389 95.6981 232.511 95.7198C232.793 95.7731 233.046 95.8659 233.266 96.0001C233.487 96.1344 233.661 96.3199 233.785 96.5568C233.911 96.7937 233.972 97.0898 233.972 97.4471C233.972 97.9387 233.846 98.3256 233.594 98.6079C233.341 98.8902 233.022 99.0738 232.638 99.1587C232.492 99.1903 232.336 99.21 232.166 99.2199C231.997 99.2298 231.829 99.2337 231.664 99.2337H229.482V99.2357ZM230.254 98.5684H231.63C231.75 98.5684 231.885 98.5645 232.032 98.5586C232.18 98.5507 232.31 98.5329 232.425 98.4993C232.612 98.446 232.781 98.3394 232.935 98.1776C233.089 98.0157 233.166 97.7729 233.166 97.4491C233.166 97.1273 233.091 96.8845 232.943 96.7207C232.795 96.5568 232.596 96.4482 232.35 96.3949C232.239 96.3693 232.121 96.3535 231.995 96.3476C231.869 96.3397 231.747 96.3377 231.63 96.3377H230.254V98.5684Z" fill="#FEE6C8"/>
<defs>
<linearGradient id="paint0_linear_1349_12" x1="138.516" y1="202.385" x2="423.258" y2="211.186" gradientUnits="userSpaceOnUse">
<stop stop-color="#0D0533"/>
<stop offset="1" stop-color="#FEE6C8"/>
</linearGradient>
<radialGradient id="paint1_radial_1349_12" cx="0" cy="0" r="1" gradientUnits="userSpaceOnUse" gradientTransform="translate(358.815 287.552) rotate(-128.323) scale(414.329 316.383)">
<stop stop-color="#FEE6C8" stop-opacity="0"/>
<stop offset="1" stop-color="#0D0533"/>
</radialGradient>
<radialGradient id="paint2_radial_1349_12" cx="0" cy="0" r="1" gradientUnits="userSpaceOnUse" gradientTransform="translate(288.76 101.314) rotate(169.954) scale(120.275 119.512)">
<stop stop-color="#FEE6C8"/>
<stop offset="1" stop-color="#FEE6C8" stop-opacity="0"/>
</radialGradient>
</defs>
</svg>
