<svg width="303" height="121" viewBox="0 0 303 121" fill="none" xmlns="http://www.w3.org/2000/svg">
<path d="M70.988 90.721V40.8149H43.2246C41.0882 40.8149 39.0833 41.233 37.2098 42.0624C35.3331 42.8919 33.6963 44.0209 32.2961 45.4461C30.896 46.8713 29.8048 48.5369 29.0225 50.4361C28.2403 52.3386 27.8458 54.3563 27.8458 56.4958C27.8458 58.6352 28.237 60.6562 29.0225 62.5554C29.8048 64.4547 30.896 66.1202 32.2961 67.5454C33.6963 68.9706 35.3331 70.0996 37.2098 70.9324C39.0833 71.7651 41.0882 72.1799 43.2246 72.1799L26.1367 90.7177H35.0373L52.1219 72.1799H63.8688V90.7177H70.988V90.721ZM43.9379 65.768C42.656 65.768 41.4564 65.531 40.3421 65.0537C39.2246 64.5797 38.2419 63.9148 37.3873 63.0558C36.5328 62.2033 35.8688 61.2158 35.3955 60.0967C34.919 58.9809 34.6823 57.7795 34.6823 56.4958C34.6823 55.2121 34.919 54.0139 35.3955 52.8948C35.8688 51.779 36.5328 50.7916 37.3873 49.9358C38.2419 49.08 39.2246 48.4151 40.3421 47.9411C41.4564 47.4671 42.656 47.2301 43.9379 47.2301H63.8721V65.7647H43.9379V65.768Z" fill="#FEE6C8"/>
<path d="M118.922 45.4493C117.525 44.0241 115.888 42.8951 114.015 42.0657C112.141 41.2329 110.14 40.8182 108.007 40.8182H80.2761V113.676H7.09942V6.88587H80.2958V27.8562H87.3952V0H0V120.562H87.3952V83.9174H87.3886V72.1831H108.01C110.143 72.1831 112.145 71.7684 114.018 70.9356C115.891 70.1061 117.525 68.9739 118.925 67.5486C120.322 66.1234 121.413 64.4579 122.196 62.5587C122.978 60.6595 123.369 58.6385 123.369 56.499C123.369 54.3595 122.978 52.3418 122.196 50.4393C121.413 48.5401 120.322 46.8746 118.922 45.4493ZM115.829 60.0999C115.356 61.219 114.692 62.2032 113.837 63.059C112.983 63.9148 112 64.583 110.886 65.0569C109.772 65.5342 108.575 65.7712 107.293 65.7712H87.3853V47.2366H107.293C108.572 47.2366 109.772 47.4736 110.886 47.9476C111.997 48.4249 112.983 49.0865 113.837 49.9423C114.692 50.7981 115.352 51.7855 115.829 52.9014C116.302 54.0205 116.539 55.2186 116.539 56.5023C116.539 57.786 116.306 58.9841 115.829 60.0999Z" fill="#FEE6C8"/>
<path d="M297.695 42.3682V46.6011L272.801 82.3832V42.3682H267.496V88.3178H272.801V84.0882L297.695 48.2402V88.3178H303V42.3682H297.695Z" fill="#FEE6C8"/>
<path d="M255.759 86.7977C254.848 86.4817 254.273 86.1098 254.046 85.6951C253.81 85.2211 253.691 84.4048 253.691 83.2659V42.1812H228.002V42.9448L228.193 42.9514C231.154 43.0764 232.594 44.7419 232.594 48.0466C232.594 52.8885 232.045 58.5367 230.96 64.8367C229.586 72.7133 227.67 78.773 225.264 82.8446C224.689 83.7531 223.89 84.7603 222.891 85.8432C222.013 86.8438 221.218 87.3507 220.524 87.3507H216.551V96.3135H217.313L217.386 95.0167C217.793 92.7356 219.009 91.001 220.998 89.8621C223.059 88.7101 226.306 88.1242 230.654 88.1242H247.075C249.517 88.1242 251.598 88.3118 253.267 88.6838C256.978 89.3783 259.19 91.4849 259.838 94.9245L259.91 96.3102H260.676V87.354L260.485 87.3474C258.326 87.2717 256.735 87.0841 255.759 86.7977ZM225.662 84.1941C227.423 81.3799 228.787 78.3089 229.711 75.0733C230.674 71.7654 231.565 67.5621 232.36 62.5754C232.738 60.1035 233.034 57.5789 233.244 55.0609C233.537 50.8576 233.704 48.2046 233.747 47.181C233.872 44.8736 233.918 44.031 233.931 43.7315L234.483 43.5833C236.005 43.1686 237.491 42.9579 238.898 42.9579H243.049C245.248 42.9579 247.042 43.2114 248.386 43.715V86.4159C246.773 87.0413 243.328 87.3573 238.142 87.3573H222.95C223.999 86.4225 224.909 85.3593 225.662 84.1941Z" fill="#FEE6C8"/>
<path d="M218.581 64.8661C218.581 62.5916 218.325 60.3534 217.822 58.2106C217.359 56.058 216.527 53.8987 215.347 51.7889C214.167 49.679 212.691 47.816 210.966 46.2591C209.24 44.6956 206.995 43.4119 204.294 42.4376C201.608 41.4699 198.558 40.9795 195.229 40.9795C191.949 40.9795 188.918 41.493 186.226 42.5035C183.571 43.5173 181.349 44.8635 179.62 46.5093C177.898 48.1089 176.422 49.9917 175.242 52.1016C174.065 54.2048 173.211 56.3641 172.705 58.5167C172.198 60.6233 171.945 62.7595 171.945 64.8661C171.945 69.2899 172.967 73.4734 174.986 77.3014C176.672 80.718 179.235 83.5224 182.611 85.6356C185.977 87.7027 190.223 88.7724 195.235 88.8185C198.562 88.8185 201.651 88.305 204.428 87.2912C207.206 86.2379 209.516 84.8259 211.291 83.0912C213.773 80.6489 215.649 77.7623 216.875 74.5135C218.092 71.2352 218.667 67.9897 218.581 64.8661ZM177.75 64.8694C177.75 57.763 179.281 52.0555 182.305 47.9114C185.313 43.8267 189.664 41.7563 195.232 41.7563C200.718 41.7563 205.066 43.9122 208.156 48.1649C211.219 52.4801 212.774 58.102 212.774 64.8727C212.774 68.9048 212.143 72.6966 210.897 76.1461C209.615 79.7043 207.564 82.6238 204.797 84.8127C202.078 86.9588 198.857 88.0483 195.232 88.0483C191.485 88.0483 188.248 86.9193 185.605 84.6909C180.392 80.4218 177.75 73.7565 177.75 64.8694Z" fill="#FEE6C8"/>
<path d="M168.669 83.8549C168.469 86.3564 167.667 87.5743 166.224 87.5743C165.33 87.5743 164.604 87.0312 164.002 85.9055C163.512 85.1287 163.223 84.5757 163.141 84.2466C163.056 83.9865 162.865 83.5455 162.572 82.9135C162.316 82.2717 162.155 81.8405 162.066 81.587C161.678 80.6819 161.258 79.6648 160.811 78.5687C160.393 77.4397 160.137 76.7781 160.055 76.6102C158.881 73.7532 157.432 71.3175 155.746 69.3755C154.346 67.6803 152.784 66.3308 151.105 65.3664C149.563 64.4184 147.581 63.6811 145.205 63.1775C147.345 62.7365 149.051 61.7721 150.27 60.3106C151.026 59.4285 151.904 58.0395 152.876 56.1765C153.793 54.297 154.727 52.0423 155.65 49.4848C156.686 46.9536 157.586 45.1663 158.333 44.1756C159.138 43.0861 160.176 42.5562 161.508 42.5562C163.065 42.5562 164.472 43.4383 165.685 45.1795L165.971 45.5876L166.444 42.4311L166.319 42.3652C164.959 41.6411 163.614 41.2725 162.326 41.2725C160.64 41.2725 159.194 41.9077 158.03 43.1618C157.208 44.0275 156.291 45.716 155.223 48.3262L152.518 54.7545C151.69 56.7426 150.707 58.4015 149.59 59.6852C147.92 61.726 145.642 62.7595 142.822 62.7595H135.723V42.283H130.418V88.2326H135.723V63.5363H142.822C144.4 63.5363 145.751 64.0465 146.842 65.057C147.996 66.0905 149.271 67.9371 150.635 70.544C151.052 71.3767 151.976 73.3911 153.462 76.7057C154.97 80.1881 156.459 83.0188 157.882 85.1188C159.634 87.7718 161.889 89.1147 164.591 89.1147C167.68 89.1147 169.314 87.3538 169.445 83.8845L169.452 83.6771H168.686L168.669 83.8549Z" fill="#FEE6C8"/>
</svg>
