<svg width="518" height="243" viewBox="0 0 518 243" fill="none" xmlns="http://www.w3.org/2000/svg">
<mask id="mask0_1233_2145" style="mask-type:alpha" maskUnits="userSpaceOnUse" x="0" y="0" width="518" height="243">
<rect width="518" height="243" fill="#D9D9D9"/>
</mask>
<g mask="url(#mask0_1233_2145)">
<path d="M223.627 -107L517.154 186.526L294 409.68L0.473755 116.153L69.9636 46.6636L95.2013 71.9013L50.8304 116.272L293.881 359.323L466.794 186.41L223.743 -56.6406L178.162 -11.0596L152.924 -36.2973L223.627 -107Z" fill="url(#paint0_linear_1233_2145)"/>
<path d="M223.627 -107L517.154 186.526L294 409.68L0.473755 116.153L69.9636 46.6636L95.2013 71.9013L50.8304 116.272L293.881 359.323L466.794 186.41L223.743 -56.6406L178.162 -11.0596L152.924 -36.2973L223.627 -107Z" fill="url(#paint1_radial_1233_2145)"/>
<path d="M223.627 -107L517.154 186.526L294 409.68L0.473755 116.153L69.9636 46.6636L95.2013 71.9013L50.8304 116.272L293.881 359.323L466.794 186.41L223.743 -56.6406L178.162 -11.0596L152.924 -36.2973L223.627 -107Z" fill="url(#paint2_radial_1233_2145)" fill-opacity="0.11"/>
</g>
<defs>
<linearGradient id="paint0_linear_1233_2145" x1="250.879" y1="366.558" x2="766.6" y2="382.498" gradientUnits="userSpaceOnUse">
<stop stop-color="#0D0533"/>
<stop offset="1" stop-color="#FEE6C8"/>
</linearGradient>
<radialGradient id="paint1_radial_1233_2145" cx="0" cy="0" r="1" gradientUnits="userSpaceOnUse" gradientTransform="translate(649.881 520.812) rotate(-128.323) scale(750.428 573.03)">
<stop stop-color="#FEE6C8" stop-opacity="0"/>
<stop offset="1" stop-color="#0D0533"/>
</radialGradient>
<radialGradient id="paint2_radial_1233_2145" cx="0" cy="0" r="1" gradientUnits="userSpaceOnUse" gradientTransform="translate(523 183.5) rotate(169.954) scale(217.84 216.458)">
<stop stop-color="#FEE6C8"/>
<stop offset="1" stop-color="#FEE6C8" stop-opacity="0"/>
</radialGradient>
</defs>
</svg>
