<svg width="105" height="105" viewBox="0 0 105 105" fill="none" xmlns="http://www.w3.org/2000/svg">
<path d="M58.5759 19.2004C58.3063 19.2004 58.085 18.9838 58.085 18.7094C58.085 18.4398 58.3063 18.2184 58.5759 18.2184C58.8503 18.2184 59.0669 18.4398 59.0669 18.7094C59.0669 18.9838 58.8503 19.2004 58.5759 19.2004ZM56.3572 19.2004C56.0876 19.2004 55.8663 18.9838 55.8663 18.7094C55.8663 18.4398 56.0876 18.2184 56.3572 18.2184C56.6316 18.2184 56.8482 18.4398 56.8482 18.7094C56.8482 18.9838 56.6316 19.2004 56.3572 19.2004ZM54.1381 19.2004C53.8689 19.2004 53.6476 18.9838 53.6476 18.7094C53.6476 18.4398 53.8689 18.2184 54.1381 18.2184C54.4077 18.2184 54.6295 18.4398 54.6295 18.7094C54.6295 18.9838 54.4077 19.2004 54.1381 19.2004ZM51.949 19.1951C51.6923 19.1774 51.4882 18.9747 51.4882 18.7094C51.4882 18.4489 51.6923 18.2419 51.949 18.2237C52.2062 18.2419 52.4103 18.4489 52.4103 18.7094C52.4103 18.9747 52.2062 19.1774 51.949 19.1951ZM49.76 19.2004C49.4908 19.2004 49.269 18.9838 49.269 18.7094C49.269 18.4398 49.4908 18.2184 49.76 18.2184C50.0296 18.2184 50.2509 18.4398 50.2509 18.7094C50.2509 18.9838 50.0296 19.2004 49.76 19.2004ZM47.5413 19.2004C47.2668 19.2004 47.0503 18.9838 47.0503 18.7094C47.0503 18.4398 47.2668 18.2184 47.5413 18.2184C47.8109 18.2184 48.0322 18.4398 48.0322 18.7094C48.0322 18.9838 47.8109 19.2004 47.5413 19.2004ZM45.3226 19.2004C45.0482 19.2004 44.8316 18.9838 44.8316 18.7094C44.8316 18.4398 45.0482 18.2184 45.3226 18.2184C45.5922 18.2184 45.8135 18.4398 45.8135 18.7094C45.8135 18.9838 45.5922 19.2004 45.3226 19.2004ZM57.8684 12.0385C57.7145 12.5199 57.7479 13.0396 57.931 13.5114C58.2389 14.3007 58.5712 15.7545 57.3535 16.5868C55.6205 17.7805 53.9363 16.2354 53.6184 14.479C53.2914 12.6882 53.7245 11.3888 55.1348 10.9557C56.5399 10.5226 51.9213 2.99976 51.9213 2.99976C51.9213 2.99976 47.3586 10.5226 48.7637 10.9557C50.174 11.3888 50.6071 12.6882 50.2801 14.479C49.9622 16.2354 48.2775 17.7805 46.545 16.5868C45.3273 15.7545 45.6596 14.3007 45.9675 13.5114C46.1506 13.0396 46.184 12.5199 46.0301 12.0385C44.8507 8.3665 39.3448 8.41431 39.3448 8.41431C44.7063 15.8315 44.6485 20.0523 44.6485 20.0523H59.25C59.25 20.0523 59.1917 15.8315 64.5536 8.41431C64.5536 8.41431 59.0478 8.3665 57.8684 12.0385Z" fill="white"/>
<path d="M58.4078 21.084H45.49C45.0564 21.084 44.705 21.4354 44.705 21.869C44.705 22.3026 45.0564 22.6544 45.49 22.6544H58.4078C58.8414 22.6544 59.1927 22.3026 59.1927 21.869C59.1927 21.4354 58.8414 21.084 58.4078 21.084Z" fill="white"/>
<path d="M58.5759 19.2004C58.3063 19.2004 58.085 18.9838 58.085 18.7094C58.085 18.4398 58.3063 18.2184 58.5759 18.2184C58.8503 18.2184 59.0669 18.4398 59.0669 18.7094C59.0669 18.9838 58.8503 19.2004 58.5759 19.2004ZM56.3572 19.2004C56.0876 19.2004 55.8663 18.9838 55.8663 18.7094C55.8663 18.4398 56.0876 18.2184 56.3572 18.2184C56.6316 18.2184 56.8482 18.4398 56.8482 18.7094C56.8482 18.9838 56.6316 19.2004 56.3572 19.2004ZM54.1381 19.2004C53.8689 19.2004 53.6476 18.9838 53.6476 18.7094C53.6476 18.4398 53.8689 18.2184 54.1381 18.2184C54.4077 18.2184 54.6295 18.4398 54.6295 18.7094C54.6295 18.9838 54.4077 19.2004 54.1381 19.2004ZM51.949 19.1951C51.6923 19.1774 51.4882 18.9747 51.4882 18.7094C51.4882 18.4489 51.6923 18.2419 51.949 18.2237C52.2062 18.2419 52.4103 18.4489 52.4103 18.7094C52.4103 18.9747 52.2062 19.1774 51.949 19.1951ZM49.76 19.2004C49.4908 19.2004 49.269 18.9838 49.269 18.7094C49.269 18.4398 49.4908 18.2184 49.76 18.2184C50.0296 18.2184 50.2509 18.4398 50.2509 18.7094C50.2509 18.9838 50.0296 19.2004 49.76 19.2004ZM47.5413 19.2004C47.2668 19.2004 47.0503 18.9838 47.0503 18.7094C47.0503 18.4398 47.2668 18.2184 47.5413 18.2184C47.8109 18.2184 48.0322 18.4398 48.0322 18.7094C48.0322 18.9838 47.8109 19.2004 47.5413 19.2004ZM45.3226 19.2004C45.0482 19.2004 44.8316 18.9838 44.8316 18.7094C44.8316 18.4398 45.0482 18.2184 45.3226 18.2184C45.5922 18.2184 45.8135 18.4398 45.8135 18.7094C45.8135 18.9838 45.5922 19.2004 45.3226 19.2004ZM57.8684 12.0385C57.7145 12.5199 57.7479 13.0396 57.931 13.5114C58.2389 14.3007 58.5712 15.7545 57.3535 16.5868C55.6205 17.7805 53.9363 16.2354 53.6184 14.479C53.2914 12.6882 53.7245 11.3888 55.1348 10.9557C56.5399 10.5226 51.9213 2.99976 51.9213 2.99976C51.9213 2.99976 47.3586 10.5226 48.7637 10.9557C50.174 11.3888 50.6071 12.6882 50.2801 14.479C49.9622 16.2354 48.2775 17.7805 46.545 16.5868C45.3273 15.7545 45.6596 14.3007 45.9675 13.5114C46.1506 13.0396 46.184 12.5199 46.0301 12.0385C44.8507 8.3665 39.3448 8.41431 39.3448 8.41431C44.7063 15.8315 44.6485 20.0523 44.6485 20.0523H59.25C59.25 20.0523 59.1917 15.8315 64.5536 8.41431C64.5536 8.41431 59.0478 8.3665 57.8684 12.0385Z" fill="white"/>
<path d="M58.4078 21.084H45.49C45.0564 21.084 44.705 21.4354 44.705 21.869C44.705 22.3026 45.0564 22.6544 45.49 22.6544H58.4078C58.8414 22.6544 59.1927 22.3026 59.1927 21.869C59.1927 21.4354 58.8414 21.084 58.4078 21.084Z" fill="white"/>
<path d="M53.4053 24.9599C52.8589 24.2753 51.8612 24.163 51.1761 24.7094C50.4915 25.2558 50.3792 26.2536 50.9256 26.9386C51.4715 27.6232 52.4697 27.7356 53.1543 27.1891C53.8394 26.6427 53.9517 25.645 53.4053 24.9599Z" fill="white"/>
<path d="M45.5627 25.7998C45.3213 26.0144 45.2921 26.3084 45.283 26.6134C45.2759 26.8692 44.9565 26.8783 44.8686 26.6694C44.7184 26.3137 44.7878 25.9088 45.0507 25.6214C45.2094 25.4484 45.6516 25.1917 45.851 25.4379C45.9633 25.577 45.6335 25.7362 45.5627 25.7998ZM45.6449 24.8953C44.7691 24.8953 44.0587 25.6052 44.0587 26.481C44.0587 27.3573 44.7691 28.0672 45.6449 28.0672C46.5207 28.0672 47.2311 27.3573 47.2311 26.481C47.2311 25.6052 46.5207 24.8953 45.6449 24.8953Z" fill="white"/>
<path d="M39.7683 27.5416C39.6273 27.7314 39.4151 27.8371 39.2874 28.0455C39.154 28.2644 39.089 28.5293 39.0379 28.7784C39.0025 28.9519 38.7085 28.9595 38.6793 28.7784C38.621 28.4141 38.664 28.0747 38.8863 27.7696C39.0627 27.5273 39.3749 27.2944 39.6876 27.3427C39.7688 27.3552 39.8176 27.4761 39.7683 27.5416ZM39.8821 26.879C39.0331 26.6634 38.1702 27.1768 37.9546 28.0259C37.739 28.8749 38.2524 29.7378 39.1014 29.9534C39.9505 30.169 40.8134 29.6556 41.0295 28.8066C41.2446 27.9575 40.7312 27.0946 39.8821 26.879Z" fill="white"/>
<path d="M34.0672 30.6098C33.908 30.7805 33.7034 30.8646 33.5772 31.075C33.4572 31.2743 33.407 31.5387 33.4194 31.7682C33.4314 31.9809 33.1373 31.9895 33.0723 31.815C32.9423 31.4627 32.9925 31.1237 33.2004 30.8111C33.3649 30.5634 33.6909 30.301 34.0065 30.3799C34.1102 30.4057 34.1355 30.5362 34.0672 30.6098ZM33.9242 30.0017C33.0484 30.0017 32.338 30.7116 32.338 31.5879C32.338 32.4637 33.0484 33.1741 33.9242 33.1741C34.8 33.1741 35.5104 32.4637 35.5104 31.5879C35.5104 30.7116 34.8 30.0017 33.9242 30.0017Z" fill="white"/>
<path d="M29.4066 34.5878C29.2278 34.7101 29.0385 34.7618 28.8903 34.932C28.745 35.0983 28.6742 35.3149 28.6235 35.5267C28.5767 35.7213 28.2459 35.7385 28.2119 35.5267C28.1541 35.1643 28.2535 34.8249 28.5251 34.5672C28.7445 34.3597 29.1241 34.2101 29.4066 34.3698C29.4936 34.419 29.4821 34.5357 29.4066 34.5878ZM29.1762 33.7478C28.2999 33.7478 27.59 34.4577 27.59 35.334C27.59 36.2098 28.2999 36.9198 29.1762 36.9198C30.052 36.9198 30.7619 36.2098 30.7619 35.334C30.7619 34.4577 30.052 33.7478 29.1762 33.7478Z" fill="white"/>
<path d="M25.3139 38.8787C25.0171 39.0814 24.7833 39.2301 24.7427 39.6326C24.7255 39.7995 24.4745 39.8607 24.4314 39.6747C24.3554 39.3492 24.4343 39.0633 24.6886 38.8391C24.8474 38.6985 25.1017 38.5532 25.3139 38.6521C25.41 38.6971 25.3876 38.8281 25.3139 38.8787ZM25.4086 38.197C24.5328 38.197 23.8224 38.9069 23.8224 39.7832C23.8224 40.6591 24.5328 41.3695 25.4086 41.3695C26.2844 41.3695 26.9948 40.6591 26.9948 39.7832C26.9948 38.9069 26.2844 38.197 25.4086 38.197Z" fill="white"/>
<path d="M22.1469 44.3975C22.0154 44.5218 21.8605 44.6054 21.7577 44.7584C21.6554 44.9105 21.589 45.1112 21.5546 45.2886C21.5201 45.4664 21.284 45.3986 21.2663 45.2499C21.2103 44.779 21.534 44.1972 22.0737 44.2211C22.1598 44.2249 22.2148 44.3334 22.1469 44.3975ZM22.2372 43.7478C21.3614 43.7478 20.6515 44.4582 20.6515 45.334C20.6515 46.2098 21.3614 46.9202 22.2372 46.9202C23.1135 46.9202 23.8234 46.2098 23.8234 45.334C23.8234 44.4582 23.1135 43.7478 22.2372 43.7478Z" fill="white"/>
<path d="M20.2879 51.0769C20.1717 51.2518 19.9796 51.3518 19.8672 51.5349C19.7486 51.7275 19.7324 51.9599 19.6908 52.1774C19.6497 52.3935 19.3657 52.3433 19.3017 52.1774C19.1831 51.8738 19.2491 51.5444 19.4307 51.2796C19.5813 51.0597 19.8739 50.8163 20.1569 50.8488C20.2616 50.8608 20.3577 50.9712 20.2879 51.0769ZM20.2372 50.4587C19.3614 50.4587 18.6515 51.1691 18.6515 52.045C18.6515 52.9208 19.3614 53.6312 20.2372 53.6312C21.1135 53.6312 21.8234 52.9208 21.8234 52.045C21.8234 51.1691 21.1135 50.4587 20.2372 50.4587Z" fill="white"/>
<path d="M19.7128 57.6881C19.5407 57.7713 19.3609 57.81 19.2338 57.9634C19.1056 58.1179 19.0693 58.3292 19.0167 58.5185C18.9689 58.692 18.695 58.704 18.6539 58.5185C18.5272 57.951 18.9909 57.1139 19.6726 57.3821C19.7936 57.4294 19.8562 57.6183 19.7128 57.6881ZM19.6205 56.8357C18.7447 56.8357 18.0343 57.5461 18.0343 58.4219C18.0343 59.2977 18.7447 60.0081 19.6205 60.0081C20.4968 60.0081 21.2067 59.2977 21.2067 58.4219C21.2067 57.5461 20.4968 56.8357 19.6205 56.8357Z" fill="white"/>
<path d="M19.7092 34.9595C19.2316 36.7273 18.1621 38.271 17.7912 40.07C17.7754 40.1464 17.653 40.1283 17.6559 40.0518C17.7195 38.5229 18.3959 37.1772 18.8912 35.7545C19.5136 33.966 19.7168 30.0067 19.7656 30.218C20.1342 31.8085 20.1361 33.379 19.7092 34.9595ZM15.899 65.7812C15.9893 65.8147 12.4756 65.0756 10.2822 62.4773C7.25368 58.8894 6.5734 56.2472 6.68048 56.4437C8.68453 60.1133 11.8388 64.2987 15.899 65.7812ZM12.9178 39.1707C12.912 42.7992 11.5625 46.1261 11.0352 49.6728C10.4921 53.3257 11.8302 56.7998 13.9112 59.7528C13.9595 59.8212 13.8495 59.9044 13.796 59.8417C11.7236 57.4337 10.4027 54.2407 10.288 51.0501C10.1421 47.0038 12.9183 38.8844 12.9178 39.1707ZM13.622 46.1026C12.3886 53.6312 13.7592 56.0727 13.7291 56.0316C10.7636 52.045 13.6683 45.8187 13.622 46.1026ZM40.0264 19.136C39.1138 15.8441 35.3323 15.6313 33.0931 17.7472C31.7918 18.9778 30.9375 20.498 30.3394 22.1402C29.597 20.2494 27.7344 18.9998 25.4541 19.8498C24.1145 20.3489 22.8457 21.5531 22.4991 22.9691C22.2926 23.7986 22.436 24.7389 22.9366 25.4006C23.2134 25.8638 23.7149 26.1769 24.2933 26.1769C25.1696 26.1769 25.8795 25.4665 25.8795 24.5907C25.8795 23.7149 25.1696 23.005 24.2933 23.005C24.0906 23.005 23.8984 23.0466 23.7201 23.1159C23.9424 22.296 24.5835 21.567 25.5129 21.0946C27.5102 20.0725 29.39 21.5005 29.531 23.5973C29.748 26.8754 26.8639 30.3471 24.661 32.4501C23.1866 33.8542 21.6649 35.3935 20.3197 37.0735C21.2959 35.6536 21.8743 33.7834 21.6248 32.0581C21.5038 31.2224 21.1768 30.3896 20.5553 29.8016C20.2867 29.5478 19.9898 29.3379 19.7221 29.074C19.5165 28.8713 18.7435 28.4176 18.6526 28.2015C19.9668 31.329 18.3854 35.2941 17.3298 38.3069C16.8245 39.7406 16.2312 41.1384 15.5557 42.4957C15.4616 42.6778 15.3559 42.8595 15.2383 43.0478C15.5567 40.7455 15.3325 38.3676 14.6206 36.157C14.2616 35.0417 13.7764 33.966 13.1635 32.9674C12.8934 32.5271 12.6439 32.0868 12.3828 31.6446C12.1835 31.308 11.5453 30.8089 11.4487 30.4819C11.562 30.8653 11.6466 31.254 11.7202 31.6469C12.4708 35.6622 10.7354 39.9662 9.64735 43.7673C8.53633 47.6501 7.50945 51.9398 9.15255 55.8308C8.81121 55.8308 7.89381 54.7594 7.63852 54.5123C7.14134 54.0313 6.67427 53.5136 6.30903 52.9227C5.4858 51.5903 5.38636 50.4377 5.25394 48.8941C4.08172 50.7834 4.25144 53.6341 4.70177 55.718C5.18032 57.9309 6.20146 60.0258 7.66051 61.7578C9.04068 63.3966 10.8267 64.554 12.63 65.676C13.3877 66.146 14.0929 66.6513 14.7918 67.1743C13.7109 66.8626 12.5712 66.7512 11.3789 66.9333C7.74274 67.497 5.36342 70.9395 5.55703 74.5231C5.75686 78.1416 8.30638 81.4139 12.248 80.4386C15.6791 79.5925 16.7533 74.1641 13.1845 73.305C13.1468 73.2959 13.1071 73.2983 13.0674 73.3069C12.9804 73.2921 12.8929 73.2801 12.8021 73.2801C11.9263 73.2801 11.2164 73.99 11.2164 74.8663C11.2164 75.7421 11.9263 76.4521 12.8021 76.4521C13.4685 76.4521 14.0365 76.0409 14.2712 75.4591C14.6971 76.8183 14.0365 78.4446 12.5301 79.1049C10.2335 80.1155 7.93062 78.8113 7.14325 76.5788C5.75686 72.6491 8.0597 68.0491 12.5066 68.0138C15.9803 67.9865 19.1058 70.8291 21.4493 73.1171C23.9462 75.5552 26.3055 78.0512 29.0854 80.1633C29.3149 80.3373 29.5133 80.4501 29.7844 80.366C26.2792 75.9028 23.603 73.1601 22.4499 71.6552C20.2542 68.7901 18.8238 65.9471 17.6066 62.5514C15.7957 57.5006 15.2579 51.8896 16.6472 46.6672C17.25 44.4012 18.2143 42.2222 19.5853 40.2105C20.878 38.3131 22.1468 36.4448 23.7976 34.8586C26.3069 32.4405 29.1782 29.7481 30.2701 26.3137C30.4269 25.8184 30.5416 25.3245 30.6181 24.8159C31.3118 22.2219 32.614 19.2809 34.5994 18.0341C36.3802 16.9178 38.6396 17.6024 38.9838 19.8196C39.1463 20.8489 38.9321 21.796 38.3991 22.4566C38.3508 22.2716 38.2714 22.0919 38.1524 21.9274C37.6385 21.218 36.6465 21.0597 35.9375 21.5737C35.2281 22.0876 35.0698 23.0791 35.5838 23.7885C35.9232 24.2575 36.4711 24.4793 37.0089 24.432C37.8378 24.4492 38.6835 24.0132 39.2343 23.3592C40.1775 22.2477 40.4079 20.5138 40.0264 19.136Z" fill="white"/>
<path d="M84.7089 30.218C84.7576 30.0067 84.9608 33.966 85.5832 35.7545C86.0785 37.1772 86.755 38.5229 86.8186 40.0518C86.8214 40.1283 86.699 40.1464 86.6833 40.07C86.3123 38.271 85.2429 36.7273 84.7653 34.9594C84.3384 33.379 84.3407 31.8085 84.7089 30.218ZM97.794 56.4436C97.901 56.2472 97.2208 58.8894 94.1922 62.4773C91.9993 65.0756 88.4851 65.8147 88.5754 65.7812C92.6356 64.2987 95.7899 60.1133 97.794 56.4436ZM94.1865 51.0501C94.0717 54.2407 92.7509 57.4337 90.6784 59.8417C90.6249 59.9044 90.5149 59.8212 90.5632 59.7528C92.6442 56.7998 93.9823 53.3257 93.4393 49.6728C92.912 46.1261 91.5624 42.7992 91.5567 39.1707C91.5562 38.8844 94.3323 47.0038 94.1865 51.0501ZM90.7459 56.0316C90.7153 56.0727 92.0859 53.6312 90.8525 46.1026C90.8061 45.8187 93.7108 52.045 90.7459 56.0316ZM65.2402 23.3592C65.7909 24.0132 66.6366 24.4492 67.4656 24.432C68.0034 24.4793 68.5512 24.2575 68.8907 23.7885C69.4046 23.0791 69.2463 22.0876 68.5369 21.5737C67.8279 21.0597 66.8359 21.218 66.322 21.9274C66.203 22.0919 66.1241 22.2716 66.0753 22.4566C65.5423 21.796 65.3281 20.8489 65.4907 19.8196C65.8354 17.6024 68.0942 16.9178 69.875 18.0341C71.8604 19.2809 73.1627 22.2219 73.8568 24.8159C73.9328 25.3245 74.0471 25.8184 74.1986 26.2964C75.2963 29.7481 78.167 32.4405 80.6769 34.8586C82.3276 36.4448 83.5969 38.3131 84.8891 40.2105C86.2602 42.2222 87.2244 44.4012 87.8273 46.6672C89.2165 51.8896 88.6787 57.5006 86.8678 62.5514C85.6506 65.9471 84.2203 68.7901 82.0245 71.6552C80.8714 73.1601 78.1952 75.9028 74.6901 80.366C74.9611 80.4501 75.1595 80.3373 75.389 80.1633C78.1689 78.0512 80.5282 75.5552 83.0251 73.1171C85.3686 70.8291 88.4937 67.9865 91.9678 68.0138C96.4147 68.0491 98.7176 72.6491 97.3312 76.5788C96.5438 78.8113 94.241 80.1155 91.9444 79.1048C90.438 78.4446 89.7773 76.8183 90.2032 75.4591C90.4385 76.0409 91.0064 76.4521 91.6723 76.4521C92.5482 76.4521 93.2581 75.7421 93.2581 74.8663C93.2581 73.99 92.5482 73.2801 91.6723 73.2801C91.5815 73.2801 91.494 73.2921 91.4075 73.3069C91.3673 73.2983 91.3277 73.2959 91.2899 73.305C87.7211 74.1641 88.7958 79.5925 92.2259 80.4386C96.1681 81.4139 98.7176 78.1416 98.9169 74.5231C99.111 70.9395 96.7322 67.497 93.0955 66.9333C91.9032 66.7512 90.7635 66.8626 89.6826 67.1743C90.3816 66.6513 91.0867 66.146 91.8444 65.676C93.6477 64.554 95.4337 63.3966 96.8144 61.7578C98.273 60.0258 99.2941 57.9309 99.7727 55.718C100.223 53.6341 100.393 50.7834 99.2205 48.8941C99.0881 50.4377 98.9886 51.5903 98.1654 52.9227C97.7997 53.5136 97.3331 54.0313 96.8354 54.5123C96.5806 54.7594 95.6632 55.8308 95.3219 55.8308C96.965 51.9398 95.9381 47.6501 94.8271 43.7673C93.739 39.9662 92.0036 35.6622 92.7547 31.6469C92.8278 31.254 92.9124 30.8653 93.0257 30.4819C92.9292 30.8089 92.291 31.308 92.0916 31.6446C91.8306 32.0868 91.581 32.5271 91.3109 32.9674C90.698 33.966 90.2133 35.0417 89.8538 36.157C89.1419 38.3676 88.9182 40.7455 89.2361 43.0478C89.1185 42.8595 89.0129 42.6778 88.9187 42.4957C88.2432 41.1384 87.6499 39.7406 87.1446 38.3069C86.0895 35.2941 84.5076 31.329 85.8218 28.2015C85.731 28.4176 84.9579 28.8713 84.7524 29.074C84.4846 29.3379 84.1878 29.5478 83.9191 29.8016C83.2976 30.3896 82.9706 31.2224 82.8497 32.0581C82.6001 33.7834 83.1786 35.6536 84.1548 37.0735C82.8095 35.3935 81.2878 33.8542 79.8135 32.4501C77.6106 30.3471 74.7264 26.8754 74.9434 23.5973C75.0845 21.5005 76.9642 20.0725 78.9616 21.0946C79.8904 21.567 80.532 22.296 80.7543 23.1159C80.576 23.0466 80.3838 23.005 80.1811 23.005C79.3048 23.005 78.5949 23.7149 78.5949 24.5907C78.5949 25.4665 79.3048 26.1769 80.1811 26.1769C80.76 26.1769 81.2611 25.8638 81.5379 25.4006C82.0384 24.7389 82.1818 23.7986 81.9753 22.9691C81.6287 21.5531 80.3599 20.3489 79.0204 19.8498C76.74 18.9998 74.8775 20.2494 74.135 22.1402C73.537 20.498 72.6827 18.9778 71.3814 17.7472C69.1421 15.6313 65.3606 15.8441 64.448 19.136C64.0665 20.5138 64.297 22.2477 65.2402 23.3592Z" fill="white"/>
<path d="M20.1926 31.3286C20.1745 31.1852 20.0416 31.1221 19.9345 31.1465C20.0903 32.2503 20.064 33.3475 19.8303 34.448C19.8723 34.4308 19.912 34.4026 19.9431 34.3548C20.4694 33.5468 20.3098 32.2322 20.1926 31.3286Z" fill="white"/>
<path d="M22.7001 30.447C22.7001 30.0555 23.0175 29.738 23.409 29.738C23.8006 29.738 24.118 30.0555 24.118 30.447C24.118 30.8385 23.8006 31.156 23.409 31.156C23.0175 31.156 22.7001 30.8385 22.7001 30.447Z" fill="white"/>
<path d="M10.4484 70.6604C10.4484 70.2693 10.7653 69.9519 11.1569 69.9519C11.5484 69.9519 11.8658 70.2693 11.8658 70.6604C11.8658 71.0519 11.5484 71.3694 11.1569 71.3694C10.7653 71.3694 10.4484 71.0519 10.4484 70.6604Z" fill="white"/>
<path d="M8.20227 73.3201C8.20227 72.9285 8.51971 72.6111 8.91124 72.6111C9.30277 72.6111 9.62021 72.9285 9.62021 73.3201C9.62021 73.7116 9.30277 74.0285 8.91124 74.0285C8.51971 74.0285 8.20227 73.7116 8.20227 73.3201Z" fill="white"/>
<path d="M9.16125 77.0993C9.16125 76.7078 9.47869 76.3904 9.87022 76.3904C10.2618 76.3904 10.5792 76.7078 10.5792 77.0993C10.5792 77.4909 10.2618 77.8083 9.87022 77.8083C9.47869 77.8083 9.16125 77.4909 9.16125 77.0993Z" fill="white"/>
<path d="M14.2814 70.6604C14.2814 70.2693 14.5988 69.9519 14.9903 69.9519C15.3819 69.9519 15.6993 70.2693 15.6993 70.6604C15.6993 71.0519 15.3819 71.3694 14.9903 71.3694C14.5988 71.3694 14.2814 71.0519 14.2814 70.6604Z" fill="white"/>
<path d="M17.3251 73.3201C17.3251 72.9285 17.642 72.6111 18.0336 72.6111C18.4251 72.6111 18.7425 72.9285 18.7425 73.3201C18.7425 73.7116 18.4251 74.0285 18.0336 74.0285C17.642 74.0285 17.3251 73.7116 17.3251 73.3201Z" fill="white"/>
<path d="M19.6027 75.9529C19.6027 75.5613 19.9201 75.2439 20.3116 75.2439C20.7027 75.2439 21.0206 75.5613 21.0206 75.9529C21.0206 76.3444 20.7027 76.6618 20.3116 76.6618C19.9201 76.6618 19.6027 76.3444 19.6027 75.9529Z" fill="white"/>
<path d="M22.7001 78.5159C22.7001 78.1248 23.0175 77.8074 23.409 77.8074C23.8006 77.8074 24.118 78.1248 24.118 78.5159C24.118 78.9074 23.8006 79.2248 23.409 79.2248C23.0175 79.2248 22.7001 78.9074 22.7001 78.5159Z" fill="white"/>
<path d="M24.9034 28.0676C24.9034 27.6761 25.2209 27.3591 25.6124 27.3591C26.0039 27.3591 26.3214 27.6761 26.3214 28.0676C26.3214 28.4592 26.0039 28.7766 25.6124 28.7766C25.2209 28.7766 24.9034 28.4592 24.9034 28.0676Z" fill="white"/>
<path d="M9.8694 65.1648C9.91338 65.2967 7.17981 68.0728 4.36115 67.5441C1.542 67.0154 2.37957 63.4906 0.000244141 62.9619C0.000244141 62.9619 2.42355 61.7724 4.9353 64.1953C7.06508 66.2505 9.8694 65.1648 9.8694 65.1648Z" fill="white"/>
<path d="M52.1661 100.664C48.9884 94.8547 52.1661 94.7725 52.1661 94.7725C52.1661 94.7725 55.3443 94.8547 52.1661 100.664ZM57.0892 97.0634C56.5605 96.0351 56.1317 94.9193 55.3094 94.1085C54.4866 93.2977 53.1065 92.7751 52.1661 93.4444C51.2262 92.7751 49.8461 93.2977 49.0233 94.1085C48.201 94.9193 47.7722 96.0351 47.2435 97.0634C46.7147 98.0912 45.9924 99.1253 44.8995 99.4953C46.3916 100.042 48.1542 99.7654 49.411 98.7906C49.9221 100.464 50.8916 101.692 52.1661 102.891C53.4411 101.692 54.4101 100.464 54.9217 98.7906C56.1785 99.7654 57.9411 100.042 59.4332 99.4953C58.3403 99.1253 57.618 98.0912 57.0892 97.0634Z" fill="white"/>
<path d="M29.32 86.687C20.6077 84.4162 15.6469 89.4985 15.776 89.2958C18.0601 85.7098 23.6683 84.9894 27.5119 85.4287C33.4485 86.1071 38.7919 89.2604 44.8504 89.1887C45.2443 89.1839 44.2791 90.5861 29.32 86.687ZM33.9907 90.479C29.1216 90.1238 26.3053 92.6948 26.3651 92.6164C30.0146 87.8214 35.0037 90.0573 41.1497 90.7118C41.4896 90.7481 39.5855 90.8873 33.9907 90.479ZM20.1827 83.4381C23.3289 81.9824 27.1807 82.6622 30.3779 83.604C30.6949 83.6977 26.7906 83.4596 25.0313 83.3759C23.4135 83.2989 20.0379 83.5055 20.1827 83.4381ZM54.0498 80.6376C52.9268 79.147 51.2081 78.2329 49.3451 78.1287C48.008 78.0541 45.7095 78.492 45.1707 80.3144C45.1281 80.4583 45.1081 80.7332 45.1219 81.0014C45.1209 81.0248 45.1152 81.0463 45.1152 81.0697C45.1152 81.9455 45.8251 82.6559 46.701 82.6559C47.5768 82.6559 48.2872 81.9455 48.2872 81.0697C48.2872 80.1934 47.5768 79.4835 46.701 79.4835C46.6278 79.4835 46.558 79.4955 46.4877 79.505C47.8732 78.3013 50.6292 78.7621 51.8201 80.0137C52.518 80.747 52.8503 82.0545 52.7752 83.0465C52.6854 84.2436 52.0209 85.2977 51.1599 86.1009C49.0215 88.0982 46.5131 88.386 43.7284 87.8516C39.1992 86.9705 35.2867 84.4033 31.1395 82.5293C29.4476 81.7658 27.6793 81.0138 25.8172 80.8025C23.9021 80.585 21.8875 80.9139 20.0192 81.3484C18.2734 81.7548 16.5562 82.3744 15.0259 83.3181C13.7437 84.1088 11.6904 85.5583 11.4131 87.1627C13.671 86.0105 16.3649 84.932 18.9441 84.932C17.9875 84.9411 16.4515 86.2113 15.7124 86.7582C14.6836 87.5203 13.7514 88.4104 12.9377 89.399C11.3515 91.3261 9.78581 93.8603 9.83218 96.44C9.82549 96.0757 13.7896 91.9739 22.1371 89.8742C22.9593 89.6672 23.8141 89.619 24.6608 89.5688C25.2306 89.5353 26.6677 89.8183 27.1333 89.5668C25.6059 90.4307 24.3429 91.7052 23.5732 93.3091C22.7829 94.9594 22.1959 97.7499 23.38 99.3605C24.1043 98.0142 24.7038 96.5547 25.8722 95.525C26.858 94.6563 28.0813 94.1094 29.3377 93.7585C31.9034 93.0414 34.5983 93.0974 37.2372 93.0974C42.0542 93.1327 47.5586 93.585 51.7063 90.6363C54.796 88.4334 56.5467 83.951 54.0498 80.6376Z" fill="white"/>
<path d="M46.7911 94.5867C46.7911 94.5867 43.2663 93.8911 39.3605 96.8154C36.4811 98.9715 33.4904 98.153 33.4904 98.153C33.4904 98.153 38.3317 101.822 41.9612 98.5441C45.4257 95.4147 46.7911 94.5867 46.7911 94.5867Z" fill="white"/>
<path d="M58.5795 25.4379C58.7788 25.1917 59.221 25.4484 59.3797 25.6214C59.6427 25.9088 59.712 26.3137 59.5619 26.6694C59.4739 26.8783 59.1546 26.8692 59.1474 26.6134C59.1383 26.3084 59.1091 26.0144 58.8677 25.7998C58.797 25.7362 58.4671 25.577 58.5795 25.4379ZM57.1993 26.481C57.1993 27.3573 57.9097 28.0672 58.7855 28.0672C59.6613 28.0672 60.3717 27.3573 60.3717 26.481C60.3717 25.6052 59.6613 24.8953 58.7855 24.8953C57.9097 24.8953 57.1993 25.6052 57.1993 26.481Z" fill="white"/>
<path d="M64.7413 27.3427C65.054 27.2944 65.3662 27.5273 65.5426 27.7696C65.7649 28.0747 65.8079 28.4141 65.7496 28.7784C65.7204 28.9595 65.4264 28.9519 65.391 28.7784C65.3399 28.5293 65.2749 28.2644 65.1415 28.0455C65.0138 27.8371 64.8016 27.7314 64.6605 27.5416C64.6113 27.4761 64.6601 27.3552 64.7413 27.3427ZM63.3999 28.8066C63.6155 29.6556 64.4784 30.169 65.3274 29.9534C66.1765 29.7378 66.6899 28.8749 66.4743 28.0259C66.2587 27.1768 65.3958 26.6634 64.5468 26.879C63.6977 27.0946 63.1843 27.9575 63.3999 28.8066Z" fill="white"/>
<path d="M70.425 30.3808C70.7405 30.302 71.0666 30.5644 71.231 30.812C71.439 31.1247 71.4892 31.4637 71.3591 31.816C71.2946 31.9905 71.0001 31.9819 71.0121 31.7691C71.0245 31.5397 70.9743 31.2753 70.8543 31.0759C70.7281 30.8656 70.5235 30.7815 70.3643 30.6108C70.2959 30.5372 70.3213 30.4067 70.425 30.3808ZM68.921 31.5889C68.921 32.4647 69.6314 33.1751 70.5072 33.1751C71.3835 33.1751 72.0935 32.4647 72.0935 31.5889C72.0935 30.7126 71.3835 30.0027 70.5072 30.0027C69.6314 30.0027 68.921 30.7126 68.921 31.5889Z" fill="white"/>
<path d="M75.0234 34.3688C75.3059 34.2091 75.686 34.3588 75.905 34.5662C76.1765 34.8239 76.2759 35.1633 76.2181 35.5257C76.1841 35.7375 75.8528 35.7203 75.8065 35.5257C75.7558 35.3139 75.685 35.0974 75.5397 34.931C75.3915 34.7608 75.2022 34.7092 75.0234 34.5868C74.9479 34.5347 74.9364 34.418 75.0234 34.3688ZM73.6681 35.333C73.6681 36.2089 74.378 36.9188 75.2538 36.9188C76.1301 36.9188 76.84 36.2089 76.84 35.333C76.84 34.4568 76.1301 33.7468 75.2538 33.7468C74.378 33.7468 73.6681 34.4568 73.6681 35.333Z" fill="white"/>
<path d="M79.1165 38.6521C79.3288 38.5532 79.5831 38.6985 79.7419 38.8391C79.9962 39.0633 80.0751 39.3492 79.999 39.6747C79.956 39.8607 79.705 39.7995 79.6878 39.6326C79.6467 39.2301 79.4139 39.0814 79.1165 38.8787C79.0429 38.8281 79.0205 38.6971 79.1165 38.6521ZM77.4357 39.7832C77.4357 40.6591 78.1461 41.3695 79.0219 41.3695C79.8982 41.3695 80.6081 40.6591 80.6081 39.7832C80.6081 38.9069 79.8982 38.197 79.0219 38.197C78.1461 38.197 77.4357 38.9069 77.4357 39.7832Z" fill="white"/>
<path d="M82.3573 44.2211C82.897 44.1972 83.2206 44.779 83.1647 45.2499C83.147 45.3986 82.9109 45.4664 82.8764 45.2886C82.842 45.1112 82.7756 44.9105 82.6733 44.7584C82.5705 44.6054 82.4156 44.5218 82.2841 44.3975C82.2162 44.3334 82.2712 44.2249 82.3573 44.2211ZM80.6075 45.334C80.6075 46.2098 81.3175 46.9202 82.1938 46.9202C83.0696 46.9202 83.7795 46.2098 83.7795 45.334C83.7795 44.4582 83.0696 43.7478 82.1938 43.7478C81.3175 43.7478 80.6075 44.4582 80.6075 45.334Z" fill="white"/>
<path d="M84.2741 50.8479C84.5571 50.8154 84.8497 51.0587 85.0003 51.2786C85.1819 51.5434 85.2479 51.8728 85.1298 52.1764C85.0653 52.3423 84.7813 52.3925 84.7402 52.1764C84.6986 51.9589 84.6819 51.7265 84.5638 51.5339C84.4514 51.3508 84.2593 51.2509 84.1431 51.0759C84.0733 50.9702 84.1694 50.8598 84.2741 50.8479ZM82.6075 52.044C82.6075 52.9198 83.3175 53.6302 84.1938 53.6302C85.0696 53.6302 85.7795 52.9198 85.7795 52.044C85.7795 51.1682 85.0696 50.4578 84.1938 50.4578C83.3175 50.4578 82.6075 51.1682 82.6075 52.044Z" fill="white"/>
<path d="M84.7569 57.3819C85.4387 57.1137 85.9024 57.9508 85.7757 58.5182C85.7346 58.7037 85.4607 58.6918 85.4129 58.5182C85.3603 58.3289 85.3244 58.1176 85.1958 57.9632C85.0686 57.8097 84.8889 57.771 84.7168 57.6878C84.5734 57.618 84.636 57.4292 84.7569 57.3819ZM83.2228 58.4217C83.2228 59.2975 83.9328 60.0079 84.8091 60.0079C85.6849 60.0079 86.3953 59.2975 86.3953 58.4217C86.3953 57.5459 85.6849 56.8354 84.8091 56.8354C83.9328 56.8354 83.2228 57.5459 83.2228 58.4217Z" fill="white"/>
<path d="M81.7296 30.447C81.7296 30.0555 81.4121 29.738 81.0206 29.738C80.6291 29.738 80.3116 30.0555 80.3116 30.447C80.3116 30.8385 80.6291 31.156 81.0206 31.156C81.4121 31.156 81.7296 30.8385 81.7296 30.447Z" fill="white"/>
<path d="M93.98 70.6602C93.98 70.2691 93.6626 69.9517 93.2715 69.9517C92.88 69.9517 92.5626 70.2691 92.5626 70.6602C92.5626 71.0517 92.88 71.3691 93.2715 71.3691C93.6626 71.3691 93.98 71.0517 93.98 70.6602Z" fill="white"/>
<path d="M96.2278 73.3201C96.2278 72.9285 95.9104 72.6111 95.5188 72.6111C95.1273 72.6111 94.8099 72.9285 94.8099 73.3201C94.8099 73.7116 95.1273 74.0285 95.5188 74.0285C95.9104 74.0285 96.2278 73.7116 96.2278 73.3201Z" fill="white"/>
<path d="M95.2686 77.0993C95.2686 76.7078 94.9512 76.3904 94.5597 76.3904C94.1681 76.3904 93.8507 76.7078 93.8507 77.0993C93.8507 77.4909 94.1681 77.8083 94.5597 77.8083C94.9512 77.8083 95.2686 77.4909 95.2686 77.0993Z" fill="white"/>
<path d="M90.1487 70.6602C90.1487 70.2691 89.8312 69.9517 89.4397 69.9517C89.0481 69.9517 88.7307 70.2691 88.7307 70.6602C88.7307 71.0517 89.0481 71.3691 89.4397 71.3691C89.8312 71.3691 90.1487 71.0517 90.1487 70.6602Z" fill="white"/>
<path d="M87.1051 73.3201C87.1051 72.9285 86.7876 72.6111 86.3966 72.6111C86.0051 72.6111 85.6876 72.9285 85.6876 73.3201C85.6876 73.7116 86.0051 74.0285 86.3966 74.0285C86.7876 74.0285 87.1051 73.7116 87.1051 73.3201Z" fill="white"/>
<path d="M84.8287 75.9529C84.8287 75.5613 84.5113 75.2439 84.1197 75.2439C83.7287 75.2439 83.4113 75.5613 83.4113 75.9529C83.4113 76.3444 83.7287 76.6618 84.1197 76.6618C84.5113 76.6618 84.8287 76.3444 84.8287 75.9529Z" fill="white"/>
<path d="M81.7296 78.5159C81.7296 78.1248 81.4121 77.8074 81.0206 77.8074C80.6291 77.8074 80.3116 78.1248 80.3116 78.5159C80.3116 78.9074 80.6291 79.2248 81.0206 79.2248C81.4121 79.2248 81.7296 78.9074 81.7296 78.5159Z" fill="white"/>
<path d="M79.5265 28.0676C79.5265 27.6761 79.209 27.3591 78.8175 27.3591C78.426 27.3591 78.1085 27.6761 78.1085 28.0676C78.1085 28.4592 78.426 28.7766 78.8175 28.7766C79.209 28.7766 79.5265 28.4592 79.5265 28.0676Z" fill="white"/>
<path d="M94.5602 65.1645C94.5162 65.2965 97.2498 68.0726 100.068 67.5439C102.888 67.0151 102.05 63.4903 104.429 62.9616C104.429 62.9616 102.006 61.7722 99.4948 64.195C97.3645 66.2502 94.5602 65.1645 94.5602 65.1645Z" fill="white"/>
<path d="M59.3354 89.1887C65.3944 89.2604 70.7372 86.1071 76.6743 85.4287C80.5174 84.9894 86.1261 85.7098 88.4103 89.2958C88.5394 89.4985 83.578 84.4162 74.8663 86.687C59.9071 90.5861 58.9419 89.1839 59.3354 89.1887ZM63.0366 90.7118C69.1825 90.0573 74.1716 87.8214 77.8212 92.6164C77.8809 92.6948 75.0642 90.1238 70.1956 90.479C64.6008 90.8873 62.6966 90.7481 63.0366 90.7118ZM79.155 83.3759C77.3957 83.4596 73.4913 83.6977 73.8083 83.604C77.0056 82.6622 80.8569 81.9824 84.0035 83.4381C84.1483 83.5055 80.7723 83.2989 79.155 83.3759ZM52.4799 90.6363C56.6271 93.585 62.1316 93.1327 66.9486 93.0974C69.5875 93.0974 72.2828 93.0414 74.8486 93.7585C76.1044 94.1094 77.3278 94.6563 78.3141 95.525C79.4824 96.5547 80.0815 98.0142 80.8057 99.3605C81.9904 97.7499 81.4033 94.9594 80.6126 93.3091C79.8434 91.7052 78.5803 90.4307 77.0529 89.5668C77.5186 89.8183 78.9551 89.5353 79.5255 89.5688C80.3716 89.619 81.2269 89.6672 82.0492 89.8742C90.3966 91.9739 94.3603 96.0757 94.3541 96.44C94.4004 93.8603 92.8348 91.3261 91.2481 89.399C90.4349 88.4104 89.5022 87.5202 88.4734 86.7582C87.7343 86.2113 86.1988 84.9411 85.2417 84.932C87.8213 84.932 90.5152 86.0105 92.7726 87.1627C92.4953 85.5583 90.4425 84.1088 89.1599 83.3181C87.6296 82.3744 85.9124 81.7548 84.1665 81.3484C82.2987 80.9139 80.2837 80.585 78.3686 80.8025C76.5065 81.0138 74.7381 81.7658 73.0463 82.5293C68.8991 84.4033 64.9866 86.9705 60.4574 87.8516C57.6732 88.386 55.1648 88.0982 53.0264 86.1009C52.1649 85.2977 51.5009 84.2436 51.4105 83.0465C51.3359 82.0545 51.6682 80.747 52.3657 80.0137C53.5565 78.7621 56.3131 78.3013 57.6985 79.505C57.6277 79.4955 57.5579 79.4835 57.4848 79.4835C56.609 79.4835 55.8991 80.1934 55.8991 81.0697C55.8991 81.9455 56.609 82.6559 57.4848 82.6559C58.3611 82.6559 59.071 81.9455 59.071 81.0697C59.071 81.0463 59.0653 81.0248 59.0643 81.0014C59.0782 80.7332 59.0581 80.4583 59.0156 80.3144C58.4763 78.492 56.1782 78.0541 54.8406 78.1287C52.9781 78.2329 51.2594 79.147 50.136 80.6376C47.6395 83.951 49.3902 88.4334 52.4799 90.6363Z" fill="white"/>
<path d="M57.6388 94.5867C57.6388 94.5867 61.1636 93.8911 65.0693 96.8154C67.9487 98.9715 70.9395 98.153 70.9395 98.153C70.9395 98.153 66.0981 101.822 62.4687 98.5441C59.0041 95.4147 57.6388 94.5867 57.6388 94.5867Z" fill="white"/>
<path d="M52.0942 29.4421C36.1158 29.4421 23.1154 42.4421 23.1154 58.4205C23.1154 72.9364 33.8422 84.9908 47.7882 87.0761C47.8174 87.0833 47.847 87.0919 47.8791 87.0919C48.0435 87.0919 48.1764 86.959 48.1764 86.795C48.1764 86.6392 48.055 86.5149 47.9025 86.502C34.2629 84.4429 23.7029 72.6309 23.7029 58.4205C23.7029 42.7653 36.4385 30.0292 52.0942 30.0292C67.7436 30.0292 80.4797 42.7653 80.4797 58.4205C80.4797 72.7084 69.9929 84.5443 56.2423 86.502C56.0564 86.4977 55.9235 86.6306 55.9235 86.795C55.9235 86.959 56.0564 87.0919 56.2203 87.0919C70.2721 85.1008 81.0668 73.0129 81.0668 58.4205C81.0668 42.4421 68.0725 29.4421 52.0942 29.4421Z" fill="white"/>
<path d="M58.576 19.2001C58.3064 19.2001 58.085 18.9836 58.085 18.7092C58.085 18.4396 58.3064 18.2182 58.576 18.2182C58.8504 18.2182 59.067 18.4396 59.067 18.7092C59.067 18.9836 58.8504 19.2001 58.576 19.2001ZM56.3573 19.2001C56.0877 19.2001 55.8663 18.9836 55.8663 18.7092C55.8663 18.4396 56.0877 18.2182 56.3573 18.2182C56.6317 18.2182 56.8483 18.4396 56.8483 18.7092C56.8483 18.9836 56.6317 19.2001 56.3573 19.2001ZM54.1381 19.2001C53.869 19.2001 53.6476 18.9836 53.6476 18.7092C53.6476 18.4396 53.869 18.2182 54.1381 18.2182C54.4078 18.2182 54.6296 18.4396 54.6296 18.7092C54.6296 18.9836 54.4078 19.2001 54.1381 19.2001ZM51.9491 19.1949C51.6924 19.1772 51.4882 18.9745 51.4882 18.7092C51.4882 18.4486 51.6924 18.2416 51.9491 18.2235C52.2063 18.2416 52.4104 18.4486 52.4104 18.7092C52.4104 18.9745 52.2063 19.1772 51.9491 19.1949ZM49.76 19.2001C49.4909 19.2001 49.269 18.9836 49.269 18.7092C49.269 18.4396 49.4909 18.2182 49.76 18.2182C50.0296 18.2182 50.251 18.4396 50.251 18.7092C50.251 18.9836 50.0296 19.2001 49.76 19.2001ZM47.5413 19.2001C47.2669 19.2001 47.0503 18.9836 47.0503 18.7092C47.0503 18.4396 47.2669 18.2182 47.5413 18.2182C47.8109 18.2182 48.0323 18.4396 48.0323 18.7092C48.0323 18.9836 47.8109 19.2001 47.5413 19.2001ZM45.3226 19.2001C45.0482 19.2001 44.8317 18.9836 44.8317 18.7092C44.8317 18.4396 45.0482 18.2182 45.3226 18.2182C45.5923 18.2182 45.8136 18.4396 45.8136 18.7092C45.8136 18.9836 45.5923 19.2001 45.3226 19.2001ZM57.8685 12.0383C57.7145 12.5197 57.748 13.0393 57.9311 13.5112C58.239 14.3005 58.5712 15.7543 57.3536 16.5866C55.6206 17.7803 53.9364 16.2352 53.6185 14.4788C53.2915 12.688 53.7246 11.3886 55.1349 10.9555C56.5399 10.5223 51.9213 2.99951 51.9213 2.99951C51.9213 2.99951 47.3587 10.5223 48.7637 10.9555C50.174 11.3886 50.6071 12.688 50.2801 14.4788C49.9622 16.2352 48.2775 17.7803 46.545 16.5866C45.3274 15.7543 45.6597 14.3005 45.9675 13.5112C46.1506 13.0393 46.1841 12.5197 46.0302 12.0383C44.8508 8.36626 39.3449 8.41407 39.3449 8.41407C44.7064 15.8312 44.6486 20.0521 44.6486 20.0521H59.2501C59.2501 20.0521 59.1917 15.8312 64.5537 8.41407C64.5537 8.41407 59.0478 8.36626 57.8685 12.0383Z" fill="white"/>
<path d="M58.4078 21.084H45.49C45.0564 21.084 44.705 21.4354 44.705 21.869C44.705 22.3026 45.0564 22.6544 45.49 22.6544H58.4078C58.8414 22.6544 59.1927 22.3026 59.1927 21.869C59.1927 21.4354 58.8414 21.084 58.4078 21.084Z" fill="white"/>
<path d="M52.2144 83.0345C52.1085 83.0345 52.0226 82.9486 52.0226 82.8427V34.8927C52.0226 34.7868 52.1085 34.7009 52.2144 34.7009C52.3204 34.7009 52.4062 34.7868 52.4062 34.8927V82.8427C52.4062 82.9486 52.3204 83.0345 52.2144 83.0345Z" fill="white" fill-opacity="0.13"/>
<path d="M56.3767 82.6713C56.2854 82.6713 56.2044 82.6058 56.188 82.5127L47.8616 35.2913C47.8432 35.187 47.9128 35.0875 48.0172 35.0691C48.1217 35.0508 48.221 35.1203 48.2394 35.2247L56.5658 82.4461C56.5842 82.5504 56.5145 82.6499 56.4102 82.6683C56.3989 82.6703 56.3877 82.6713 56.3767 82.6713Z" fill="white" fill-opacity="0.13"/>
<path d="M56.3767 82.6713C56.2854 82.6713 56.2044 82.6058 56.188 82.5127L47.8616 35.2913C47.8432 35.187 47.9128 35.0875 48.0172 35.0691C48.1217 35.0508 48.221 35.1203 48.2394 35.2247L56.5658 82.4461C56.5842 82.5504 56.5145 82.6499 56.4102 82.6683C56.3989 82.6703 56.3877 82.6713 56.3767 82.6713Z" fill="white" fill-opacity="0.13"/>
<path d="M60.4123 81.5889C60.3339 81.5889 60.2604 81.5405 60.232 81.4626L43.8322 36.4044C43.7959 36.3049 43.8473 36.1948 43.9468 36.1586C44.0464 36.1224 44.1564 36.1737 44.1927 36.2732L60.5925 81.3314C60.6287 81.4309 60.5774 81.541 60.4779 81.5772C60.4562 81.5851 60.434 81.5889 60.4123 81.5889Z" fill="white" fill-opacity="0.13"/>
<path d="M60.4123 81.5889C60.3339 81.5889 60.2604 81.5405 60.232 81.4626L43.8322 36.4044C43.7959 36.3049 43.8473 36.1948 43.9468 36.1586C44.0464 36.1224 44.1564 36.1737 44.1927 36.2732L60.5925 81.3314C60.6287 81.4309 60.5774 81.541 60.4779 81.5772C60.4562 81.5851 60.434 81.5889 60.4123 81.5889Z" fill="white" fill-opacity="0.13"/>
<path d="M64.2012 79.8231C64.1349 79.8231 64.0705 79.7887 64.0349 79.7272L40.06 38.2013C40.007 38.1096 40.0384 37.9923 40.1302 37.9393C40.2219 37.8863 40.3392 37.9178 40.3922 38.0095L64.3671 79.5354C64.4201 79.6271 64.3887 79.7444 64.2969 79.7974C64.2667 79.8148 64.2337 79.8231 64.2012 79.8231Z" fill="white" fill-opacity="0.13"/>
<path d="M64.2012 79.8231C64.1349 79.8231 64.0705 79.7887 64.0349 79.7272L40.06 38.2013C40.007 38.1096 40.0384 37.9923 40.1302 37.9393C40.2219 37.8863 40.3392 37.9178 40.3922 38.0095L64.3671 79.5354C64.4201 79.6271 64.3887 79.7444 64.2969 79.7974C64.2667 79.8148 64.2337 79.8231 64.2012 79.8231Z" fill="white" fill-opacity="0.13"/>
<path d="M67.6242 77.4244C67.5694 77.4244 67.5151 77.4011 67.4771 77.3559L36.6555 40.6241C36.5874 40.543 36.598 40.422 36.6792 40.3539C36.7603 40.2859 36.8813 40.2964 36.9494 40.3776L67.771 77.1094C67.8391 77.1905 67.8285 77.3115 67.7473 77.3796C67.7114 77.4097 67.6677 77.4244 67.6242 77.4244Z" fill="white" fill-opacity="0.13"/>
<path d="M67.6242 77.4244C67.5694 77.4244 67.5151 77.4011 67.4771 77.3559L36.6555 40.6241C36.5874 40.543 36.598 40.422 36.6792 40.3539C36.7603 40.2859 36.8813 40.2964 36.9494 40.3776L67.771 77.1094C67.8391 77.1905 67.8285 77.3115 67.7473 77.3796C67.7114 77.4097 67.6677 77.4244 67.6242 77.4244Z" fill="white" fill-opacity="0.13"/>
<path d="M70.5789 74.4696C70.5354 74.4696 70.4916 74.4549 70.4557 74.4247L33.7239 43.6031C33.6428 43.535 33.6322 43.4141 33.7003 43.3329C33.7684 43.2518 33.8894 43.2412 33.9705 43.3093L70.7023 74.1309C70.7834 74.199 70.794 74.3199 70.7259 74.4011C70.688 74.4463 70.6336 74.4696 70.5789 74.4696Z" fill="white" fill-opacity="0.13"/>
<path d="M70.5789 74.4696C70.5354 74.4696 70.4916 74.4549 70.4557 74.4247L33.7239 43.6031C33.6428 43.535 33.6322 43.4141 33.7003 43.3329C33.7684 43.2518 33.8894 43.2412 33.9705 43.3093L70.7023 74.1309C70.7834 74.199 70.794 74.3199 70.7259 74.4011C70.688 74.4463 70.6336 74.4696 70.5789 74.4696Z" fill="white" fill-opacity="0.13"/>
<path d="M72.9764 71.0459C72.9439 71.0459 72.9109 71.0376 72.8807 71.0202L31.3549 47.0452C31.2631 46.9922 31.2317 46.8749 31.2846 46.7832C31.3376 46.6914 31.4549 46.66 31.5466 46.713L73.0725 70.688C73.1642 70.7409 73.1956 70.8582 73.1427 70.9499C73.1072 71.0115 73.0427 71.0459 72.9764 71.0459Z" fill="white" fill-opacity="0.13"/>
<path d="M72.9764 71.0459C72.9439 71.0459 72.9109 71.0376 72.8807 71.0202L31.3549 47.0452C31.2631 46.9922 31.2317 46.8749 31.2846 46.7832C31.3376 46.6914 31.4549 46.66 31.5466 46.713L73.0725 70.688C73.1642 70.7409 73.1956 70.8582 73.1427 70.9499C73.1072 71.0115 73.0427 71.0459 72.9764 71.0459Z" fill="white" fill-opacity="0.13"/>
<path d="M74.7414 67.2597C74.7196 67.2597 74.6975 67.2559 74.6758 67.248L29.6177 50.8482C29.5181 50.812 29.4668 50.7019 29.503 50.6023C29.5393 50.5028 29.6493 50.4514 29.7489 50.4877L74.807 66.8876C74.9066 66.9238 74.9579 67.0339 74.9217 67.1334C74.8933 67.2113 74.8197 67.2597 74.7414 67.2597Z" fill="white" fill-opacity="0.13"/>
<path d="M74.7414 67.2597C74.7196 67.2597 74.6975 67.2559 74.6758 67.248L29.6177 50.8482C29.5181 50.812 29.4668 50.7019 29.503 50.6023C29.5393 50.5028 29.6493 50.4514 29.7489 50.4877L74.807 66.8876C74.9066 66.9238 74.9579 67.0339 74.9217 67.1334C74.8933 67.2113 74.8197 67.2597 74.7414 67.2597Z" fill="white" fill-opacity="0.13"/>
<path d="M75.8248 63.2226C75.8137 63.2226 75.8025 63.2216 75.7912 63.2196L28.5698 54.8932C28.4655 54.8748 28.3958 54.7753 28.4142 54.671C28.4326 54.5667 28.5319 54.4969 28.6364 54.5154L75.8578 62.8419C75.9622 62.8602 76.0318 62.9597 76.0134 63.064C75.997 63.1571 75.9161 63.2226 75.8248 63.2226Z" fill="white" fill-opacity="0.13"/>
<path d="M75.8248 63.2226C75.8137 63.2226 75.8025 63.2216 75.7912 63.2196L28.5698 54.8932C28.4655 54.8748 28.3958 54.7753 28.4142 54.671C28.4326 54.5667 28.5319 54.4969 28.6364 54.5154L75.8578 62.8419C75.9622 62.8602 76.0318 62.9597 76.0134 63.064C75.997 63.1571 75.9161 63.2226 75.8248 63.2226Z" fill="white" fill-opacity="0.13"/>
<path d="M76.1877 59.0591H28.2378C28.1319 59.0591 28.046 58.9733 28.046 58.8673C28.046 58.7614 28.1319 58.6755 28.2378 58.6755H76.1877C76.2937 58.6755 76.3795 58.7614 76.3795 58.8673C76.3795 58.9733 76.2937 59.0591 76.1877 59.0591Z" fill="white" fill-opacity="0.13"/>
<path d="M76.1877 59.0591H28.2378C28.1319 59.0591 28.046 58.9733 28.046 58.8673C28.046 58.7614 28.1319 58.6755 28.2378 58.6755H76.1877C76.2937 58.6755 76.3795 58.7614 76.3795 58.8673C76.3795 58.9733 76.2937 59.0591 76.1877 59.0591Z" fill="white" fill-opacity="0.13"/>
<path d="M28.6029 63.2226C28.5115 63.2226 28.4306 63.1571 28.4142 63.064C28.3958 62.9597 28.4655 62.8602 28.5698 62.8418L75.7912 54.5154C75.8954 54.497 75.995 54.5666 76.0134 54.671C76.0318 54.7753 75.9622 54.8748 75.8578 54.8932L28.6364 63.2196C28.6251 63.2216 28.6139 63.2226 28.6029 63.2226Z" fill="white" fill-opacity="0.13"/>
<path d="M28.6029 63.2226C28.5115 63.2226 28.4306 63.1571 28.4142 63.064C28.3958 62.9597 28.4655 62.8602 28.5698 62.8418L75.7912 54.5154C75.8954 54.497 75.995 54.5666 76.0134 54.671C76.0318 54.7753 75.9622 54.8748 75.8578 54.8932L28.6364 63.2196C28.6251 63.2216 28.6139 63.2226 28.6029 63.2226Z" fill="white" fill-opacity="0.13"/>
<path d="M29.6833 67.2596C29.6049 67.2596 29.5314 67.2112 29.503 67.1333C29.4668 67.0338 29.5181 66.9237 29.6177 66.8875L74.6758 50.4876C74.7754 50.4515 74.8854 50.5027 74.9217 50.6023C74.9579 50.7018 74.9066 50.8119 74.807 50.8481L29.7489 67.248C29.7272 67.2558 29.705 67.2596 29.6833 67.2596Z" fill="white" fill-opacity="0.13"/>
<path d="M29.6833 67.2596C29.6049 67.2596 29.5314 67.2112 29.503 67.1333C29.4668 67.0338 29.5181 66.9237 29.6177 66.8875L74.6758 50.4876C74.7754 50.4515 74.8854 50.5027 74.9217 50.6023C74.9579 50.7018 74.9066 50.8119 74.807 50.8481L29.7489 67.248C29.7272 67.2558 29.705 67.2596 29.6833 67.2596Z" fill="white" fill-opacity="0.13"/>
<path d="M31.4509 71.0459C31.3846 71.0459 31.3202 71.0115 31.2846 70.95C31.2317 70.8583 31.2631 70.7409 31.3549 70.688L72.8807 46.713C72.9725 46.66 73.0897 46.6915 73.1427 46.7832C73.1956 46.8749 73.1642 46.9923 73.0725 47.0452L31.5466 71.0202C31.5164 71.0376 31.4835 71.0459 31.4509 71.0459Z" fill="white" fill-opacity="0.13"/>
<path d="M31.4509 71.0459C31.3846 71.0459 31.3202 71.0115 31.2846 70.95C31.2317 70.8583 31.2631 70.7409 31.3549 70.688L72.8807 46.713C72.9725 46.66 73.0897 46.6915 73.1427 46.7832C73.1956 46.8749 73.1642 46.9923 73.0725 47.0452L31.5466 71.0202C31.5164 71.0376 31.4835 71.0459 31.4509 71.0459Z" fill="white" fill-opacity="0.13"/>
<path d="M33.8473 74.4696C33.7926 74.4696 33.7382 74.4463 33.7003 74.4011C33.6322 74.3199 33.6428 74.199 33.7239 74.1309L70.4557 43.3093C70.5368 43.2412 70.6578 43.2518 70.7259 43.3329C70.794 43.4141 70.7834 43.535 70.7023 43.6031L33.9705 74.4247C33.9346 74.4549 33.8908 74.4696 33.8473 74.4696Z" fill="white" fill-opacity="0.13"/>
<path d="M33.8473 74.4696C33.7926 74.4696 33.7382 74.4463 33.7003 74.4011C33.6322 74.3199 33.6428 74.199 33.7239 74.1309L70.4557 43.3093C70.5368 43.2412 70.6578 43.2518 70.7259 43.3329C70.794 43.4141 70.7834 43.535 70.7023 43.6031L33.9705 74.4247C33.9346 74.4549 33.8908 74.4696 33.8473 74.4696Z" fill="white" fill-opacity="0.13"/>
<path d="M36.8024 77.4245C36.7589 77.4245 36.7151 77.4098 36.6792 77.3796C36.598 77.3115 36.5874 77.1905 36.6555 77.1094L67.4771 40.3776C67.5452 40.2965 67.6663 40.2859 67.7473 40.354C67.8285 40.4221 67.8391 40.543 67.771 40.6242L36.9494 77.3559C36.9115 77.4012 36.8571 77.4245 36.8024 77.4245Z" fill="white" fill-opacity="0.13"/>
<path d="M36.8024 77.4245C36.7589 77.4245 36.7151 77.4098 36.6792 77.3796C36.598 77.3115 36.5874 77.1905 36.6555 77.1094L67.4771 40.3776C67.5452 40.2965 67.6663 40.2859 67.7473 40.354C67.8285 40.4221 67.8391 40.543 67.771 40.6242L36.9494 77.3559C36.9115 77.4012 36.8571 77.4245 36.8024 77.4245Z" fill="white" fill-opacity="0.13"/>
<path d="M40.2259 79.8231C40.1933 79.8231 40.1604 79.8148 40.1302 79.7974C40.0384 79.7444 40.007 79.6271 40.06 79.5354L64.0349 38.0095C64.0879 37.9178 64.2052 37.8863 64.2969 37.9393C64.3887 37.9923 64.4201 38.1096 64.3671 38.2013L40.3922 79.7272C40.3566 79.7887 40.2922 79.8231 40.2259 79.8231Z" fill="white" fill-opacity="0.13"/>
<path d="M40.2259 79.8231C40.1933 79.8231 40.1604 79.8148 40.1302 79.7974C40.0384 79.7444 40.007 79.6271 40.06 79.5354L64.0349 38.0095C64.0879 37.9178 64.2052 37.8863 64.2969 37.9393C64.3887 37.9923 64.4201 38.1096 64.3671 38.2013L40.3922 79.7272C40.3566 79.7887 40.2922 79.8231 40.2259 79.8231Z" fill="white" fill-opacity="0.13"/>
<path d="M44.0124 81.5889C43.9906 81.5889 43.9685 81.5852 43.9468 81.5773C43.8473 81.541 43.7959 81.431 43.8322 81.3314L60.232 36.2732C60.2682 36.1737 60.3782 36.1223 60.4779 36.1586C60.5774 36.1948 60.6287 36.3049 60.5925 36.4044L44.1927 81.4626C44.1643 81.5405 44.0907 81.5889 44.0124 81.5889Z" fill="white" fill-opacity="0.13"/>
<path d="M44.0124 81.5889C43.9906 81.5889 43.9685 81.5852 43.9468 81.5773C43.8473 81.541 43.7959 81.431 43.8322 81.3314L60.232 36.2732C60.2682 36.1737 60.3782 36.1223 60.4779 36.1586C60.5774 36.1948 60.6287 36.3049 60.5925 36.4044L44.1927 81.4626C44.1643 81.5405 44.0907 81.5889 44.0124 81.5889Z" fill="white" fill-opacity="0.13"/>
<path d="M48.0507 82.6713C48.0396 82.6713 48.0284 82.6703 48.0172 82.6683C47.9128 82.6499 47.8432 82.5505 47.8616 82.4461L56.188 35.2247C56.2064 35.1204 56.3059 35.0507 56.4102 35.0691C56.5145 35.0875 56.5842 35.187 56.5658 35.2913L48.2394 82.5128C48.2229 82.6058 48.142 82.6713 48.0507 82.6713Z" fill="white" fill-opacity="0.13"/>
<path d="M62.2356 44.5189V72.9267H59.1708V58.546C57.3372 58.6246 55.8311 58.9127 54.6523 59.4104C53.4736 59.8819 52.452 60.6546 51.5876 61.7286C50.8803 62.593 50.029 64.1647 49.0336 66.4436C48.4573 67.6485 48.0906 68.3951 47.9335 68.6832C47.6715 69.1547 47.3048 69.7703 46.8333 70.5299C46.388 71.211 45.9558 71.7479 45.5367 72.1409C44.4365 73.0315 43.3101 73.4768 42.1576 73.4768C40.2978 73.4768 39.2893 72.429 39.1321 70.3335H39.3679C39.4989 71.9575 40.0358 72.7695 40.9788 72.7695C41.5289 72.7695 42.0266 72.4945 42.4719 71.9444C42.9434 71.3681 43.4804 70.3204 44.0829 68.8011C44.7115 67.3604 45.1961 66.3388 45.5367 65.7363C46.3749 64.2433 47.5405 62.9073 49.0336 61.7286C50.5267 60.5237 52.2424 59.6723 54.1808 59.1746V59.0568L53.395 59.0961C53.0545 59.1222 52.6615 59.1353 52.2162 59.1353C49.5182 59.1092 47.2524 58.4281 45.4188 57.0922C43.559 55.7563 42.6291 53.8048 42.6291 51.2377C42.6291 49.6137 43.2578 48.0813 44.5151 46.6406C46.0082 44.938 48.7193 44.0867 52.6484 44.0867C53.2771 44.0867 54.7047 44.1522 56.9312 44.2831C58.922 44.4403 60.3365 44.5189 61.1747 44.5189H62.2356ZM59.1708 58.3102V45.1475C57.1015 44.5975 55.3858 44.3224 54.0236 44.3224C51.7185 44.3224 49.8064 44.9118 48.2871 46.0905C46.7678 47.2955 46.0082 49.0505 46.0082 51.3556C46.0082 53.7131 46.663 55.5205 47.9727 56.7779C49.2825 58.0352 51.1947 58.6638 53.7093 58.6638C54.469 58.6638 55.5691 58.6115 57.0098 58.5067C57.979 58.4543 58.6993 58.3888 59.1708 58.3102Z" fill="white"/>
</svg>
