<svg width="140" height="140" viewBox="0 0 140 140" fill="none" xmlns="http://www.w3.org/2000/svg">
<path d="M14.5 15H125.5M14.5 15V120M14.5 15H47.5V120H14.5M125.5 15V120M125.5 15H119.5V120H125.5M125.5 120H14.5M90.5 78V67H51.5V78M90.5 78H51.5M90.5 78V88M51.5 78V88M90.5 88H51.5M90.5 88V99H51.5V88M23.5 64.5L39.5 48.5M34 64.5L39.5 59M94.5 46.5L113.5 27.5M99.5 70L105 64.5M29.5 29.5L35 24M105 46.5L110.5 41M27 91L32 86M42.5 86L24.5 104M98.5 94.5L103.5 89.5M114 89.5L96 107.5M92.5 125H132.5M74 125H88M8 125H69M90.5 29.5V15H51.5V29.5M90.5 29.5V120H51.5V29.5M90.5 29.5H51.5" stroke="#F07E26" stroke-width="1.8" stroke-linecap="square"/>
<circle cx="70.5" cy="72" r="1" fill="#F07E26"/>
<circle cx="70.5" cy="83" r="1" fill="#F07E26"/>
<circle cx="70.5" cy="94" r="1" fill="#F07E26"/>
</svg>
