<svg width="140" height="140" viewBox="0 0 140 140" fill="none" xmlns="http://www.w3.org/2000/svg">
<path d="M70 18.7705H17.7705V83.5738H70M70 18.7705H122.23V83.5738H70M70 18.7705V83.5738M77.7377 34.7295V46.8197H111.59V34.7295M77.7377 34.7295V29.4098H111.59V34.7295M77.7377 34.7295H92.2459M111.59 34.7295H106.754M92.2459 34.7295V38.5984H98.5328V34.7295M92.2459 34.7295H98.5328M98.5328 34.7295H103.369M82.5738 52.6229V64.2295H116.426V52.6229M82.5738 52.6229V46.8197H116.426V52.6229M82.5738 52.6229H116.426M118.361 69.0656V64.2295H76.7705V69.0656M118.361 69.0656V83.5738H76.7705V69.0656M118.361 69.0656H100.467M76.7705 69.0656H82.5738M95.1475 69.0656V72.9344H100.467V69.0656M95.1475 69.0656H100.467M95.1475 69.0656H85.959M70 90.3443H17.7705V123.23H70M70 90.3443H122.23V123.23H70M70 90.3443V123.23M107.238 112.59C114.492 112.59 122.713 103.885 112.074 103.885C110.337 103.885 108.728 103.671 107.238 103.305M107.238 112.59H104.336M107.238 112.59H117.393V116.942M79.6721 112.59H103.369H104.336M79.6721 112.59V108.238M79.6721 112.59H77.2541V116.942M107.238 103.305C97.1021 100.816 92.4816 91.3237 90.7951 94.6967C89.2475 97.7918 84.6694 96.3087 82.5738 95.1803C80.8397 95.7583 80.0772 98.3513 79.8024 100.5M107.238 103.305C104.125 104.369 99.6344 106.977 101.626 110.172M104.336 112.59C102.975 111.759 102.109 110.948 101.626 110.172M101.626 110.172C100.013 109.652 95.0203 108.711 86.4426 108.368M79.6721 108.238V102.434C79.6721 101.904 79.7093 101.228 79.8024 100.5M79.6721 108.238C82.1358 108.238 84.3917 108.286 86.4426 108.368M86.4426 108.368C86.5294 105.906 85.3229 100.887 79.8024 100.5M77.2541 116.942V123.23H117.393V116.942M77.2541 116.942H108.689M117.393 116.942H112.074M23.5247 107.27L25.4591 123.23H28.8443V111.623M23.5247 107.27L28.8443 111.623M23.5247 107.27C20.4296 103.015 25.1367 98.4044 27.8771 96.6311L30.2585 100.386M28.8443 111.623L30.7313 114.453M55.4427 123.23H42.918H36.582L35.1803 121.127M55.4427 123.23C55.4427 120.973 53.7017 116.459 46.7378 116.459H40.4509L30.2585 100.386M55.4427 123.23H61.7787C61.7787 120.973 60.0377 116.459 53.0738 116.459H46.7869L34.2131 96.6311C32.9977 97.4176 31.3954 98.7622 30.2585 100.386M30.7313 114.453L31.7951 123.23H35.1803V121.127M30.7313 114.453L35.1803 121.127M46.7869 24.5738L42.4145 69.3778C42.1325 72.4228 43.6704 75.3482 46.3386 76.8424L51.9312 79.9743C53.2341 80.7039 54.041 82.0805 54.041 83.5738M46.7869 24.5738H39.0492M46.7869 24.5738H54.5246L50.1522 69.3778C49.8702 72.4228 51.4081 75.3482 54.0763 76.8424L59.6689 79.9743C60.9718 80.7039 61.7787 82.0805 61.7787 83.5738H54.041M28.8934 71.4836C27.4426 69.7104 26.6689 64.9066 31.3115 61.8115L26.4754 24.5738H39.0492M28.8934 71.4836L32.7623 76.0894M28.8934 71.4836V83.5738H32.7623V76.0894M32.7623 76.0894L39.0492 83.5738H46.5451H54.041M32.7623 76.0894L39.0492 24.5738M11 12H129V130H11V12Z" stroke="#F07E26" stroke-width="1.8" stroke-linecap="square"/>
</svg>
