<svg width="140" height="140" viewBox="0 0 140 140" fill="none" xmlns="http://www.w3.org/2000/svg">
<path d="M70 15H16V82H70M70 15H124V82H70M70 15V82M78 31.5V44H113V31.5M78 31.5V26H113V31.5M78 31.5H93M113 31.5H108M93 31.5V35.5H99.5V31.5M93 31.5H99.5M99.5 31.5H104.5M83 50V62H118V50M83 50V44H118V50M83 50H118M120 67V62H77V67M120 67V82H77V67M120 67H101.5M77 67H83M96 67V71H101.5V67M96 67H101.5M96 67H86.5M70 89H16V123H70M70 89H124V123H70M70 89V123M108.5 112C116 112 124.5 103 113.5 103C111.704 103 110.041 102.778 108.5 102.4M108.5 112H105.5M108.5 112H119V116.5M80 112H104.5H105.5M80 112V107.5M80 112H77.5V116.5M108.5 102.4C98.0209 99.827 93.2437 90.0127 91.5 93.5C89.9 96.7 85.1667 95.1667 83 94C81.2072 94.5976 80.4188 97.2785 80.1346 99.4998M108.5 102.4C105.282 103.5 100.639 106.196 102.698 109.5M105.5 112C104.093 111.14 103.198 110.302 102.698 109.5M102.698 109.5C101.031 108.962 95.8684 107.99 87 107.634M80 107.5V101.5C80 100.952 80.0384 100.252 80.1346 99.4998M80 107.5C82.5472 107.5 84.8795 107.549 87 107.634M87 107.634C87.0898 105.09 85.8424 99.8998 80.1346 99.4998M77.5 116.5V123H119V116.5M77.5 116.5H110M119 116.5H113.5M21.9492 106.5L23.9492 123H27.4492V111M21.9492 106.5L27.4492 111M21.9492 106.5C18.7492 102.1 23.6159 97.3333 26.4492 95.5L28.9113 99.3825M27.4492 111L29.4002 113.926M54.9492 123H42H35.4492L34 120.826M54.9492 123C54.9492 120.667 53.1492 116 45.9492 116H39.4492L28.9113 99.3825M54.9492 123H61.5C61.5 120.667 59.7 116 52.5 116H46L33 95.5C31.7434 96.3131 30.0867 97.7033 28.9113 99.3825M29.4002 113.926L30.5 123H34V120.826M29.4002 113.926L34 120.826M46 21L41.4794 67.3228C41.1879 70.471 42.7779 73.4956 45.5365 75.0404L51.3187 78.2785C52.6657 79.0328 53.5 80.4562 53.5 82M46 21H38M46 21H54L49.4794 67.3228C49.1879 70.471 50.7779 73.4956 53.5365 75.0404L59.3187 78.2785C60.6657 79.0328 61.5 80.4562 61.5 82H53.5M27.5 69.5C26 67.6667 25.2 62.7 30 59.5L25 21H38M27.5 69.5L31.5 74.2619M27.5 69.5V82H31.5V74.2619M31.5 74.2619L38 82H45.75H53.5M31.5 74.2619L38 21M9 8H131V130H9V8Z" stroke="#B77D0D" stroke-width="1.5" stroke-linecap="round" stroke-linejoin="round"/>
</svg>
