<svg width="140" height="140" viewBox="0 0 140 140" fill="none" xmlns="http://www.w3.org/2000/svg">
<path d="M99.2131 79.7238C99.2131 76.1257 98.5556 72.6803 97.3536 69.5M99.2131 79.7238H105.164M99.2131 79.7238V88.8714M40.7869 79.7238C40.7869 71.4741 44.2433 64.0273 49.7944 58.7381M40.7869 79.7238H28.8852M40.7869 79.7238V89.9476M100.836 21.6095H111.115M127.344 120.081H114.361M102.459 120.081H108.951M57.0164 105.552H45.1148V101.248H50.2894M82.9836 105.552H94.8852V101.248H89.7106M62.7636 88.3771C61.7047 82.9558 57.2828 80.1253 54.3115 78.6476C53.0669 81.0693 51.6066 83.8126 51.6066 86.719C51.6066 96.526 59.5994 104.476 69.459 104.476C79.3187 104.476 87.3115 96.526 87.3115 86.719C87.3115 83.4905 85.8511 82.6836 84.6066 80.2619C82.7663 85.6429 80.2787 84.5667 78.6557 88.3333C81.3607 75.419 74.3279 74.3429 71.623 65.7333C61.2338 73.1145 62.0042 82.4457 62.7636 88.3771ZM62.7636 88.3771C62.8615 88.8782 62.9306 89.4013 62.9672 89.9476C62.9055 89.4568 62.8346 88.9318 62.7636 88.3771ZM28.8852 49.0524V44.2095H15.9016V103.4H28.8852V100.171M28.8852 49.0524V58.7381M28.8852 49.0524H34.2951M111.115 49.0524V44.2095H124.098V103.4H111.115V100.171M111.115 49.0524V58.7381M111.115 49.0524H104.623M97.0492 49.0524V39.9048V38.8286M97.0492 49.0524H104.623M97.0492 49.0524H87.9877M107.869 38.8286V44.2095H127.344V30.219H107.869V38.8286ZM107.869 38.8286H97.0492M97.0492 38.8286H94.8852M32.1311 38.8286V30.219H12.6557V44.2095H32.1311V38.8286ZM32.1311 38.8286H42.4098M42.4098 38.8286V49.0524M42.4098 38.8286H43.4918M42.4098 49.0524H34.2951M42.4098 49.0524H50.9876M60.8033 49.0524V38.8286M60.8033 49.0524H50.9876M60.8033 49.0524H66.2131M60.8033 38.8286H53.2295M60.8033 38.8286H64.5902M78.9262 38.8286V49.0524M78.9262 38.8286H74.3279M78.9262 38.8286H84.6066M78.9262 49.0524H87.9877M78.9262 49.0524H77.0328M94.8852 38.8286V35.0619M94.8852 38.8286H84.6066M43.4918 35.0619V38.8286M43.4918 38.8286H53.2295M53.2295 38.8286V35.0619M64.5902 35.0619V38.8286M64.5902 38.8286H74.3279M74.3279 38.8286V35.0619M84.6066 35.0619V38.8286M28.8852 58.7381H34.2951M28.8852 58.7381V69.5M49.7944 58.7381H34.2951M49.7944 58.7381C50.1821 58.3687 50.58 58.0098 50.9876 57.6619M90.2056 58.7381H104.623M90.2056 58.7381C89.4993 58.0651 88.7591 57.427 87.9877 56.8266M90.2056 58.7381C93.3356 61.7204 95.7996 65.3886 97.3536 69.5M111.115 58.7381H104.623M111.115 58.7381V69.5M104.623 58.7381V49.0524M87.9877 49.0524V56.8266M87.9877 56.8266C84.801 54.3464 81.0835 52.51 77.0328 51.5142M34.2951 49.0524V58.7381M50.9876 57.6619V49.0524M50.9876 57.6619C55.1942 54.072 60.4393 51.6519 66.2131 50.9086M66.2131 49.0524V50.9086M66.2131 49.0524H77.0328M66.2131 50.9086C67.4527 50.749 68.7167 50.6667 70 50.6667C72.4246 50.6667 74.7802 50.9605 77.0328 51.5142M77.0328 49.0524V51.5142M28.8852 69.5H42.9508M28.8852 69.5V79.7238M97.3536 69.5H105.164M111.115 69.5V79.7238M111.115 69.5H105.164M28.8852 79.7238V89.9476M111.115 79.7238H105.164M111.115 79.7238V88.8714M105.164 79.7238V69.5M111.115 88.8714V100.171M111.115 88.8714H105.164M99.2131 88.8714V100.171M99.2131 88.8714H105.164M40.7869 89.9476H34.8361M40.7869 89.9476V100.171M28.8852 89.9476H34.8361M28.8852 89.9476V100.171M34.8361 89.9476V100.171M34.8361 100.171H28.8852M34.8361 100.171H40.7869M40.7869 100.171V110.933H99.2131V100.171M99.2131 100.171H105.164M111.115 100.171H105.164M105.164 100.171V88.8714M4 110.933H136V126H4V110.933ZM12.6557 103.4H32.1311V110.933H12.6557V103.4ZM107.869 103.4H127.344V110.933H107.869V103.4ZM4 13H136V21.6095H120.852H130.59V30.219H9.40984V21.6095H93.2623H4V13Z" stroke="#F07E26" stroke-width="1.8" stroke-linecap="square"/>
</svg>
