<svg width="140" height="140" viewBox="0 0 140 140" fill="none" xmlns="http://www.w3.org/2000/svg">
<path d="M97 79C97 75.6566 96.3923 72.4551 95.2813 69.5M97 79H102.5M97 79V87.5M43 79C43 71.3343 46.1946 64.4147 51.3251 59.5M43 79H32M43 79V88.5M98.5 25H108M123 116.5H111M100 116.5H106M58 103H47V99H51.7826M82 103H93V99H88.2174M63.3118 87.0407C62.3331 82.0031 58.2462 79.3731 55.5 78C54.3497 80.2502 53 82.7993 53 85.5C53 94.6127 60.3873 102 69.5 102C78.6127 102 86 94.6127 86 85.5C86 82.5 84.6503 81.7502 83.5 79.5C81.7991 84.5 79.5 83.5 78 87C80.5 75 74 74 71.5 66C61.8979 72.8586 62.61 81.5292 63.3118 87.0407ZM63.3118 87.0407C63.4023 87.5063 63.4662 87.9924 63.5 88.5C63.443 88.0439 63.3774 87.5561 63.3118 87.0407ZM32 50.5V46H20V101H32V98M32 50.5V59.5M32 50.5H37M108 50.5V46H120V101H108V98M108 50.5V59.5M108 50.5H102M95 50.5V42V41M95 50.5H102M95 50.5H86.625M105 41V46H123V33H105V41ZM105 41H95M95 41H93M35 41V33H17V46H35V41ZM35 41H44.5M44.5 41V50.5M44.5 41H45.5M44.5 50.5H37M44.5 50.5H52.428M61.5 50.5V41M61.5 50.5H52.428M61.5 50.5H66.5M61.5 41H54.5M61.5 41H65M78.25 41V50.5M78.25 41H74M78.25 41H83.5M78.25 50.5H86.625M78.25 50.5H76.5M93 41V37.5M93 41H83.5M45.5 37.5V41M45.5 41H54.5M54.5 41V37.5M65 37.5V41M65 41H74M74 41V37.5M83.5 37.5V41M32 59.5H37M32 59.5V69.5M51.3251 59.5H37M51.3251 59.5C51.6834 59.1567 52.0512 58.8233 52.428 58.5M88.6749 59.5H102M88.6749 59.5C88.0221 58.8746 87.3379 58.2817 86.625 57.7239M88.6749 59.5C91.5677 62.2712 93.8451 65.6797 95.2813 69.5M108 59.5H102M108 59.5V69.5M102 59.5V50.5M86.625 50.5V57.7239M86.625 57.7239C83.6798 55.4192 80.2438 53.7128 76.5 52.7876M37 50.5V59.5M52.428 58.5V50.5M52.428 58.5C56.3159 55.1643 61.1636 52.9155 66.5 52.2248M66.5 50.5V52.2248M66.5 50.5H76.5M66.5 52.2248C67.6457 52.0765 68.8139 52 70 52C72.2409 52 74.4181 52.273 76.5 52.7876M76.5 50.5V52.7876M32 69.5H45M32 69.5V79M95.2813 69.5H102.5M108 69.5V79M108 69.5H102.5M32 79V88.5M108 79H102.5M108 79V87.5M102.5 79V69.5M108 87.5V98M108 87.5H102.5M97 87.5V98M97 87.5H102.5M43 88.5H37.5M43 88.5V98M32 88.5H37.5M32 88.5V98M37.5 88.5V98M37.5 98H32M37.5 98H43M43 98V108H97V98M97 98H102.5M108 98H102.5M102.5 98V87.5M9 108H131V122H9V108ZM17 101H35V108H17V101ZM105 101H123V108H105V101ZM9 17H131V25H117H126V33H14V25H91.5H9V17Z" stroke="#B77D0D" stroke-width="1.5" stroke-linecap="round" stroke-linejoin="round"/>
</svg>
