<svg width="140" height="140" viewBox="0 0 140 140" fill="none" xmlns="http://www.w3.org/2000/svg">
<path d="M80.5085 38.6316H70V33.3684H76.8305M80.5085 38.6316V46M80.5085 38.6316H121.492M121.492 46V38.6316M121.492 38.6316H132V33.3684H93.1186M76.8305 33.3684H93.1186M76.8305 33.3684V28.1053M93.1186 33.3684V26.5263M93.1186 26.5263V13.3684H76.8305V28.1053M93.1186 26.5263L87.8644 21.2632L76.8305 28.1053M98.8983 6H123.068M98.8983 6V33.3684M98.8983 6L105.203 13.3684M123.068 6V33.3684M123.068 6L116.763 13.3684M123.068 33.3684H98.8983M123.068 33.3684L116.763 26M98.8983 33.3684L105.203 26M105.203 13.3684H116.763M105.203 13.3684V26M116.763 13.3684V26M116.763 26H105.203" stroke="#F07E26" stroke-width="1.8" stroke-linecap="square"/>
<path d="M16.3848 27.5512H21.6412M31.6284 27.5512L26.8976 22.8205M31.6284 27.5512L34.2566 30.1794M31.6284 27.5512L29.0002 30.1794M31.6284 27.5512L40.0386 19.141M41.6156 27.5512H46.872M31.6284 42.7948V37.5384M31.6284 17.5641V12.3076M48.9745 27.5512C48.9745 37.1312 41.2084 44.8974 31.6284 44.8974C22.0484 44.8974 14.2822 37.1312 14.2822 27.5512C14.2822 17.9712 22.0484 10.2051 31.6284 10.2051C41.2084 10.2051 48.9745 17.9712 48.9745 27.5512Z" stroke="#F07E26" stroke-width="1.8" stroke-linecap="square"/>
<path d="M19.6 79.7925V73.4528H30.1V79.7925M19.6 79.7925H24.85M19.6 79.7925L10.15 110.698M30.1 79.7925H24.85M30.1 79.7925L39.55 110.698M24.85 79.7925V93.5283M7 121L10.15 110.698M10.15 110.698H24.85H39.55M42.7 121L39.55 110.698M109.9 79.7925V73.4528H120.4V79.7925M109.9 79.7925H115.15M109.9 79.7925L100.45 110.698M120.4 79.7925H115.15M120.4 79.7925L129.85 110.698M115.15 79.7925V93.5283M97.3 121L100.45 110.698M100.45 110.698H115.15H129.85M133 121L129.85 110.698M56.35 73.4528H7V65H133V73.4528H83.65" stroke="#F07E26" stroke-width="1.8" stroke-linecap="square"/>
<path d="M45 77.3846H50.3922M50.3922 77.3846H50.9346C53.7913 77.3846 56.2879 75.4563 57.0098 72.6923V72.6923C57.7317 69.9283 60.2283 68 63.085 68H70H77.1859C79.892 68 82.2659 69.9192 82.9902 72.6923C83.7145 75.4654 86.0884 77.3846 88.7945 77.3846H89.6078M50.3922 77.3846V82.6325C50.3922 89.8122 56.2125 95.6325 63.3922 95.6325H64.1176M64.1176 95.6325H70H75.8824M64.1176 95.6325L60.671 105.017M64.1176 95.6325L88.1373 129L79.329 105.017M60.671 105.017L51.8627 129L75.8824 95.6325M60.671 105.017H70H79.329M95 77.3846H89.6078M89.6078 77.3846V82.0769C89.6078 89.5634 83.9017 95.6325 76.8627 95.6325H75.8824M75.8824 95.6325L79.329 105.017" stroke="#F07E26" stroke-width="1.8" stroke-linecap="square"/>
</svg>
