<svg width="140" height="140" viewBox="0 0 140 140" fill="none" xmlns="http://www.w3.org/2000/svg">
<path d="M80 43H70V38H76.5M80 43V50M80 43H119M119 50V43M119 43H129V38H92M76.5 38H92M76.5 38V33M92 38V31.5M92 31.5V19H76.5V33M92 31.5L87 26.5L76.5 33M97.5 12H120.5M97.5 12V38M97.5 12L103.5 19M120.5 12V38M120.5 12L114.5 19M120.5 38H97.5M120.5 38L114.5 31M97.5 38L103.5 31M103.5 19H114.5M103.5 19V31M114.5 19V31M114.5 31H103.5" stroke="#B77D0D" stroke-width="1.5" stroke-linecap="round" stroke-linejoin="round"/>
<path d="M19 32.5H24M33.5 32.5L29 28M33.5 32.5L36 35M33.5 32.5L31 35M33.5 32.5L41.5 24.5M43 32.5H48M33.5 47V42M33.5 23V18M50 32.5C50 41.6127 42.6127 49 33.5 49C24.3873 49 17 41.6127 17 32.5C17 23.3873 24.3873 16 33.5 16C42.6127 16 50 23.3873 50 32.5Z" stroke="#B77D0D" stroke-width="1.5" stroke-linecap="round" stroke-linejoin="round"/>
<path d="M22 82V76H32V82M22 82H27M22 82L13 111.25M32 82H27M32 82L41 111.25M27 82V95M10 121L13 111.25M13 111.25H27H41M44 121L41 111.25M108 82V76H118V82M108 82H113M108 82L99 111.25M118 82H113M118 82L127 111.25M113 82V95M96 121L99 111.25M99 111.25H113H127M130 121L127 111.25M57.5 76H10V69H130V76H82.5" stroke="#B77D0D" stroke-width="1.5" stroke-linecap="round" stroke-linejoin="round"/>
<path d="M46 79.9231H51.1765M51.1765 79.9231H51.7389C54.4582 79.9231 56.8361 78.0909 57.5294 75.4615V75.4615C58.2228 72.8322 60.6007 71 63.3199 71H70H76.8985C79.4963 71 81.7753 72.8248 82.4706 75.4615C83.1659 78.0983 85.4449 79.9231 88.0427 79.9231H88.8235M51.1765 79.9231V84.2735C51.1765 91.4532 56.9968 97.2735 64.1765 97.2735H64.3529M64.3529 97.2735H70H75.6471M64.3529 97.2735L61.0441 106.197M64.3529 97.2735L87.4118 129L78.9559 106.197M61.0441 106.197L52.5882 129L75.6471 97.2735M61.0441 106.197H70H78.9559M94 79.9231H88.8235M88.8235 79.9231V84.3846C88.8235 91.503 83.3456 97.2735 76.5882 97.2735H75.6471M75.6471 97.2735L78.9559 106.197" stroke="#B77D0D" stroke-width="1.5" stroke-linecap="round" stroke-linejoin="round"/>
</svg>
