<svg width="140" height="140" viewBox="0 0 140 140" fill="none" xmlns="http://www.w3.org/2000/svg">
<path d="M3 19H64V124M3 19L3 124M3 19H30V124H3M64 124H3M64 124V118H3V124M64 124H100V78.5M64 124V75M64 124H137V75H64M64 75H100V78.5M33.5 35.5L36.5 38.5V109M7 66H25M69 80H94M69 80V117H94V80M69 80V90M94 80V90M94 90H69M94 90V100H69V90M80 94.5H83M80 85H83M80 104H83M100 78.5H131.5M107 90H130M118.5 103L122 99.5M125.5 103L118.5 110M106.5 66H123M130 66H123M116 56C115.833 57 115.7 58.3 116.5 59.5C117.3 60.7 116.167 62.6667 115.5 63M120 63C121 62.5 122.4 59.7 120 58.5M123 66H110V70C110 72.7614 112.239 75 115 75H122C124.761 75 127 72.7614 127 70V66H123ZM123 66V69.5M73 48H87C89.7614 48 92 50.2386 92 53V67.5H88M73 48V67.5H78M73 48C71.3431 48 70 49.3431 70 51V51.5M70 51.5H72H73M70 51.5H68.5H66M92 51.5H97.5H98M78 67.5V59.5M78 67.5H83M83 67.5V61M83 67.5H88M88 67.5V56M10 66H14V71H10V66ZM17 66H21V71H17V66ZM7 61H25V78H7V61ZM111 84C111 85.1046 110.105 86 109 86C107.895 86 107 85.1046 107 84C107 82.8954 107.895 82 109 82C110.105 82 111 82.8954 111 84ZM120 84C120 85.1046 119.105 86 118 86C116.895 86 116 85.1046 116 84C116 82.8954 116.895 82 118 82C119.105 82 120 82.8954 120 84ZM129 84C129 85.1046 128.105 86 127 86C125.895 86 125 85.1046 125 84C125 82.8954 125.895 82 127 82C128.105 82 129 82.8954 129 84ZM107 94H130V117H107V94Z" stroke="#F07E26" stroke-width="1.8" stroke-linecap="square"/>
</svg>
