<svg width="140" height="140" viewBox="0 0 140 140" fill="none" xmlns="http://www.w3.org/2000/svg">
<path d="M13 88V93.5M13 88V26C13 16.6112 20.6112 9 30 9H37C45.8366 9 53 16.1634 53 25V25M13 88H71.2289M13 93.5V98C13 111.807 24.1929 123 38 123H102C115.807 123 127 111.807 127 98V93.5M13 93.5H71M127 93.5V88H102M127 93.5H95M100.594 116H103C111.284 116 118 109.284 118 101M97 116H94M69.5 40H36.5M38 47V50.5M38 57.5V60M38 68.5V73.5M38 77.5V80M45 47V49.5M45 55.5V62.5M45 67V70M45 78.5V81.5M52 47V52M52 59.5V62.5M52 71V75.5M59 47V50.5M59 56.5V61M59 66.5V70.5M59 80.5V84M66 47V51.5M66 59.5V62M66 68V72.5M66 77.5V80M95 88V111.5H89M95 88C95 86.067 96.067 84.5 98 84.5M95 88H102M98 84.5H76C73.7612 84.5 71.866 85.9714 71.2289 88M98 84.5H98.5C100.433 84.5 102 86.067 102 88V88M76.5 111.5H71V89.5C71 88.9774 71.0802 88.4735 71.2289 88M76.5 111.5V106.5M76.5 111.5H83M83 111.5H89M83 111.5V106.5M89 111.5V106.5M36.5 123H43.5L41 131H34L36.5 123ZM104.5 123H97.5L100 131H107L104.5 123ZM69.5 35H36.5L47.5 25H58.5L69.5 35Z" stroke="#F07E26" stroke-width="1.8" stroke-linecap="square"/>
</svg>
