<svg width="116" height="124" viewBox="0 0 116 124" fill="none" xmlns="http://www.w3.org/2000/svg">
<path d="M1 80V85.5M1 80V18C1 8.61116 8.61116 1 18 1H25C33.8366 1 41 8.16344 41 17V17M1 80H59.2289M1 85.5V90C1 103.807 12.1929 115 26 115H90C103.807 115 115 103.807 115 90V85.5M1 85.5H59M115 85.5V80H90M115 85.5H83M88.5937 108H91C99.2843 108 106 101.284 106 93M85 108H82M57.5 32H24.5M26 39V42.5M26 49.5V52M26 60.5V65.5M26 69.5V72M33 39V41.5M33 47.5V54.5M33 59V62M33 70.5V73.5M40 39V44M40 51.5V54.5M40 63V67.5M47 39V42.5M47 48.5V53M47 58.5V62.5M47 72.5V76M54 39V43.5M54 51.5V54M54 60V64.5M54 69.5V72M83 80V103.5H77M83 80C83 78.067 84.067 76.5 86 76.5M83 80H90M86 76.5H64C61.7612 76.5 59.866 77.9714 59.2289 80M86 76.5H86.5C88.433 76.5 90 78.067 90 80V80M64.5 103.5H59V81.5C59 80.9774 59.0802 80.4735 59.2289 80M64.5 103.5V98.5M64.5 103.5H71M71 103.5H77M71 103.5V98.5M77 103.5V98.5M24.5 115H31.5L29 123H22L24.5 115ZM92.5 115H85.5L88 123H95L92.5 115ZM57.5 27H24.5L35.5 17H46.5L57.5 27Z" stroke="#B77D0D" stroke-width="1.5" stroke-linecap="round" stroke-linejoin="round"/>
</svg>
