<svg width="140" height="140" viewBox="0 0 140 140" fill="none" xmlns="http://www.w3.org/2000/svg">
<path d="M123 79.944V75C123 72.7909 124.791 71 127 71V71C129.209 71 131 72.7909 131 75V120H123V113H18V120H10V75C10 72.7909 11.7909 71 14 71V71C16.2091 71 18 72.7909 18 75V79.4882M123 79.944C121.642 79.2839 119.963 78.6552 118 78.0651M123 79.944V85H18V79.4882M18 79.4882C19.4044 78.8863 21.0812 78.3132 23 77.7747M34 43H38.5M44.5 43L108 43M23 77.7747V32C23 29.7909 24.7909 28 27 28V28C29.2091 28 31 29.7909 31 32V38H110V32C110 29.7909 111.791 28 114 28V28C116.209 28 118 29.7909 118 32V78.0651M23 77.7747C26.6703 76.7447 31.2261 75.8413 36.4556 75.1056M118 78.0651C114.625 77.0506 110.41 76.1501 105.544 75.4002M31.5 94H123V104H18V94H27M36.4556 75.1056V69.2C34.3136 68.1375 34 63.8115 34 62.375C34 58.856 41.65 56 51 56C60.35 56 68 58.856 68 62.375C68 63.8115 67.6864 68.1375 65.5444 69.2V73.0331M36.4556 75.1056C44.7419 73.9397 54.7193 73.1946 65.5444 73.0331M65.5444 73.0331C67.0147 73.0112 68.5006 73 70 73C72.1827 73 74.3367 73.0237 76.4556 73.0698M76.4556 73.0698V69.2C74.3136 68.1375 74 63.8115 74 62.375C74 58.856 81.65 56 91 56C100.35 56 108 58.856 108 62.375C108 63.8115 107.686 68.1375 105.544 69.2V75.4002M76.4556 73.0698C87.3863 73.3076 97.3809 74.1419 105.544 75.4002" stroke="#B77D0D" stroke-width="1.5" stroke-linecap="round" stroke-linejoin="round"/>
<path d="M46.7139 61.7124L48.4816 63.4802" stroke="#B77D0D" stroke-width="1.5" stroke-linecap="round" stroke-linejoin="round"/>
<path d="M52.3711 67.3691L54.1389 69.1369" stroke="#B77D0D" stroke-width="1.5" stroke-linecap="round" stroke-linejoin="round"/>
<path d="M46.7129 69.1367L48.4807 67.369" stroke="#B77D0D" stroke-width="1.5" stroke-linecap="round" stroke-linejoin="round"/>
<path d="M52.3701 63.48L54.1379 61.7122" stroke="#B77D0D" stroke-width="1.5" stroke-linecap="round" stroke-linejoin="round"/>
<path d="M86.7139 61.7129L88.4816 63.4807" stroke="#B77D0D" stroke-width="1.5" stroke-linecap="round" stroke-linejoin="round"/>
<path d="M92.3701 67.3691L94.1379 69.1369" stroke="#B77D0D" stroke-width="1.5" stroke-linecap="round" stroke-linejoin="round"/>
<path d="M86.7129 69.1367L88.4807 67.369" stroke="#B77D0D" stroke-width="1.5" stroke-linecap="round" stroke-linejoin="round"/>
<path d="M92.3701 63.48L94.1379 61.7122" stroke="#B77D0D" stroke-width="1.5" stroke-linecap="round" stroke-linejoin="round"/>
</svg>
