<svg width="140" height="140" viewBox="0 0 140 140" fill="none" xmlns="http://www.w3.org/2000/svg">
<path d="M51 11H12V50M51 11V50M51 11H90M51 50H12M51 50H90M51 50V89M12 50V89M90 11V50M90 11H129V50M90 50H129M90 50V89M129 50V89M33.5018 42C32.5223 44.349 30.2039 46 27.5 46M95 43V50H101M95 43H101M95 43V36H101M126 43V50H120M126 43H120M126 43V36H120M101 43V50M101 43H120M101 43V36M101 50H120M120 50V43M120 43V36M101 36H120M51 89H12M51 89H90M51 89V128M12 89V128H16.7176H23.3173H51M90 89V128M90 89H129M90 89H94.7176M90 128H51M90 128H129V89M129 89H101.317M119 58H113V89H119M119 58V89M119 58H125V89H119M94.7176 89L107.545 61.0009L113 63.5L101.317 89M94.7176 89H101.317M35.0003 97H41.0003M35.0003 97V128M35.0003 97H29.0003V104M41.0003 97V128M41.0003 97H47.0002V104M41.0003 128H35.0003M41.0003 128H47.0002V104M35.0003 128H29.0003V104M29.0003 104H47.0002M38 39.5C38 45.299 33.299 50 27.5 50C21.701 50 17 45.299 17 39.5C17 34.9282 19.9218 31.0389 24 29.5975V24H31V29.5975C35.0782 31.0389 38 34.9282 38 39.5ZM17 55H46V84H17V55ZM42 64H46V75H42V64ZM85 55H56V84H85V55ZM60 64H56V75H60V64ZM56 94H85V123H56V94ZM81 103H85V114H81V103ZM124 94H95V123H124V94ZM99 103H95V114H99V103Z" stroke="#B77D0D" stroke-width="1.5" stroke-linecap="round" stroke-linejoin="round"/>
</svg>
