<svg width="140" height="140" viewBox="0 0 140 140" fill="none" xmlns="http://www.w3.org/2000/svg">
<path d="M13 12H127M13 124V119C13 116.239 15.2386 114 18 114H122C124.761 114 127 116.239 127 119V124M13 124C10.7909 124 9 125.791 9 128C9 130.209 10.7909 132 13 132C15.2091 132 17 130.209 17 128C17 125.791 15.2091 124 13 124ZM127 124C124.791 124 123 125.791 123 128C123 130.209 124.791 132 127 132C129.209 132 131 130.209 131 128C131 125.791 129.209 124 127 124ZM99.3402 63L107 103H91.4997M99.3402 63H91.4997M99.3402 63L99.6593 59M69.6593 63L61.9997 103L91.4997 105.5V103M69.6593 63H91.4997M69.6593 63L69.3402 59M66.787 27L69.3402 59M66.787 27C64.9332 31.3564 63.3479 36.1727 62 41.143C59.2382 51.3268 57.4729 62.1568 56.4366 71M66.787 27H66.9619M71.4997 27L74.4997 22.75L77.4997 18.5M71.4997 27H66.9619M71.4997 27H76.5515M77.4997 18.5H84.4997M77.4997 18.5L81.6032 27M84.4997 18.5H91.4997M84.4997 18.5V17C86.7089 17 88.4997 15.2091 88.4997 13C88.4997 10.7909 86.7089 9 84.4997 9C82.2906 9 80.4997 10.7909 80.4997 13C80.4997 13.5305 80.603 14.0368 80.7905 14.5M84.4997 18.5V22M91.4997 18.5L94.4997 22.75L97.4997 27M91.4997 18.5L87.3963 27M97.4997 27H102.213M97.4997 27H92.448M84.4997 33L87.3963 27M84.4997 33L87.9997 40.25M84.4997 33L81.6032 27M87.3963 27L96.9997 34L87.9997 40.25M102.213 27L99.6593 59M102.213 27C110.213 45.8 113.213 73.1667 113.713 84.5H107.713C106.046 76.1667 100.9 57.3 100.5 48.5M87.9997 40.25L91.4997 47.5M91.4997 47.5L72.4997 34L81.6032 27M91.4997 47.5V59M91.4997 59V63M91.4997 59H99.6593M91.4997 59H69.3402M91.4997 63V103M68.4999 48.5C68.0999 57.3 62.9538 76.1667 61.2871 84.5H55.2871C55.4339 81.1738 55.7959 76.4665 56.4366 71M49 21H43C41.9869 21 40.9945 21.0886 40.0301 21.2585M49 21H54C55.3723 21 56.7065 21.1626 57.9846 21.4696M49 21V17C51.2091 17 53 15.2091 53 13C53 10.7909 51.2091 9 49 9C46.7909 9 45 10.7909 45 13C45 13.5305 45.1033 14.0368 45.2908 14.5M40.0301 21.2585C32.0572 22.6633 26 29.6243 26 38V45H35M40.0301 21.2585C40.0102 21.5031 40 21.7503 40 22C40 26.9706 44.0294 30 49 30C53.9706 30 58 26.9706 58 22C58 21.8219 57.9948 21.6451 57.9846 21.4696M57.9846 21.4696C61.544 22.3244 64.6675 24.299 66.9619 27M35 45V71H56.4366M35 45V38M20 12H120V114H20V12Z" stroke="#F07E26" stroke-width="1.8" stroke-linecap="square"/>
<circle cx="80" cy="70" r="1" fill="#F07E26"/>
<circle cx="80" cy="83" r="1" fill="#F07E26"/>
<circle cx="80" cy="50" r="1" fill="#F07E26"/>
<circle cx="88" cy="70" r="1" fill="#F07E26"/>
<circle cx="88" cy="83" r="1" fill="#F07E26"/>
<circle cx="88" cy="50" r="1" fill="#F07E26"/>
</svg>
