<svg width="140" height="140" viewBox="0 0 140 140" fill="none" xmlns="http://www.w3.org/2000/svg">
<path d="M128.934 61.8361H22.041M128.934 61.8361H117.057M128.934 61.8361V69.582M22.041 61.8361H33.918M22.041 61.8361H10.1639V69.582M22.041 61.8361V97.9836M10.1639 123.803V69.582M10.1639 55.6393C13.0159 55.6393 15.3279 53.3274 15.3279 50.4754C15.3279 47.6234 13.0159 45.3115 10.1639 45.3115C7.31197 45.3115 5 47.6234 5 50.4754C5 53.3274 7.31197 55.6393 10.1639 55.6393ZM10.1639 55.6393V69.582M10.1639 128.967V69.582M128.934 123.803V69.582M128.934 55.6393C131.786 55.6393 134.098 53.3274 134.098 50.4754C134.098 47.6234 131.786 45.3115 128.934 45.3115C126.082 45.3115 123.77 47.6234 123.77 50.4754C123.77 53.3274 126.082 55.6393 128.934 55.6393ZM128.934 55.6393V69.582M128.934 130V69.582M33.918 61.8361H45.7951M33.918 61.8361V105.17M45.7951 61.8361H57.6721M45.7951 61.8361V105.17M57.6721 61.8361H69.5492M57.6721 61.8361V105.17M69.5492 61.8361H81.4262M69.5492 61.8361V105.17M81.4262 61.8361H93.3033M81.4262 61.8361V105.17M93.3033 61.8361H105.18M93.3033 61.8361V105.17M105.18 61.8361H117.057M105.18 61.8361V105.17M117.057 61.8361V97.9836M10.1639 97.9836V115.541V122.77M10.1639 97.9836V114.078V120.705H14.5963C16.1411 120.705 17.3934 119.453 17.3934 117.908C17.3934 116.363 18.6458 115.111 20.1906 115.111H22.041H33.918H45.7951H57.6721H69.5492H81.4262H93.3033H105.18H109.311H117.057H118.908C120.453 115.111 121.705 116.363 121.705 117.908C121.705 119.453 122.957 120.705 124.502 120.705H128.934V114.078V97.9836H117.057M10.1639 97.9836H22.041M22.041 97.9836H24.1066C25.8177 97.9836 27.2049 99.3708 27.2049 101.082V103.104C27.2049 104.245 28.1297 105.17 29.2705 105.17H33.918M33.918 105.17H45.7951M45.7951 105.17H57.6721M57.6721 105.17H69.5492M69.5492 105.17H81.4262M81.4262 105.17H93.3033M93.3033 105.17H105.18M105.18 105.17H109.828C110.969 105.17 111.893 104.245 111.893 103.104V101.082C111.893 99.3708 113.281 97.9836 114.992 97.9836H117.057M10.1639 69.582H128.934M69.6836 11.2295C62.7752 11.2295 56.6211 14.4595 52.6493 19.4918M69.6836 11.2295C76.5921 11.2295 82.7461 14.4595 86.7179 19.4918M69.6836 11.2295C66.3328 11.2295 63.3479 14.4595 61.4215 19.4918M69.6836 11.2295C73.0345 11.2295 76.0196 14.4595 77.946 19.4918M69.6836 11.2295V4M52.6492 25.1721V23.623M52.6492 40.1475V41.1803M86.9187 36.5328V37.0492M70.0185 31.3689V30.3361M70.0185 46.8607V47.8934M70.0187 19.4918V20.5246M52.6492 27.7541L54.5432 31.8603L59.0337 32.3927L55.7137 35.463L56.595 39.8982L52.6492 37.6895L48.7033 39.8982L49.5846 35.463L46.2646 32.3927L50.7551 31.8603L52.6492 27.7541ZM54.7147 46.3443C54.7147 47.485 53.7899 48.4098 52.6492 48.4098C51.5084 48.4098 50.5836 47.485 50.5836 46.3443C50.5836 45.2035 51.5084 44.2787 52.6492 44.2787C53.7899 44.2787 54.7147 45.2035 54.7147 46.3443ZM86.9187 23.623L88.8127 27.7292L93.3033 28.2616L89.9833 31.3318L90.8646 35.7671L86.9187 33.5584L82.9729 35.7671L83.8541 31.3318L80.5342 28.2616L85.0247 27.7292L86.9187 23.623ZM88.9843 43.2459C88.9843 44.3867 88.0595 45.3115 86.9187 45.3115C85.7779 45.3115 84.8531 44.3867 84.8531 43.2459C84.8531 42.1051 85.7779 41.1803 86.9187 41.1803C88.0595 41.1803 88.9843 42.1051 88.9843 43.2459ZM70.0185 33.9508L71.9125 38.057L76.403 38.5895L73.0831 41.6597L73.9643 46.095L70.0185 43.8862L66.0726 46.095L66.9539 41.6597L63.6339 38.5895L68.1244 38.057L70.0185 33.9508ZM72.084 52.541C72.084 53.6818 71.1593 54.6066 70.0185 54.6066C68.8777 54.6066 67.9529 53.6818 67.9529 52.541C67.9529 51.4002 68.8777 50.4754 70.0185 50.4754C71.1593 50.4754 72.084 51.4002 72.084 52.541ZM72.0843 25.1721C72.0843 26.3129 71.1595 27.2377 70.0187 27.2377C68.8779 27.2377 67.9531 26.3129 67.9531 25.1721C67.9531 24.0313 68.8779 23.1066 70.0187 23.1066C71.1595 23.1066 72.0843 24.0313 72.0843 25.1721Z" stroke="#F07E26" stroke-width="1.8" stroke-linecap="square"/>
</svg>
