<svg width="140" height="140" viewBox="0 0 140 140" fill="none" xmlns="http://www.w3.org/2000/svg">
<path d="M128 65H24.5M128 65H116.5M128 65V72.5M24.5 65H36M24.5 65H13V72.5M24.5 65V100M13 125V72.5M13 59C15.7614 59 18 56.7614 18 54C18 51.2386 15.7614 49 13 49C10.2386 49 8 51.2386 8 54C8 56.7614 10.2386 59 13 59ZM13 59V72.5M13 130V72.5M128 125V72.5M128 59C130.761 59 133 56.7614 133 54C133 51.2386 130.761 49 128 49C125.239 49 123 51.2386 123 54C123 56.7614 125.239 59 128 59ZM128 59V72.5M128 131V72.5M36 65H47.5M36 65V106.958M47.5 65H59M47.5 65V106.958M59 65H70.5M59 65V106.958M70.5 65H82M70.5 65V106.958M82 65H93.5M82 65V106.958M93.5 65H105M93.5 65V106.958M105 65H116.5M105 65V106.958M116.5 65V100M13 100V117V124M13 100V115.583V122H17.2917C18.7874 122 20 120.787 20 119.292C20 117.796 21.2126 116.583 22.7083 116.583H24.5H36H47.5H59H70.5H82H93.5H105H109H116.5H118.292C119.787 116.583 121 117.796 121 119.292C121 120.787 122.213 122 123.708 122H128V115.583V100H116.5M13 100H24.5M24.5 100H26.5C28.1569 100 29.5 101.343 29.5 103V104.958C29.5 106.063 30.3954 106.958 31.5 106.958H36M36 106.958H47.5M47.5 106.958H59M59 106.958H70.5M70.5 106.958H82M82 106.958H93.5M93.5 106.958H105M105 106.958H109.5C110.605 106.958 111.5 106.063 111.5 104.958V103C111.5 101.343 112.843 100 114.5 100H116.5M13 72.5H128M70.6302 16C63.941 16 57.9824 19.1275 54.1366 24M70.6302 16C77.3193 16 83.278 19.1275 87.1237 24M70.6302 16C67.3857 16 64.4956 19.1275 62.6303 24M70.6302 16C73.8747 16 76.765 19.1275 78.6303 24M70.6302 16V9M54.1365 29.5V28M54.1365 44V45M87.3181 40.5V41M70.9544 35.5V34.5M70.9544 50.5V51.5M70.9546 24V25M54.1365 32L55.9704 35.9759L60.3184 36.4914L57.1038 39.4641L57.9571 43.7586L54.1365 41.62L50.3159 43.7586L51.1692 39.4641L47.9546 36.4914L52.3026 35.9759L54.1365 32ZM56.1365 50C56.1365 51.1046 55.2411 52 54.1365 52C53.0319 52 52.1365 51.1046 52.1365 50C52.1365 48.8954 53.0319 48 54.1365 48C55.2411 48 56.1365 48.8954 56.1365 50ZM87.3181 28L89.152 31.9759L93.5 32.4914L90.2854 35.4641L91.1387 39.7586L87.3181 37.62L83.4975 39.7586L84.3508 35.4641L81.1363 32.4914L85.4842 31.9759L87.3181 28ZM89.3181 47C89.3181 48.1046 88.4227 49 87.3181 49C86.2136 49 85.3181 48.1046 85.3181 47C85.3181 45.8954 86.2136 45 87.3181 45C88.4227 45 89.3181 45.8954 89.3181 47ZM70.9544 38L72.7883 41.9759L77.1363 42.4914L73.9217 45.4641L74.775 49.7586L70.9544 47.62L67.1338 49.7586L67.9871 45.4641L64.7725 42.4914L69.1205 41.9759L70.9544 38ZM72.9544 56C72.9544 57.1046 72.059 58 70.9544 58C69.8498 58 68.9544 57.1046 68.9544 56C68.9544 54.8954 69.8498 54 70.9544 54C72.059 54 72.9544 54.8954 72.9544 56ZM72.9546 29.5C72.9546 30.6046 72.0592 31.5 70.9546 31.5C69.8501 31.5 68.9546 30.6046 68.9546 29.5C68.9546 28.3954 69.8501 27.5 70.9546 27.5C72.0592 27.5 72.9546 28.3954 72.9546 29.5Z" stroke="#B77D0D" stroke-width="1.5" stroke-linecap="round" stroke-linejoin="round"/>
</svg>
