<svg width="140" height="140" viewBox="0 0 140 140" fill="none" xmlns="http://www.w3.org/2000/svg">
<path d="M14.8455 24H122.5M128.285 24H126M136 24V13H5V24M136 24V20M136 24H126M5 24V20M5 24H122.5M124.557 18H129.35M87.5407 18H121M136 127.5V115H115.263M136 127.5H5M136 127.5V122H116.875M5 127.5V115H34.5H14.8455V54M5 127.5V122H16.5M23 122H89.1564M39.5 115H90.7684M19 54V111H90.2379M19 54H14.8455M19 54H124M14.8455 54H10L15 44H128L133 54H128.285M128.285 54V115H115.263M128.285 54H124M124 54V111H115.794M126 24H128L133 34H10L15 24H122.5M126 24H122.5M89.094 102.373H116.938M89.094 102.373C87.9549 102.373 87.0315 101.445 87.0315 100.3V98.226C87.0315 97.0807 87.9549 96.1523 89.094 96.1523H116.938C118.077 96.1523 119 97.0807 119 98.226V100.3C119 101.445 118.077 102.373 116.938 102.373M89.094 102.373L90.2379 111M116.938 102.373L115.794 111M99.7131 82.2613C99.8261 72.8151 93.7554 72.0503 90.8354 73.6682C90.5361 76.7116 91.8925 82.691 99.7131 82.2613ZM99.7131 82.2613C100.493 84.3178 101.878 88.3523 102.765 92.0046M103.531 96.1523C103.458 95.4139 103.324 94.5902 103.148 93.7185M99.9218 91.5373C95.7968 82.7238 88.5781 84.2793 86 86.8715C87.0312 89.8092 91.2593 94.8551 99.9218 91.5373ZM99.9218 91.5373C100.698 91.9716 102.43 93.0157 103.148 93.7185M103.148 93.7185C103.036 93.1634 102.907 92.5889 102.765 92.0046M105.44 86.4668C107.423 76.6249 115.03 76.4038 118.244 78.3641C117.927 81.5599 114.923 87.6545 105.44 86.4668ZM105.44 86.4668C104.354 87.377 102.297 89.7589 102.765 92.0046M90.2379 111L90.7684 115M90.7684 115L91.1564 117.926L89.1564 122M115.794 111L115.263 115M115.263 115L114.875 117.926L116.875 122M116.875 122H89.1564M15 34H128L133 44H10L15 34Z" stroke="#F07E26" stroke-width="1.8" stroke-linecap="square"/>
</svg>
