<svg width="140" height="140" viewBox="0 0 140 140" fill="none" xmlns="http://www.w3.org/2000/svg">
<path d="M14.8455 23H122.5M128.285 23H126M136 23V12H5V23M136 23V19M136 23H126M5 23V19M5 23H122.5M124.557 17H129.35M87.5407 17H121M136 127V116H115.263M136 127H5M136 127V123H116.875M5 127V116H34.5H14.8455V53M5 127V123H16.5M23 123H89.1564M39.5 116H90.7684M19 53V112H90.2379M19 53H14.8455M19 53H124M14.8455 53H10L15 43H128L133 53H128.285M128.285 53V116H115.263M128.285 53H124M124 53V112H115.794M126 23H128L133 33H10L15 23H122.5M126 23H122.5M89.094 103.373H116.938M89.094 103.373C87.9549 103.373 87.0315 102.445 87.0315 101.3V99.226C87.0315 98.0807 87.9549 97.1523 89.094 97.1523H116.938C118.077 97.1523 119 98.0807 119 99.226V101.3C119 102.445 118.077 103.373 116.938 103.373M89.094 103.373L90.2379 112M116.938 103.373L115.794 112M99.7131 83.2613C99.8261 73.8151 93.7554 73.0503 90.8354 74.6682C90.5361 77.7116 91.8925 83.691 99.7131 83.2613ZM99.7131 83.2613C100.493 85.3178 101.878 89.3523 102.765 93.0046M103.531 97.1523C103.458 96.4139 103.324 95.5902 103.148 94.7185M99.9218 92.5373C95.7968 83.7238 88.5781 85.2793 86 87.8715C87.0312 90.8092 91.2593 95.8551 99.9218 92.5373ZM99.9218 92.5373C100.698 92.9716 102.43 94.0157 103.148 94.7185M103.148 94.7185C103.036 94.1634 102.907 93.5889 102.765 93.0046M105.44 87.4668C107.423 77.6249 115.03 77.4038 118.244 79.3641C117.927 82.5599 114.923 88.6545 105.44 87.4668ZM105.44 87.4668C104.354 88.377 102.297 90.7589 102.765 93.0046M90.2379 112L90.7684 116M90.7684 116L91.1564 118.926L89.1564 123M115.794 112L115.263 116M115.263 116L114.875 118.926L116.875 123M116.875 123H89.1564M15 33H128L133 43H10L15 33Z" stroke="#B77D0D" stroke-width="1.5" stroke-linecap="round" stroke-linejoin="round"/>
</svg>
