<svg width="140" height="140" viewBox="0 0 140 140" fill="none" xmlns="http://www.w3.org/2000/svg">
<path d="M39 95H35V94C35 91.2386 37.2386 89 40 89H59C61.7614 89 64 91.2386 64 94V95H60M39 95H60M39 95L37.7027 107M60 95L61.2973 107M64 132L62 113.5M35 132L37 113.5M37.7027 107H61.2973M37.7027 107L37 113.5M61.2973 107L62 113.5M62 113.5H37M44 85C44.8333 83.5 45.8 81 43 79M56.8623 85C56.029 83.5 55.0623 81 57.8623 79M86.5 95H83.25C82.8358 95 82.5 94.6642 82.5 94.25C82.5 91.3505 84.8505 89 87.75 89H106.25C109.149 89 111.5 91.3505 111.5 94.25C111.5 94.6642 111.164 95 110.75 95H107.5M86.5 95H107.5M86.5 95L85.2027 107M107.5 95L108.797 107M111.5 132L109.5 113.5M82.5 132L84.5 113.5M85.2027 107H108.797M85.2027 107L84.5 113.5M108.797 107L109.5 113.5M109.5 113.5H84.5M91.5 85C92.3333 83.5 93.3 81 90.5 79M104.362 85C103.529 83.5 102.562 81 105.362 79M39.3916 27.7596H38.522L32 40.5L35.9133 47.0001H42.0003H48.0872L52 40.5M39.3916 27.7596H42.0003H44.609M39.3916 27.7596V23H42.0003M42.0003 23V7M42.0003 23H44.609V27.7596M52 40.5L45.4785 27.7596H44.609M52 40.5H42H40M71.3916 27.7596H70.522L64 40.5L67.9133 47.0001H74.0003H80.0872L84 40.5M71.3916 27.7596H74.0003H76.609M71.3916 27.7596V23H74.0003M74.0003 23V7M74.0003 23H76.609V27.7596M84 40.5L77.4785 27.7596H76.609M84 40.5H74H72M103.392 27.7596H102.522L96 40.5L99.9133 47.0001H106H112.087L116 40.5M103.392 27.7596H106H108.609M103.392 27.7596V23H106M106 23V7M106 23H108.609V27.7596M116 40.5L109.479 27.7596H108.609M116 40.5H106H104M35.2289 72.5C35.866 70.4714 37.7612 69 40 69H59C61.2388 69 63.134 70.4714 63.7711 72.5M35.2289 72.5C35.0802 72.9735 35 73.4774 35 74C35 75.1258 35.3721 76.1647 36 77.0005M35.2289 72.5H12.5V77.0005H18M82.7289 72.5C83.366 70.4714 85.2612 69 87.5 69H106.5C108.739 69 110.634 70.4714 111.271 72.5M82.7289 72.5C82.5802 72.9735 82.5 73.4774 82.5 74C82.5 74.9107 82.7435 75.7646 83.1689 76.5M82.7289 72.5H64H63.7711M63.7711 72.5C63.9198 72.9735 64 73.4774 64 74C64 74.9107 63.7565 75.7646 63.3311 76.5M111.271 72.5C111.42 72.9735 111.5 73.4774 111.5 74C111.5 74.9107 111.257 75.7646 110.831 76.5M111.271 72.5H134.5V76.5H129.5M110.831 76.5C109.967 77.9945 108.351 79 106.5 79H87.5C85.6493 79 84.0334 77.9945 83.1689 76.5M110.831 76.5H129.5M83.1689 76.5H63.3311M63.3311 76.5C62.4666 77.9945 60.8507 79 59 79H40C38.3644 79 36.9122 78.2147 36 77.0005M36 77.0005H18M18 77.0005V132M129.5 132V76.5M24.0001 65L32.6604 55.25H20.8029M24.0001 65L15.3398 55.25H20.8029M24.0001 65V70.5H23H22H21H20.5H27.5M20.8029 55.25L16.0529 50.5M20.8029 55.25L25.0529 59.5" stroke="#F07E26" stroke-width="1.8" stroke-linecap="square"/>
</svg>
